<?xml version="1.0" encoding="utf-8" standalone="no"?>
<!DOCTYPE svg PUBLIC "-//W3C//DTD SVG 1.1//EN"
  "http://www.w3.org/Graphics/SVG/1.1/DTD/svg11.dtd">
<svg xmlns:xlink="http://www.w3.org/1999/xlink" width="623.844pt" height="476.64pt" viewBox="0 0 623.844 476.64" xmlns="http://www.w3.org/2000/svg" version="1.1">
 <metadata>
  <rdf:RDF xmlns:dc="http://purl.org/dc/elements/1.1/" xmlns:cc="http://creativecommons.org/ns#" xmlns:rdf="http://www.w3.org/1999/02/22-rdf-syntax-ns#">
   <cc:Work>
    <dc:type rdf:resource="http://purl.org/dc/dcmitype/StillImage"/>
    <dc:date>2024-06-07T19:43:18.157494</dc:date>
    <dc:format>image/svg+xml</dc:format>
    <dc:creator>
     <cc:Agent>
      <dc:title>Matplotlib v3.7.1, https://matplotlib.org/</dc:title>
     </cc:Agent>
    </dc:creator>
   </cc:Work>
  </rdf:RDF>
 </metadata>
 <defs>
  <style type="text/css">*{stroke-linejoin: round; stroke-linecap: butt}</style>
 </defs>
 <g id="figure_1">
  <g id="patch_1">
   <path d="M 0 476.64 
L 623.844 476.64 
L 623.844 -0 
L 0 -0 
z
" style="fill: #1a1a1a"/>
  </g>
  <g id="axes_1">
   <g id="patch_2">
    <path d="M 66.86 417.16 
L 558.756 417.16 
L 558.756 39.6 
L 66.86 39.6 
z
" style="fill: #1a1a1a"/>
   </g>
   <g id="PathCollection_1">
    <path d="M 232.870595 94.745779 
C 234.040373 94.745779 235.162397 94.281022 235.989554 93.453864 
C 236.816712 92.626706 237.28147 91.504682 237.28147 90.334904 
C 237.28147 89.165127 236.816712 88.043103 235.989554 87.215945 
C 235.162397 86.388787 234.040373 85.92403 232.870595 85.92403 
C 231.700817 85.92403 230.578793 86.388787 229.751635 87.215945 
C 228.924478 88.043103 228.45972 89.165127 228.45972 90.334904 
C 228.45972 91.504682 228.924478 92.626706 229.751635 93.453864 
C 230.578793 94.281022 231.700817 94.745779 232.870595 94.745779 
z
" clip-path="url(#pde29da8c05)" style="fill: #573259; fill-opacity: 0.9; stroke: #ffffff; stroke-opacity: 0.9; stroke-width: 0.64778"/>
    <path d="M 292.959597 100.552583 
C 294.298876 100.552583 295.583482 100.020482 296.530495 99.073469 
C 297.477509 98.126455 298.00961 96.841849 298.00961 95.50257 
C 298.00961 94.163291 297.477509 92.878685 296.530495 91.931671 
C 295.583482 90.984658 294.298876 90.452557 292.959597 90.452557 
C 291.620318 90.452557 290.335711 90.984658 289.388698 91.931671 
C 288.441685 92.878685 287.909583 94.163291 287.909583 95.50257 
C 287.909583 96.841849 288.441685 98.126455 289.388698 99.073469 
C 290.335711 100.020482 291.620318 100.552583 292.959597 100.552583 
z
" clip-path="url(#pde29da8c05)" style="fill: #573259; fill-opacity: 0.9; stroke: #ffffff; stroke-opacity: 0.9; stroke-width: 0.64778"/>
    <path d="M 208.139394 110.560644 
C 209.231795 110.560644 210.279602 110.126628 211.052046 109.354184 
C 211.824491 108.581739 212.258507 107.533933 212.258507 106.441531 
C 212.258507 105.34913 211.824491 104.301323 211.052046 103.528879 
C 210.279602 102.756434 209.231795 102.322418 208.139394 102.322418 
C 207.046992 102.322418 205.999186 102.756434 205.226741 103.528879 
C 204.454297 104.301323 204.020281 105.34913 204.020281 106.441531 
C 204.020281 107.533933 204.454297 108.581739 205.226741 109.354184 
C 205.999186 110.126628 207.046992 110.560644 208.139394 110.560644 
z
" clip-path="url(#pde29da8c05)" style="fill: #573259; fill-opacity: 0.9; stroke: #ffffff; stroke-opacity: 0.9; stroke-width: 0.64778"/>
    <path d="M 254.486322 94.193927 
C 255.719759 94.193927 256.902845 93.703877 257.775017 92.831705 
C 258.647189 91.959532 259.137239 90.776447 259.137239 89.54301 
C 259.137239 88.309572 258.647189 87.126487 257.775017 86.254315 
C 256.902845 85.382142 255.719759 84.892093 254.486322 84.892093 
C 253.252884 84.892093 252.069799 85.382142 251.197627 86.254315 
C 250.325455 87.126487 249.835405 88.309572 249.835405 89.54301 
C 249.835405 90.776447 250.325455 91.959532 251.197627 92.831705 
C 252.069799 93.703877 253.252884 94.193927 254.486322 94.193927 
z
" clip-path="url(#pde29da8c05)" style="fill: #573259; fill-opacity: 0.9; stroke: #ffffff; stroke-opacity: 0.9; stroke-width: 0.64778"/>
    <path d="M 536.397091 104.004904 
C 538.27236 104.004904 540.071075 103.259852 541.397091 101.933836 
C 542.723106 100.607821 543.468159 98.809105 543.468159 96.933836 
C 543.468159 95.058567 542.723106 93.259852 541.397091 91.933836 
C 540.071075 90.607821 538.27236 89.862769 536.397091 89.862769 
C 534.521822 89.862769 532.723106 90.607821 531.397091 91.933836 
C 530.071075 93.259852 529.326023 95.058567 529.326023 96.933836 
C 529.326023 98.809105 530.071075 100.607821 531.397091 101.933836 
C 532.723106 103.259852 534.521822 104.004904 536.397091 104.004904 
z
" clip-path="url(#pde29da8c05)" style="fill: #573259; fill-opacity: 0.9; stroke: #ffffff; stroke-opacity: 0.9; stroke-width: 0.64778"/>
    <path d="M 196.051354 101.765349 
C 197.103868 101.765349 198.113416 101.347181 198.857655 100.602941 
C 199.601895 99.858701 200.020064 98.849153 200.020064 97.796639 
C 200.020064 96.744125 199.601895 95.734577 198.857655 94.990337 
C 198.113416 94.246097 197.103868 93.827929 196.051354 93.827929 
C 194.99884 93.827929 193.989292 94.246097 193.245052 94.990337 
C 192.500812 95.734577 192.082644 96.744125 192.082644 97.796639 
C 192.082644 98.849153 192.500812 99.858701 193.245052 100.602941 
C 193.989292 101.347181 194.99884 101.765349 196.051354 101.765349 
z
" clip-path="url(#pde29da8c05)" style="fill: #573259; fill-opacity: 0.9; stroke: #ffffff; stroke-opacity: 0.9; stroke-width: 0.64778"/>
    <path d="M 264.648432 102.595286 
C 265.910689 102.595286 267.121417 102.093786 268.013968 101.201235 
C 268.906518 100.308685 269.408018 99.097957 269.408018 97.8357 
C 269.408018 96.573443 268.906518 95.362715 268.013968 94.470165 
C 267.121417 93.577615 265.910689 93.076115 264.648432 93.076115 
C 263.386176 93.076115 262.175448 93.577615 261.282897 94.470165 
C 260.390347 95.362715 259.888847 96.573443 259.888847 97.8357 
C 259.888847 99.097957 260.390347 100.308685 261.282897 101.201235 
C 262.175448 102.093786 263.386176 102.595286 264.648432 102.595286 
z
" clip-path="url(#pde29da8c05)" style="fill: #573259; fill-opacity: 0.9; stroke: #ffffff; stroke-opacity: 0.9; stroke-width: 0.64778"/>
    <path d="M 217.655752 108.707904 
C 218.778558 108.707904 219.855529 108.261808 220.649473 107.467864 
C 221.443417 106.67392 221.889513 105.596949 221.889513 104.474143 
C 221.889513 103.351336 221.443417 102.274366 220.649473 101.480422 
C 219.855529 100.686477 218.778558 100.240382 217.655752 100.240382 
C 216.532945 100.240382 215.455975 100.686477 214.662031 101.480422 
C 213.868086 102.274366 213.421991 103.351336 213.421991 104.474143 
C 213.421991 105.596949 213.868086 106.67392 214.662031 107.467864 
C 215.455975 108.261808 216.532945 108.707904 217.655752 108.707904 
z
" clip-path="url(#pde29da8c05)" style="fill: #573259; fill-opacity: 0.9; stroke: #ffffff; stroke-opacity: 0.9; stroke-width: 0.64778"/>
    <path d="M 229.721134 107.384746 
C 230.881344 107.384746 231.994192 106.92379 232.814585 106.103397 
C 233.634978 105.283004 234.095935 104.170156 234.095935 103.009945 
C 234.095935 101.849734 233.634978 100.736887 232.814585 99.916494 
C 231.994192 99.096101 230.881344 98.635144 229.721134 98.635144 
C 228.560923 98.635144 227.448075 99.096101 226.627682 99.916494 
C 225.807289 100.736887 225.346333 101.849734 225.346333 103.009945 
C 225.346333 104.170156 225.807289 105.283004 226.627682 106.103397 
C 227.448075 106.92379 228.560923 107.384746 229.721134 107.384746 
z
" clip-path="url(#pde29da8c05)" style="fill: #573259; fill-opacity: 0.9; stroke: #ffffff; stroke-opacity: 0.9; stroke-width: 0.64778"/>
    <path d="M 323.060743 105.282927 
C 324.477328 105.282927 325.836084 104.720112 326.837761 103.718435 
C 327.839439 102.716757 328.402254 101.358001 328.402254 99.941416 
C 328.402254 98.52483 327.839439 97.166074 326.837761 96.164397 
C 325.836084 95.16272 324.477328 94.599904 323.060743 94.599904 
C 321.644157 94.599904 320.285401 95.16272 319.283724 96.164397 
C 318.282047 97.166074 317.719231 98.52483 317.719231 99.941416 
C 317.719231 101.358001 318.282047 102.716757 319.283724 103.718435 
C 320.285401 104.720112 321.644157 105.282927 323.060743 105.282927 
z
" clip-path="url(#pde29da8c05)" style="fill: #573259; fill-opacity: 0.9; stroke: #ffffff; stroke-opacity: 0.9; stroke-width: 0.64778"/>
    <path d="M 286.230172 100.119875 
C 287.55155 100.119875 288.818986 99.594886 289.753342 98.66053 
C 290.687697 97.726175 291.212686 96.458739 291.212686 95.137361 
C 291.212686 93.815983 290.687697 92.548547 289.753342 91.614191 
C 288.818986 90.679836 287.55155 90.154847 286.230172 90.154847 
C 284.908794 90.154847 283.641358 90.679836 282.707003 91.614191 
C 281.772647 92.548547 281.247658 93.815983 281.247658 95.137361 
C 281.247658 96.458739 281.772647 97.726175 282.707003 98.66053 
C 283.641358 99.594886 284.908794 100.119875 286.230172 100.119875 
z
" clip-path="url(#pde29da8c05)" style="fill: #573259; fill-opacity: 0.9; stroke: #ffffff; stroke-opacity: 0.9; stroke-width: 0.64778"/>
    <path d="M 243.055364 92.609428 
C 244.255557 92.609428 245.406755 92.132586 246.25542 91.283921 
C 247.104085 90.435256 247.580927 89.284058 247.580927 88.083865 
C 247.580927 86.883672 247.104085 85.732474 246.25542 84.883809 
C 245.406755 84.035144 244.255557 83.558302 243.055364 83.558302 
C 241.85517 83.558302 240.703972 84.035144 239.855307 84.883809 
C 239.006642 85.732474 238.529801 86.883672 238.529801 88.083865 
C 238.529801 89.284058 239.006642 90.435256 239.855307 91.283921 
C 240.703972 92.132586 241.85517 92.609428 243.055364 92.609428 
z
" clip-path="url(#pde29da8c05)" style="fill: #573259; fill-opacity: 0.9; stroke: #ffffff; stroke-opacity: 0.9; stroke-width: 0.64778"/>
    <path d="M 256.638831 113.341721 
C 257.878429 113.341721 259.067423 112.849224 259.943952 111.972696 
C 260.82048 111.096168 261.312977 109.907174 261.312977 108.667576 
C 261.312977 107.427978 260.82048 106.238984 259.943952 105.362455 
C 259.067423 104.485927 257.878429 103.99343 256.638831 103.99343 
C 255.399233 103.99343 254.210239 104.485927 253.333711 105.362455 
C 252.457183 106.238984 251.964686 107.427978 251.964686 108.667576 
C 251.964686 109.907174 252.457183 111.096168 253.333711 111.972696 
C 254.210239 112.849224 255.399233 113.341721 256.638831 113.341721 
z
" clip-path="url(#pde29da8c05)" style="fill: #573259; fill-opacity: 0.9; stroke: #ffffff; stroke-opacity: 0.9; stroke-width: 0.64778"/>
    <path d="M 217.916319 85.524961 
C 219.039946 85.524961 220.117704 85.078539 220.912228 84.284014 
C 221.706753 83.489489 222.153175 82.411732 222.153175 81.288104 
C 222.153175 80.164477 221.706753 79.086719 220.912228 78.292194 
C 220.117704 77.49767 219.039946 77.051248 217.916319 77.051248 
C 216.792691 77.051248 215.714933 77.49767 214.920409 78.292194 
C 214.125884 79.086719 213.679462 80.164477 213.679462 81.288104 
C 213.679462 82.411732 214.125884 83.489489 214.920409 84.284014 
C 215.714933 85.078539 216.792691 85.524961 217.916319 85.524961 
z
" clip-path="url(#pde29da8c05)" style="fill: #573259; fill-opacity: 0.9; stroke: #ffffff; stroke-opacity: 0.9; stroke-width: 0.64778"/>
    <path d="M 212.580361 99.310513 
C 213.687055 99.310513 214.748571 98.870819 215.531123 98.088268 
C 216.313674 97.305717 216.753368 96.244201 216.753368 95.137506 
C 216.753368 94.030812 216.313674 92.969296 215.531123 92.186744 
C 214.748571 91.404193 213.687055 90.964499 212.580361 90.964499 
C 211.473666 90.964499 210.41215 91.404193 209.629599 92.186744 
C 208.847048 92.969296 208.407354 94.030812 208.407354 95.137506 
C 208.407354 96.244201 208.847048 97.305717 209.629599 98.088268 
C 210.41215 98.870819 211.473666 99.310513 212.580361 99.310513 
z
" clip-path="url(#pde29da8c05)" style="fill: #573259; fill-opacity: 0.9; stroke: #ffffff; stroke-opacity: 0.9; stroke-width: 0.64778"/>
    <path d="M 192.312785 94.780644 
C 193.352653 94.780644 194.350071 94.3675 195.085368 93.632202 
C 195.820666 92.896905 196.23381 91.899487 196.23381 90.859619 
C 196.23381 89.81975 195.820666 88.822333 195.085368 88.087035 
C 194.350071 87.351737 193.352653 86.938593 192.312785 86.938593 
C 191.272916 86.938593 190.275499 87.351737 189.540201 88.087035 
C 188.804903 88.822333 188.391759 89.81975 188.391759 90.859619 
C 188.391759 91.899487 188.804903 92.896905 189.540201 93.632202 
C 190.275499 94.3675 191.272916 94.780644 192.312785 94.780644 
z
" clip-path="url(#pde29da8c05)" style="fill: #573259; fill-opacity: 0.9; stroke: #ffffff; stroke-opacity: 0.9; stroke-width: 0.64778"/>
    <path d="M 212.580361 106.993334 
C 213.687055 106.993334 214.748571 106.55364 215.531123 105.771089 
C 216.313674 104.988538 216.753368 103.927021 216.753368 102.820327 
C 216.753368 101.713632 216.313674 100.652116 215.531123 99.869565 
C 214.748571 99.087014 213.687055 98.64732 212.580361 98.64732 
C 211.473666 98.64732 210.41215 99.087014 209.629599 99.869565 
C 208.847048 100.652116 208.407354 101.713632 208.407354 102.820327 
C 208.407354 103.927021 208.847048 104.988538 209.629599 105.771089 
C 210.41215 106.55364 211.473666 106.993334 212.580361 106.993334 
z
" clip-path="url(#pde29da8c05)" style="fill: #573259; fill-opacity: 0.9; stroke: #ffffff; stroke-opacity: 0.9; stroke-width: 0.64778"/>
    <path d="M 224.135938 107.751735 
C 225.278986 107.751735 226.375372 107.297597 227.183629 106.48934 
C 227.991886 105.681083 228.446024 104.584697 228.446024 103.441649 
C 228.446024 102.298601 227.991886 101.202215 227.183629 100.393958 
C 226.375372 99.585701 225.278986 99.131563 224.135938 99.131563 
C 222.99289 99.131563 221.896504 99.585701 221.088247 100.393958 
C 220.27999 101.202215 219.825852 102.298601 219.825852 103.441649 
C 219.825852 104.584697 220.27999 105.681083 221.088247 106.48934 
C 221.896504 107.297597 222.99289 107.751735 224.135938 107.751735 
z
" clip-path="url(#pde29da8c05)" style="fill: #573259; fill-opacity: 0.9; stroke: #ffffff; stroke-opacity: 0.9; stroke-width: 0.64778"/>
    <path d="M 210.291903 95.734246 
C 211.391256 95.734246 212.44573 95.297468 213.223089 94.520109 
C 214.000449 93.742749 214.437226 92.688276 214.437226 91.588923 
C 214.437226 90.489571 214.000449 89.435097 213.223089 88.657737 
C 212.44573 87.880378 211.391256 87.443601 210.291903 87.443601 
C 209.192551 87.443601 208.138077 87.880378 207.360718 88.657737 
C 206.583358 89.435097 206.146581 90.489571 206.146581 91.588923 
C 206.146581 92.688276 206.583358 93.742749 207.360718 94.520109 
C 208.138077 95.297468 209.192551 95.734246 210.291903 95.734246 
z
" clip-path="url(#pde29da8c05)" style="fill: #573259; fill-opacity: 0.9; stroke: #ffffff; stroke-opacity: 0.9; stroke-width: 0.64778"/>
    <path d="M 221.473624 97.793045 
C 222.608399 97.793045 223.696851 97.342194 224.499258 96.539786 
C 225.301666 95.737379 225.752517 94.648928 225.752517 93.514152 
C 225.752517 92.379376 225.301666 91.290925 224.499258 90.488517 
C 223.696851 89.68611 222.608399 89.235259 221.473624 89.235259 
C 220.338848 89.235259 219.250397 89.68611 218.447989 90.488517 
C 217.645582 91.290925 217.19473 92.379376 217.19473 93.514152 
C 217.19473 94.648928 217.645582 95.737379 218.447989 96.539786 
C 219.250397 97.342194 220.338848 97.793045 221.473624 97.793045 
z
" clip-path="url(#pde29da8c05)" style="fill: #573259; fill-opacity: 0.9; stroke: #ffffff; stroke-opacity: 0.9; stroke-width: 0.64778"/>
    <path d="M 264.138628 105.853181 
C 265.399454 105.853181 266.608811 105.35225 267.50035 104.460711 
C 268.391889 103.569171 268.892821 102.359815 268.892821 101.098988 
C 268.892821 99.838162 268.391889 98.628805 267.50035 97.737266 
C 266.608811 96.845727 265.399454 96.344795 264.138628 96.344795 
C 262.877801 96.344795 261.668445 96.845727 260.776905 97.737266 
C 259.885366 98.628805 259.384435 99.838162 259.384435 101.098988 
C 259.384435 102.359815 259.885366 103.569171 260.776905 104.460711 
C 261.668445 105.35225 262.877801 105.853181 264.138628 105.853181 
z
" clip-path="url(#pde29da8c05)" style="fill: #573259; fill-opacity: 0.9; stroke: #ffffff; stroke-opacity: 0.9; stroke-width: 0.64778"/>
    <path d="M 247.122474 112.32705 
C 248.3346 112.32705 249.497243 111.845467 250.354346 110.988365 
C 251.211449 110.131262 251.693031 108.968618 251.693031 107.756492 
C 251.693031 106.544366 251.211449 105.381722 250.354346 104.52462 
C 249.497243 103.667517 248.3346 103.185935 247.122474 103.185935 
C 245.910348 103.185935 244.747704 103.667517 243.890601 104.52462 
C 243.033499 105.381722 242.551916 106.544366 242.551916 107.756492 
C 242.551916 108.968618 243.033499 110.131262 243.890601 110.988365 
C 244.747704 111.845467 245.910348 112.32705 247.122474 112.32705 
z
" clip-path="url(#pde29da8c05)" style="fill: #573259; fill-opacity: 0.9; stroke: #ffffff; stroke-opacity: 0.9; stroke-width: 0.64778"/>
    <path d="M 216.77209 104.509426 
C 217.892108 104.509426 218.966403 104.064438 219.758376 103.272465 
C 220.550348 102.480493 220.995336 101.406197 220.995336 100.286179 
C 220.995336 99.166162 220.550348 98.091866 219.758376 97.299894 
C 218.966403 96.507921 217.892108 96.062933 216.77209 96.062933 
C 215.652072 96.062933 214.577776 96.507921 213.785804 97.299894 
C 212.993832 98.091866 212.548844 99.166162 212.548844 100.286179 
C 212.548844 101.406197 212.993832 102.480493 213.785804 103.272465 
C 214.577776 104.064438 215.652072 104.509426 216.77209 104.509426 
z
" clip-path="url(#pde29da8c05)" style="fill: #573259; fill-opacity: 0.9; stroke: #ffffff; stroke-opacity: 0.9; stroke-width: 0.64778"/>
    <path d="M 218.924599 92.618582 
C 220.051398 92.618582 221.132197 92.170901 221.928964 91.374134 
C 222.725731 90.577367 223.173413 89.496567 223.173413 88.369769 
C 223.173413 87.24297 222.725731 86.162171 221.928964 85.365404 
C 221.132197 84.568637 220.051398 84.120955 218.924599 84.120955 
C 217.797801 84.120955 216.717001 84.568637 215.920234 85.365404 
C 215.123468 86.162171 214.675786 87.24297 214.675786 88.369769 
C 214.675786 89.496567 215.123468 90.577367 215.920234 91.374134 
C 216.717001 92.170901 217.797801 92.618582 218.924599 92.618582 
z
" clip-path="url(#pde29da8c05)" style="fill: #573259; fill-opacity: 0.9; stroke: #ffffff; stroke-opacity: 0.9; stroke-width: 0.64778"/>
    <path d="M 221.473624 108.355307 
C 222.608399 108.355307 223.696851 107.904456 224.499258 107.102048 
C 225.301666 106.29964 225.752517 105.211189 225.752517 104.076414 
C 225.752517 102.941638 225.301666 101.853187 224.499258 101.050779 
C 223.696851 100.248372 222.608399 99.79752 221.473624 99.79752 
C 220.338848 99.79752 219.250397 100.248372 218.447989 101.050779 
C 217.645582 101.853187 217.19473 102.941638 217.19473 104.076414 
C 217.19473 105.211189 217.645582 106.29964 218.447989 107.102048 
C 219.250397 107.904456 220.338848 108.355307 221.473624 108.355307 
z
" clip-path="url(#pde29da8c05)" style="fill: #573259; fill-opacity: 0.9; stroke: #ffffff; stroke-opacity: 0.9; stroke-width: 0.64778"/>
    <path d="M 261.340365 85.989928 
C 262.593313 85.989928 263.795113 85.492127 264.681081 84.606158 
C 265.567049 83.72019 266.06485 82.518391 266.06485 81.265443 
C 266.06485 80.012495 265.567049 78.810696 264.681081 77.924728 
C 263.795113 77.03876 262.593313 76.540958 261.340365 76.540958 
C 260.087417 76.540958 258.885618 77.03876 257.99965 77.924728 
C 257.113682 78.810696 256.61588 80.012495 256.61588 81.265443 
C 256.61588 82.518391 257.113682 83.72019 257.99965 84.606158 
C 258.885618 85.492127 260.087417 85.989928 261.340365 85.989928 
z
" clip-path="url(#pde29da8c05)" style="fill: #573259; fill-opacity: 0.9; stroke: #ffffff; stroke-opacity: 0.9; stroke-width: 0.64778"/>
    <path d="M 212.580361 111.817616 
C 213.687055 111.817616 214.748571 111.377922 215.531123 110.59537 
C 216.313674 109.812819 216.753368 108.751303 216.753368 107.644609 
C 216.753368 106.537914 216.313674 105.476398 215.531123 104.693847 
C 214.748571 103.911296 213.687055 103.471601 212.580361 103.471601 
C 211.473666 103.471601 210.41215 103.911296 209.629599 104.693847 
C 208.847048 105.476398 208.407354 106.537914 208.407354 107.644609 
C 208.407354 108.751303 208.847048 109.812819 209.629599 110.59537 
C 210.41215 111.377922 211.473666 111.817616 212.580361 111.817616 
z
" clip-path="url(#pde29da8c05)" style="fill: #573259; fill-opacity: 0.9; stroke: #ffffff; stroke-opacity: 0.9; stroke-width: 0.64778"/>
    <path d="M 272.646705 114.511079 
C 273.931189 114.511079 275.163238 114.000748 276.071506 113.09248 
C 276.979774 112.184212 277.490105 110.952164 277.490105 109.667679 
C 277.490105 108.383194 276.979774 107.151145 276.071506 106.242878 
C 275.163238 105.33461 273.931189 104.824278 272.646705 104.824278 
C 271.36222 104.824278 270.130171 105.33461 269.221903 106.242878 
C 268.313635 107.151145 267.803304 108.383194 267.803304 109.667679 
C 267.803304 110.952164 268.313635 112.184212 269.221903 113.09248 
C 270.130171 114.000748 271.36222 114.511079 272.646705 114.511079 
z
" clip-path="url(#pde29da8c05)" style="fill: #573259; fill-opacity: 0.9; stroke: #ffffff; stroke-opacity: 0.9; stroke-width: 0.64778"/>
    <path d="M 247.598291 95.972651 
C 248.811806 95.972651 249.975781 95.490516 250.833866 94.632432 
C 251.69195 93.774348 252.174084 92.610372 252.174084 91.396858 
C 252.174084 90.183343 251.69195 89.019368 250.833866 88.161284 
C 249.975781 87.303199 248.811806 86.821065 247.598291 86.821065 
C 246.384777 86.821065 245.220802 87.303199 244.362717 88.161284 
C 243.504633 89.019368 243.022499 90.183343 243.022499 91.396858 
C 243.022499 92.610372 243.504633 93.774348 244.362717 94.632432 
C 245.220802 95.490516 246.384777 95.972651 247.598291 95.972651 
z
" clip-path="url(#pde29da8c05)" style="fill: #573259; fill-opacity: 0.9; stroke: #ffffff; stroke-opacity: 0.9; stroke-width: 0.64778"/>
    <path d="M 203.687098 94.830173 
C 204.76498 94.830173 205.798859 94.401926 206.561037 93.639749 
C 207.323215 92.877571 207.751462 91.843692 207.751462 90.76581 
C 207.751462 89.687928 207.323215 88.654048 206.561037 87.891871 
C 205.798859 87.129693 204.76498 86.701446 203.687098 86.701446 
C 202.609216 86.701446 201.575336 87.129693 200.813159 87.891871 
C 200.050981 88.654048 199.622734 89.687928 199.622734 90.76581 
C 199.622734 91.843692 200.050981 92.877571 200.813159 93.639749 
C 201.575336 94.401926 202.609216 94.830173 203.687098 94.830173 
z
" clip-path="url(#pde29da8c05)" style="fill: #573259; fill-opacity: 0.9; stroke: #ffffff; stroke-opacity: 0.9; stroke-width: 0.64778"/>
    <path d="M 244.324211 108.029501 
C 245.52814 108.029501 246.682921 107.551175 247.534227 106.699869 
C 248.385534 105.848563 248.863859 104.693782 248.863859 103.489853 
C 248.863859 102.285924 248.385534 101.131143 247.534227 100.279837 
C 246.682921 99.428531 245.52814 98.950205 244.324211 98.950205 
C 243.120282 98.950205 241.965501 99.428531 241.114195 100.279837 
C 240.262889 101.131143 239.784563 102.285924 239.784563 103.489853 
C 239.784563 104.693782 240.262889 105.848563 241.114195 106.699869 
C 241.965501 107.551175 243.120282 108.029501 244.324211 108.029501 
z
" clip-path="url(#pde29da8c05)" style="fill: #573259; fill-opacity: 0.9; stroke: #ffffff; stroke-opacity: 0.9; stroke-width: 0.64778"/>
    <path d="M 270.992671 86.545437 
C 272.272591 86.545437 273.500261 86.03692 274.4053 85.13188 
C 275.31034 84.22684 275.818858 82.99917 275.818858 81.71925 
C 275.818858 80.439331 275.31034 79.211661 274.4053 78.306621 
C 273.500261 77.401581 272.272591 76.893063 270.992671 76.893063 
C 269.712751 76.893063 268.485081 77.401581 267.580041 78.306621 
C 266.675001 79.211661 266.166484 80.439331 266.166484 81.71925 
C 266.166484 82.99917 266.675001 84.22684 267.580041 85.13188 
C 268.485081 86.03692 269.712751 86.545437 270.992671 86.545437 
z
" clip-path="url(#pde29da8c05)" style="fill: #573259; fill-opacity: 0.9; stroke: #ffffff; stroke-opacity: 0.9; stroke-width: 0.64778"/>
    <path d="M 226.299777 111.536609 
C 227.449504 111.536609 228.552297 111.079817 229.365277 110.266837 
C 230.178257 109.453857 230.635049 108.351064 230.635049 107.201337 
C 230.635049 106.051609 230.178257 104.948816 229.365277 104.135836 
C 228.552297 103.322856 227.449504 102.866064 226.299777 102.866064 
C 225.150049 102.866064 224.047256 103.322856 223.234276 104.135836 
C 222.421296 104.948816 221.964504 106.051609 221.964504 107.201337 
C 221.964504 108.351064 222.421296 109.453857 223.234276 110.266837 
C 224.047256 111.079817 225.150049 111.536609 226.299777 111.536609 
z
" clip-path="url(#pde29da8c05)" style="fill: #573259; fill-opacity: 0.9; stroke: #ffffff; stroke-opacity: 0.9; stroke-width: 0.64778"/>
    <path d="M 225.280167 107.813276 
C 226.426752 107.813276 227.52653 107.357733 228.337288 106.546975 
C 229.148046 105.736216 229.60359 104.636438 229.60359 103.489853 
C 229.60359 102.343268 229.148046 101.24349 228.337288 100.432732 
C 227.52653 99.621973 226.426752 99.16643 225.280167 99.16643 
C 224.133582 99.16643 223.033803 99.621973 222.223045 100.432732 
C 221.412287 101.24349 220.956744 102.343268 220.956744 103.489853 
C 220.956744 104.636438 221.412287 105.736216 222.223045 106.546975 
C 223.033803 107.357733 224.133582 107.813276 225.280167 107.813276 
z
" clip-path="url(#pde29da8c05)" style="fill: #573259; fill-opacity: 0.9; stroke: #ffffff; stroke-opacity: 0.9; stroke-width: 0.64778"/>
    <path d="M 141.105717 82.505683 
C 141.953597 82.505683 142.766863 82.168817 143.366405 81.569275 
C 143.965947 80.969734 144.302813 80.156467 144.302813 79.308587 
C 144.302813 78.460707 143.965947 77.64744 143.366405 77.047899 
C 142.766863 76.448357 141.953597 76.111491 141.105717 76.111491 
C 140.257837 76.111491 139.44457 76.448357 138.845029 77.047899 
C 138.245487 77.64744 137.908621 78.460707 137.908621 79.308587 
C 137.908621 80.156467 138.245487 80.969734 138.845029 81.569275 
C 139.44457 82.168817 140.257837 82.505683 141.105717 82.505683 
z
" clip-path="url(#pde29da8c05)" style="fill: #573259; fill-opacity: 0.9; stroke: #ffffff; stroke-opacity: 0.9; stroke-width: 0.64778"/>
    <path d="M 130.909619 94.398575 
C 131.713818 94.398575 132.485187 94.079063 133.053842 93.510409 
C 133.622496 92.941755 133.942008 92.170385 133.942008 91.366187 
C 133.942008 90.561988 133.622496 89.790619 133.053842 89.221964 
C 132.485187 88.65331 131.713818 88.333798 130.909619 88.333798 
C 130.10542 88.333798 129.334051 88.65331 128.765397 89.221964 
C 128.196742 89.790619 127.877231 90.561988 127.877231 91.366187 
C 127.877231 92.170385 128.196742 92.941755 128.765397 93.510409 
C 129.334051 94.079063 130.10542 94.398575 130.909619 94.398575 
z
" clip-path="url(#pde29da8c05)" style="fill: #573259; fill-opacity: 0.9; stroke: #ffffff; stroke-opacity: 0.9; stroke-width: 0.64778"/>
    <path d="M 213.464023 91.732782 
C 214.573539 91.732782 215.637762 91.291966 216.422309 90.50742 
C 217.206855 89.722873 217.647671 88.65865 217.647671 87.549133 
C 217.647671 86.439617 217.206855 85.375394 216.422309 84.590847 
C 215.637762 83.806301 214.573539 83.365485 213.464023 83.365485 
C 212.354506 83.365485 211.290283 83.806301 210.505736 84.590847 
C 209.72119 85.375394 209.280374 86.439617 209.280374 87.549133 
C 209.280374 88.65865 209.72119 89.722873 210.505736 90.50742 
C 211.290283 91.291966 212.354506 91.732782 213.464023 91.732782 
z
" clip-path="url(#pde29da8c05)" style="fill: #573259; fill-opacity: 0.9; stroke: #ffffff; stroke-opacity: 0.9; stroke-width: 0.64778"/>
    <path d="M 220.204776 106.19931 
C 221.335588 106.19931 222.420237 105.750034 223.219842 104.950429 
C 224.019446 104.150824 224.468723 103.066175 224.468723 101.935363 
C 224.468723 100.804551 224.019446 99.719902 223.219842 98.920298 
C 222.420237 98.120693 221.335588 97.671416 220.204776 97.671416 
C 219.073964 97.671416 217.989315 98.120693 217.18971 98.920298 
C 216.390106 99.719902 215.940829 100.804551 215.940829 101.935363 
C 215.940829 103.066175 216.390106 104.150824 217.18971 104.950429 
C 217.989315 105.750034 219.073964 106.19931 220.204776 106.19931 
z
" clip-path="url(#pde29da8c05)" style="fill: #573259; fill-opacity: 0.9; stroke: #ffffff; stroke-opacity: 0.9; stroke-width: 0.64778"/>
    <path d="M 276.079391 96.596607 
C 277.373298 96.596607 278.614385 96.082532 279.529316 95.167601 
C 280.444246 94.25267 280.958321 93.011584 280.958321 91.717676 
C 280.958321 90.423769 280.444246 89.182682 279.529316 88.267751 
C 278.614385 87.352821 277.373298 86.838746 276.079391 86.838746 
C 274.785483 86.838746 273.544397 87.352821 272.629466 88.267751 
C 271.714535 89.182682 271.20046 90.423769 271.20046 91.717676 
C 271.20046 93.011584 271.714535 94.25267 272.629466 95.167601 
C 273.544397 96.082532 274.785483 96.596607 276.079391 96.596607 
z
" clip-path="url(#pde29da8c05)" style="fill: #573259; fill-opacity: 0.9; stroke: #ffffff; stroke-opacity: 0.9; stroke-width: 0.64778"/>
    <path d="M 203.415202 83.368365 
C 204.492191 83.368365 205.525214 82.940473 206.28676 82.178927 
C 207.048306 81.417381 207.476198 80.384358 207.476198 79.307369 
C 207.476198 78.23038 207.048306 77.197357 206.28676 76.435811 
C 205.525214 75.674265 204.492191 75.246373 203.415202 75.246373 
C 202.338213 75.246373 201.30519 75.674265 200.543644 76.435811 
C 199.782098 77.197357 199.354206 78.23038 199.354206 79.307369 
C 199.354206 80.384358 199.782098 81.417381 200.543644 82.178927 
C 201.30519 82.940473 202.338213 83.368365 203.415202 83.368365 
z
" clip-path="url(#pde29da8c05)" style="fill: #573259; fill-opacity: 0.9; stroke: #ffffff; stroke-opacity: 0.9; stroke-width: 0.64778"/>
    <path d="M 230.616125 113.000652 
C 231.779062 113.000652 232.894525 112.538612 233.716846 111.716291 
C 234.539167 110.89397 235.001207 109.778507 235.001207 108.61557 
C 235.001207 107.452632 234.539167 106.337169 233.716846 105.514848 
C 232.894525 104.692527 231.779062 104.230487 230.616125 104.230487 
C 229.453187 104.230487 228.337724 104.692527 227.515403 105.514848 
C 226.693082 106.337169 226.231042 107.452632 226.231042 108.61557 
C 226.231042 109.778507 226.693082 110.89397 227.515403 111.716291 
C 228.337724 112.538612 229.453187 113.000652 230.616125 113.000652 
z
" clip-path="url(#pde29da8c05)" style="fill: #573259; fill-opacity: 0.9; stroke: #ffffff; stroke-opacity: 0.9; stroke-width: 0.64778"/>
    <path d="M 221.337676 111.588962 
C 222.472027 111.588962 223.560072 111.138279 224.36218 110.336171 
C 225.164287 109.534063 225.61497 108.446019 225.61497 107.311667 
C 225.61497 106.177316 225.164287 105.089271 224.36218 104.287163 
C 223.560072 103.485056 222.472027 103.034373 221.337676 103.034373 
C 220.203324 103.034373 219.11528 103.485056 218.313172 104.287163 
C 217.511064 105.089271 217.060381 106.177316 217.060381 107.311667 
C 217.060381 108.446019 217.511064 109.534063 218.313172 110.336171 
C 219.11528 111.138279 220.203324 111.588962 221.337676 111.588962 
z
" clip-path="url(#pde29da8c05)" style="fill: #573259; fill-opacity: 0.9; stroke: #ffffff; stroke-opacity: 0.9; stroke-width: 0.64778"/>
    <path d="M 211.821318 114.011818 
C 212.925583 114.011818 213.984768 113.573089 214.765601 112.792256 
C 215.546434 112.011422 215.985163 110.952237 215.985163 109.847972 
C 215.985163 108.743708 215.546434 107.684522 214.765601 106.903689 
C 213.984768 106.122856 212.925583 105.684127 211.821318 105.684127 
C 210.717053 105.684127 209.657868 106.122856 208.877035 106.903689 
C 208.096202 107.684522 207.657473 108.743708 207.657473 109.847972 
C 207.657473 110.952237 208.096202 112.011422 208.877035 112.792256 
C 209.657868 113.573089 210.717053 114.011818 211.821318 114.011818 
z
" clip-path="url(#pde29da8c05)" style="fill: #573259; fill-opacity: 0.9; stroke: #ffffff; stroke-opacity: 0.9; stroke-width: 0.64778"/>
    <path d="M 224.011319 101.631144 
C 225.153981 101.631144 226.249997 101.17716 227.057981 100.369176 
C 227.865965 99.561191 228.31995 98.465176 228.31995 97.322514 
C 228.31995 96.179851 227.865965 95.083836 227.057981 94.275852 
C 226.249997 93.467867 225.153981 93.013883 224.011319 93.013883 
C 222.868657 93.013883 221.772641 93.467867 220.964657 94.275852 
C 220.156673 95.083836 219.702688 96.179851 219.702688 97.322514 
C 219.702688 98.465176 220.156673 99.561191 220.964657 100.369176 
C 221.772641 101.17716 222.868657 101.631144 224.011319 101.631144 
z
" clip-path="url(#pde29da8c05)" style="fill: #573259; fill-opacity: 0.9; stroke: #ffffff; stroke-opacity: 0.9; stroke-width: 0.64778"/>
    <path d="M 212.580361 107.759947 
C 213.687055 107.759947 214.748571 107.320252 215.531123 106.537701 
C 216.313674 105.75515 216.753368 104.693634 216.753368 103.58694 
C 216.753368 102.480245 216.313674 101.418729 215.531123 100.636178 
C 214.748571 99.853627 213.687055 99.413932 212.580361 99.413932 
C 211.473666 99.413932 210.41215 99.853627 209.629599 100.636178 
C 208.847048 101.418729 208.407354 102.480245 208.407354 103.58694 
C 208.407354 104.693634 208.847048 105.75515 209.629599 106.537701 
C 210.41215 107.320252 211.473666 107.759947 212.580361 107.759947 
z
" clip-path="url(#pde29da8c05)" style="fill: #573259; fill-opacity: 0.9; stroke: #ffffff; stroke-opacity: 0.9; stroke-width: 0.64778"/>
    <path d="M 227.817862 113.902219 
C 228.972253 113.902219 230.079519 113.443575 230.895796 112.627297 
C 231.712074 111.811019 232.170718 110.703754 232.170718 109.549363 
C 232.170718 108.394972 231.712074 107.287707 230.895796 106.471429 
C 230.079519 105.655151 228.972253 105.196507 227.817862 105.196507 
C 226.663471 105.196507 225.556206 105.655151 224.739928 106.471429 
C 223.923651 107.287707 223.465006 108.394972 223.465006 109.549363 
C 223.465006 110.703754 223.923651 111.811019 224.739928 112.627297 
C 225.556206 113.443575 226.663471 113.902219 227.817862 113.902219 
z
" clip-path="url(#pde29da8c05)" style="fill: #573259; fill-opacity: 0.9; stroke: #ffffff; stroke-opacity: 0.9; stroke-width: 0.64778"/>
    <path d="M 230.616125 114.112686 
C 231.779062 114.112686 232.894525 113.650646 233.716846 112.828325 
C 234.539167 112.006005 235.001207 110.890541 235.001207 109.727604 
C 235.001207 108.564667 234.539167 107.449204 233.716846 106.626883 
C 232.894525 105.804562 231.779062 105.342522 230.616125 105.342522 
C 229.453187 105.342522 228.337724 105.804562 227.515403 106.626883 
C 226.693082 107.449204 226.231042 108.564667 226.231042 109.727604 
C 226.231042 110.890541 226.693082 112.006005 227.515403 112.828325 
C 228.337724 113.650646 229.453187 114.112686 230.616125 114.112686 
z
" clip-path="url(#pde29da8c05)" style="fill: #573259; fill-opacity: 0.9; stroke: #ffffff; stroke-opacity: 0.9; stroke-width: 0.64778"/>
    <path d="M 198.430443 115.203119 
C 199.490926 115.203119 200.508118 114.781785 201.257992 114.03191 
C 202.007867 113.282035 202.429202 112.264844 202.429202 111.204361 
C 202.429202 110.143878 202.007867 109.126686 201.257992 108.376812 
C 200.508118 107.626937 199.490926 107.205602 198.430443 107.205602 
C 197.36996 107.205602 196.352769 107.626937 195.602894 108.376812 
C 194.853019 109.126686 194.431685 110.143878 194.431685 111.204361 
C 194.431685 112.264844 194.853019 113.282035 195.602894 114.03191 
C 196.352769 114.781785 197.36996 115.203119 198.430443 115.203119 
z
" clip-path="url(#pde29da8c05)" style="fill: #573259; fill-opacity: 0.9; stroke: #ffffff; stroke-opacity: 0.9; stroke-width: 0.64778"/>
    <path d="M 246.227483 89.672368 
C 247.436993 89.672368 248.597128 89.191825 249.452381 88.336572 
C 250.307634 87.481319 250.788177 86.321184 250.788177 85.111674 
C 250.788177 83.902164 250.307634 82.742029 249.452381 81.886776 
C 248.597128 81.031523 247.436993 80.550979 246.227483 80.550979 
C 245.017972 80.550979 243.857838 81.031523 243.002585 81.886776 
C 242.147332 82.742029 241.666788 83.902164 241.666788 85.111674 
C 241.666788 86.321184 242.147332 87.481319 243.002585 88.336572 
C 243.857838 89.191825 245.017972 89.672368 246.227483 89.672368 
z
" clip-path="url(#pde29da8c05)" style="fill: #573259; fill-opacity: 0.9; stroke: #ffffff; stroke-opacity: 0.9; stroke-width: 0.64778"/>
    <path d="M 249.410931 90.487278 
C 250.62972 90.487278 251.798755 90.003048 252.660569 89.141234 
C 253.522382 88.27942 254.006612 87.110386 254.006612 85.891597 
C 254.006612 84.672808 253.522382 83.503773 252.660569 82.641959 
C 251.798755 81.780145 250.62972 81.295915 249.410931 81.295915 
C 248.192142 81.295915 247.023107 81.780145 246.161294 82.641959 
C 245.29948 83.503773 244.81525 84.672808 244.81525 85.891597 
C 244.81525 87.110386 245.29948 88.27942 246.161294 89.141234 
C 247.023107 90.003048 248.192142 90.487278 249.410931 90.487278 
z
" clip-path="url(#pde29da8c05)" style="fill: #573259; fill-opacity: 0.9; stroke: #ffffff; stroke-opacity: 0.9; stroke-width: 0.64778"/>
    <path d="M 234.17343 93.084376 
C 235.347142 93.084376 236.47294 92.618055 237.30288 91.788115 
C 238.13282 90.958175 238.599141 89.832377 238.599141 88.658664 
C 238.599141 87.484952 238.13282 86.359154 237.30288 85.529214 
C 236.47294 84.699274 235.347142 84.232953 234.17343 84.232953 
C 232.999717 84.232953 231.873919 84.699274 231.043979 85.529214 
C 230.214039 86.359154 229.747718 87.484952 229.747718 88.658664 
C 229.747718 89.832377 230.214039 90.958175 231.043979 91.788115 
C 231.873919 92.618055 232.999717 93.084376 234.17343 93.084376 
z
" clip-path="url(#pde29da8c05)" style="fill: #573259; fill-opacity: 0.9; stroke: #ffffff; stroke-opacity: 0.9; stroke-width: 0.64778"/>
    <path d="M 232.870595 106.517956 
C 234.040373 106.517956 235.162397 106.053198 235.989554 105.226041 
C 236.816712 104.398883 237.28147 103.276859 237.28147 102.107081 
C 237.28147 100.937304 236.816712 99.815279 235.989554 98.988122 
C 235.162397 98.160964 234.040373 97.696206 232.870595 97.696206 
C 231.700817 97.696206 230.578793 98.160964 229.751635 98.988122 
C 228.924478 99.815279 228.45972 100.937304 228.45972 102.107081 
C 228.45972 103.276859 228.924478 104.398883 229.751635 105.226041 
C 230.578793 106.053198 231.700817 106.517956 232.870595 106.517956 
z
" clip-path="url(#pde29da8c05)" style="fill: #573259; fill-opacity: 0.9; stroke: #ffffff; stroke-opacity: 0.9; stroke-width: 0.64778"/>
    <path d="M 232.870595 94.745779 
C 234.040373 94.745779 235.162397 94.281022 235.989554 93.453864 
C 236.816712 92.626706 237.28147 91.504682 237.28147 90.334904 
C 237.28147 89.165127 236.816712 88.043103 235.989554 87.215945 
C 235.162397 86.388787 234.040373 85.92403 232.870595 85.92403 
C 231.700817 85.92403 230.578793 86.388787 229.751635 87.215945 
C 228.924478 88.043103 228.45972 89.165127 228.45972 90.334904 
C 228.45972 91.504682 228.924478 92.626706 229.751635 93.453864 
C 230.578793 94.281022 231.700817 94.745779 232.870595 94.745779 
z
" clip-path="url(#pde29da8c05)" style="fill: #573259; fill-opacity: 0.9; stroke: #ffffff; stroke-opacity: 0.9; stroke-width: 0.64778"/>
    <path d="M 129.776719 102.869428 
C 130.575917 102.869428 131.34249 102.551903 131.907608 101.986785 
C 132.472727 101.421667 132.790251 100.655094 132.790251 99.855896 
C 132.790251 99.056698 132.472727 98.290126 131.907608 97.725008 
C 131.34249 97.159889 130.575917 96.842365 129.776719 96.842365 
C 128.977521 96.842365 128.210949 97.159889 127.645831 97.725008 
C 127.080712 98.290126 126.763188 99.056698 126.763188 99.855896 
C 126.763188 100.655094 127.080712 101.421667 127.645831 101.986785 
C 128.210949 102.551903 128.977521 102.869428 129.776719 102.869428 
z
" clip-path="url(#pde29da8c05)" style="fill: #573259; fill-opacity: 0.9; stroke: #ffffff; stroke-opacity: 0.9; stroke-width: 0.64778"/>
    <path d="M 428.454405 92.147458 
C 430.113517 92.147458 431.7049 91.488285 432.878069 90.315116 
C 434.051239 89.141946 434.710411 87.550564 434.710411 85.891451 
C 434.710411 84.232339 434.051239 82.640956 432.878069 81.467787 
C 431.7049 80.294617 430.113517 79.635445 428.454405 79.635445 
C 426.795292 79.635445 425.20391 80.294617 424.03074 81.467787 
C 422.85757 82.640956 422.198398 84.232339 422.198398 85.891451 
C 422.198398 87.550564 422.85757 89.141946 424.03074 90.315116 
C 425.20391 91.488285 426.795292 92.147458 428.454405 92.147458 
z
" clip-path="url(#pde29da8c05)" style="fill: #573259; fill-opacity: 0.9; stroke: #ffffff; stroke-opacity: 0.9; stroke-width: 0.64778"/>
    <path d="M 226.549014 85.379407 
C 227.699509 85.379407 228.803037 84.922311 229.61656 84.108788 
C 230.430082 83.295266 230.887179 82.191738 230.887179 81.041243 
C 230.887179 79.890748 230.430082 78.78722 229.61656 77.973698 
C 228.803037 77.160175 227.699509 76.703079 226.549014 76.703079 
C 225.39852 76.703079 224.294992 77.160175 223.481469 77.973698 
C 222.667947 78.78722 222.21085 79.890748 222.21085 81.041243 
C 222.21085 82.191738 222.667947 83.295266 223.481469 84.108788 
C 224.294992 84.922311 225.39852 85.379407 226.549014 85.379407 
z
" clip-path="url(#pde29da8c05)" style="fill: #573259; fill-opacity: 0.9; stroke: #ffffff; stroke-opacity: 0.9; stroke-width: 0.64778"/>
    <path d="M 226.549014 106.411601 
C 227.699509 106.411601 228.803037 105.954505 229.61656 105.140982 
C 230.430082 104.32746 230.887179 103.223931 230.887179 102.073437 
C 230.887179 100.922942 230.430082 99.819414 229.61656 99.005891 
C 228.803037 98.192369 227.699509 97.735272 226.549014 97.735272 
C 225.39852 97.735272 224.294992 98.192369 223.481469 99.005891 
C 222.667947 99.819414 222.21085 100.922942 222.21085 102.073437 
C 222.21085 103.223931 222.667947 104.32746 223.481469 105.140982 
C 224.294992 105.954505 225.39852 106.411601 226.549014 106.411601 
z
" clip-path="url(#pde29da8c05)" style="fill: #573259; fill-opacity: 0.9; stroke: #ffffff; stroke-opacity: 0.9; stroke-width: 0.64778"/>
    <path d="M 264.773051 111.688592 
C 266.035658 111.688592 267.246721 111.186953 268.139518 110.294156 
C 269.032315 109.401358 269.533954 108.190295 269.533954 106.927689 
C 269.533954 105.665083 269.032315 104.45402 268.139518 103.561223 
C 267.246721 102.668425 266.035658 102.166787 264.773051 102.166787 
C 263.510445 102.166787 262.299382 102.668425 261.406585 103.561223 
C 260.513788 104.45402 260.012149 105.665083 260.012149 106.927689 
C 260.012149 108.190295 260.513788 109.401358 261.406585 110.294156 
C 262.299382 111.186953 263.510445 111.688592 264.773051 111.688592 
z
" clip-path="url(#pde29da8c05)" style="fill: #573259; fill-opacity: 0.9; stroke: #ffffff; stroke-opacity: 0.9; stroke-width: 0.64778"/>
    <path d="M 296.845443 100.221833 
C 298.194951 100.221833 299.489368 99.685668 300.443614 98.731421 
C 301.39786 97.777175 301.934025 96.482758 301.934025 95.13325 
C 301.934025 93.783742 301.39786 92.489325 300.443614 91.535079 
C 299.489368 90.580833 298.194951 90.044668 296.845443 90.044668 
C 295.495935 90.044668 294.201518 90.580833 293.247272 91.535079 
C 292.293025 92.489325 291.75686 93.783742 291.75686 95.13325 
C 291.75686 96.482758 292.293025 97.777175 293.247272 98.731421 
C 294.201518 99.685668 295.495935 100.221833 296.845443 100.221833 
z
" clip-path="url(#pde29da8c05)" style="fill: #573259; fill-opacity: 0.9; stroke: #ffffff; stroke-opacity: 0.9; stroke-width: 0.64778"/>
   </g>
   <g id="PathCollection_2">
    <defs>
     <path id="mec91ef35cb" d="M -5 0 
L 5 0 
M 0 5 
L 0 -5 
" style="stroke: #ffffff; stroke-width: 1.5"/>
    </defs>
    <g clip-path="url(#pde29da8c05)">
     <use xlink:href="#mec91ef35cb" x="238.598267" y="95.527945" style="fill: #ffffff; stroke: #ffffff; stroke-width: 1.5"/>
     <use xlink:href="#mec91ef35cb" x="117.905687" y="216.507195" style="fill: #ffffff; stroke: #ffffff; stroke-width: 1.5"/>
     <use xlink:href="#mec91ef35cb" x="241.189593" y="150.462596" style="fill: #ffffff; stroke: #ffffff; stroke-width: 1.5"/>
     <use xlink:href="#mec91ef35cb" x="260.277705" y="66.698236" style="fill: #ffffff; stroke: #ffffff; stroke-width: 1.5"/>
    </g>
   </g>
   <g id="PathCollection_3">
    <defs>
     <path id="mc1adc36cde" d="M 0 1.581139 
C 0.419323 1.581139 0.821528 1.41454 1.118034 1.118034 
C 1.41454 0.821528 1.581139 0.419323 1.581139 0 
C 1.581139 -0.419323 1.41454 -0.821528 1.118034 -1.118034 
C 0.821528 -1.41454 0.419323 -1.581139 0 -1.581139 
C -0.419323 -1.581139 -0.821528 -1.41454 -1.118034 -1.118034 
C -1.41454 -0.821528 -1.581139 -0.419323 -1.581139 0 
C -1.581139 0.419323 -1.41454 0.821528 -1.118034 1.118034 
C -0.821528 1.41454 -0.419323 1.581139 0 1.581139 
z
" style="stroke: #ffffff"/>
    </defs>
    <g clip-path="url(#pde29da8c05)">
     <use xlink:href="#mc1adc36cde" x="96.922627" y="322.789863" style="fill: #ffffff; stroke: #ffffff"/>
    </g>
   </g>
   <g id="matplotlib.axis_1">
    <g id="xtick_1">
     <g id="line2d_1">
      <defs>
       <path id="m116e615ed0" d="M 0 0 
L 0 3.5 
" style="stroke: #ffffff; stroke-width: 1.5"/>
      </defs>
      <g>
       <use xlink:href="#m116e615ed0" x="85.59363" y="417.16" style="fill: #ffffff; stroke: #ffffff; stroke-width: 1.5"/>
      </g>
     </g>
     <g id="text_1">
      <!-- 0 -->
      <g style="fill: #ffffff" transform="translate(82.583474 431.811562) scale(0.1 -0.1)">
       <defs>
        <path id="DejaVuSansMono-30" d="M 1509 2344 
Q 1509 2516 1629 2641 
Q 1750 2766 1919 2766 
Q 2094 2766 2219 2641 
Q 2344 2516 2344 2344 
Q 2344 2169 2220 2047 
Q 2097 1925 1919 1925 
Q 1744 1925 1626 2044 
Q 1509 2163 1509 2344 
z
M 1925 4250 
Q 1484 4250 1267 3775 
Q 1050 3300 1050 2328 
Q 1050 1359 1267 884 
Q 1484 409 1925 409 
Q 2369 409 2586 884 
Q 2803 1359 2803 2328 
Q 2803 3300 2586 3775 
Q 2369 4250 1925 4250 
z
M 1925 4750 
Q 2672 4750 3055 4137 
Q 3438 3525 3438 2328 
Q 3438 1134 3055 521 
Q 2672 -91 1925 -91 
Q 1178 -91 797 521 
Q 416 1134 416 2328 
Q 416 3525 797 4137 
Q 1178 4750 1925 4750 
z
" transform="scale(0.015625)"/>
       </defs>
       <use xlink:href="#DejaVuSansMono-30"/>
      </g>
     </g>
    </g>
    <g id="xtick_2">
     <g id="line2d_2">
      <g>
       <use xlink:href="#m116e615ed0" x="142.238617" y="417.16" style="fill: #ffffff; stroke: #ffffff; stroke-width: 1.5"/>
      </g>
     </g>
     <g id="text_2">
      <!-- 5 -->
      <g style="fill: #ffffff" transform="translate(139.22846 431.811562) scale(0.1 -0.1)">
       <defs>
        <path id="DejaVuSansMono-35" d="M 647 4666 
L 3009 4666 
L 3009 4134 
L 1222 4134 
L 1222 2988 
Q 1356 3038 1492 3061 
Q 1628 3084 1766 3084 
Q 2491 3084 2916 2656 
Q 3341 2228 3341 1497 
Q 3341 759 2895 334 
Q 2450 -91 1678 -91 
Q 1306 -91 998 -41 
Q 691 9 447 109 
L 447 750 
Q 734 594 1025 517 
Q 1316 441 1619 441 
Q 2141 441 2423 716 
Q 2706 991 2706 1497 
Q 2706 1997 2414 2275 
Q 2122 2553 1600 2553 
Q 1347 2553 1106 2495 
Q 866 2438 647 2322 
L 647 4666 
z
" transform="scale(0.015625)"/>
       </defs>
       <use xlink:href="#DejaVuSansMono-35"/>
      </g>
     </g>
    </g>
    <g id="xtick_3">
     <g id="line2d_3">
      <g>
       <use xlink:href="#m116e615ed0" x="198.883603" y="417.16" style="fill: #ffffff; stroke: #ffffff; stroke-width: 1.5"/>
      </g>
     </g>
     <g id="text_3">
      <!-- 10 -->
      <g style="fill: #ffffff" transform="translate(192.863291 431.811562) scale(0.1 -0.1)">
       <defs>
        <path id="DejaVuSansMono-31" d="M 844 531 
L 1825 531 
L 1825 4097 
L 769 3859 
L 769 4434 
L 1819 4666 
L 2450 4666 
L 2450 531 
L 3419 531 
L 3419 0 
L 844 0 
L 844 531 
z
" transform="scale(0.015625)"/>
       </defs>
       <use xlink:href="#DejaVuSansMono-31"/>
       <use xlink:href="#DejaVuSansMono-30" x="60.205078"/>
      </g>
     </g>
    </g>
    <g id="xtick_4">
     <g id="line2d_4">
      <g>
       <use xlink:href="#m116e615ed0" x="255.52859" y="417.16" style="fill: #ffffff; stroke: #ffffff; stroke-width: 1.5"/>
      </g>
     </g>
     <g id="text_4">
      <!-- 15 -->
      <g style="fill: #ffffff" transform="translate(249.508277 431.811562) scale(0.1 -0.1)">
       <use xlink:href="#DejaVuSansMono-31"/>
       <use xlink:href="#DejaVuSansMono-35" x="60.205078"/>
      </g>
     </g>
    </g>
    <g id="xtick_5">
     <g id="line2d_5">
      <g>
       <use xlink:href="#m116e615ed0" x="312.173576" y="417.16" style="fill: #ffffff; stroke: #ffffff; stroke-width: 1.5"/>
      </g>
     </g>
     <g id="text_5">
      <!-- 20 -->
      <g style="fill: #ffffff" transform="translate(306.153264 431.811562) scale(0.1 -0.1)">
       <defs>
        <path id="DejaVuSansMono-32" d="M 1166 531 
L 3309 531 
L 3309 0 
L 475 0 
L 475 531 
Q 1059 1147 1496 1619 
Q 1934 2091 2100 2284 
Q 2413 2666 2522 2902 
Q 2631 3138 2631 3384 
Q 2631 3775 2401 3997 
Q 2172 4219 1772 4219 
Q 1488 4219 1175 4116 
Q 863 4013 513 3803 
L 513 4441 
Q 834 4594 1145 4672 
Q 1456 4750 1759 4750 
Q 2444 4750 2861 4386 
Q 3278 4022 3278 3431 
Q 3278 3131 3139 2831 
Q 3000 2531 2688 2169 
Q 2513 1966 2180 1606 
Q 1847 1247 1166 531 
z
" transform="scale(0.015625)"/>
       </defs>
       <use xlink:href="#DejaVuSansMono-32"/>
       <use xlink:href="#DejaVuSansMono-30" x="60.205078"/>
      </g>
     </g>
    </g>
    <g id="xtick_6">
     <g id="line2d_6">
      <g>
       <use xlink:href="#m116e615ed0" x="368.818563" y="417.16" style="fill: #ffffff; stroke: #ffffff; stroke-width: 1.5"/>
      </g>
     </g>
     <g id="text_6">
      <!-- 25 -->
      <g style="fill: #ffffff" transform="translate(362.79825 431.811562) scale(0.1 -0.1)">
       <use xlink:href="#DejaVuSansMono-32"/>
       <use xlink:href="#DejaVuSansMono-35" x="60.205078"/>
      </g>
     </g>
    </g>
    <g id="xtick_7">
     <g id="line2d_7">
      <g>
       <use xlink:href="#m116e615ed0" x="425.463549" y="417.16" style="fill: #ffffff; stroke: #ffffff; stroke-width: 1.5"/>
      </g>
     </g>
     <g id="text_7">
      <!-- 30 -->
      <g style="fill: #ffffff" transform="translate(419.443237 431.811562) scale(0.1 -0.1)">
       <defs>
        <path id="DejaVuSansMono-33" d="M 2425 2497 
Q 2884 2375 3128 2064 
Q 3372 1753 3372 1288 
Q 3372 644 2939 276 
Q 2506 -91 1741 -91 
Q 1419 -91 1084 -31 
Q 750 28 428 141 
L 428 769 
Q 747 603 1056 522 
Q 1366 441 1672 441 
Q 2191 441 2469 675 
Q 2747 909 2747 1350 
Q 2747 1756 2469 1995 
Q 2191 2234 1716 2234 
L 1234 2234 
L 1234 2753 
L 1716 2753 
Q 2150 2753 2394 2943 
Q 2638 3134 2638 3475 
Q 2638 3834 2411 4026 
Q 2184 4219 1766 4219 
Q 1488 4219 1191 4156 
Q 894 4094 569 3969 
L 569 4550 
Q 947 4650 1242 4700 
Q 1538 4750 1766 4750 
Q 2447 4750 2855 4408 
Q 3263 4066 3263 3500 
Q 3263 3116 3048 2859 
Q 2834 2603 2425 2497 
z
" transform="scale(0.015625)"/>
       </defs>
       <use xlink:href="#DejaVuSansMono-33"/>
       <use xlink:href="#DejaVuSansMono-30" x="60.205078"/>
      </g>
     </g>
    </g>
    <g id="xtick_8">
     <g id="line2d_8">
      <g>
       <use xlink:href="#m116e615ed0" x="482.108536" y="417.16" style="fill: #ffffff; stroke: #ffffff; stroke-width: 1.5"/>
      </g>
     </g>
     <g id="text_8">
      <!-- 35 -->
      <g style="fill: #ffffff" transform="translate(476.088223 431.811562) scale(0.1 -0.1)">
       <use xlink:href="#DejaVuSansMono-33"/>
       <use xlink:href="#DejaVuSansMono-35" x="60.205078"/>
      </g>
     </g>
    </g>
    <g id="xtick_9">
     <g id="line2d_9">
      <g>
       <use xlink:href="#m116e615ed0" x="538.753522" y="417.16" style="fill: #ffffff; stroke: #ffffff; stroke-width: 1.5"/>
      </g>
     </g>
     <g id="text_9">
      <!-- 40 -->
      <g style="fill: #ffffff" transform="translate(532.73321 431.811562) scale(0.1 -0.1)">
       <defs>
        <path id="DejaVuSansMono-34" d="M 2297 4091 
L 825 1625 
L 2297 1625 
L 2297 4091 
z
M 2194 4666 
L 2925 4666 
L 2925 1625 
L 3547 1625 
L 3547 1113 
L 2925 1113 
L 2925 0 
L 2297 0 
L 2297 1113 
L 319 1113 
L 319 1709 
L 2194 4666 
z
" transform="scale(0.015625)"/>
       </defs>
       <use xlink:href="#DejaVuSansMono-34"/>
       <use xlink:href="#DejaVuSansMono-30" x="60.205078"/>
      </g>
     </g>
    </g>
    <g id="text_10">
     <!-- Planet Radius -->
     <g style="fill: #ffffff" transform="translate(265.849563 448.073125) scale(0.12 -0.12)">
      <defs>
       <path id="DejaVuSansMono-50" d="M 1247 4147 
L 1247 2394 
L 1978 2394 
Q 2416 2394 2661 2625 
Q 2906 2856 2906 3272 
Q 2906 3688 2662 3917 
Q 2419 4147 1978 4147 
L 1247 4147 
z
M 616 4666 
L 1978 4666 
Q 2759 4666 3162 4311 
Q 3566 3956 3566 3272 
Q 3566 2581 3164 2228 
Q 2763 1875 1978 1875 
L 1247 1875 
L 1247 0 
L 616 0 
L 616 4666 
z
" transform="scale(0.015625)"/>
       <path id="DejaVuSansMono-6c" d="M 1997 1269 
Q 1997 881 2139 684 
Q 2281 488 2559 488 
L 3231 488 
L 3231 0 
L 2503 0 
Q 1988 0 1705 331 
Q 1422 663 1422 1269 
L 1422 4447 
L 500 4447 
L 500 4897 
L 1997 4897 
L 1997 1269 
z
" transform="scale(0.015625)"/>
       <path id="DejaVuSansMono-61" d="M 2194 1759 
L 2003 1759 
Q 1500 1759 1245 1582 
Q 991 1406 991 1056 
Q 991 741 1181 566 
Q 1372 391 1709 391 
Q 2184 391 2456 720 
Q 2728 1050 2731 1631 
L 2731 1759 
L 2194 1759 
z
M 3309 1997 
L 3309 0 
L 2731 0 
L 2731 519 
Q 2547 206 2267 57 
Q 1988 -91 1588 -91 
Q 1053 -91 734 211 
Q 416 513 416 1019 
Q 416 1603 808 1906 
Q 1200 2209 1959 2209 
L 2731 2209 
L 2731 2300 
Q 2728 2719 2518 2908 
Q 2309 3097 1850 3097 
Q 1556 3097 1256 3012 
Q 956 2928 672 2766 
L 672 3341 
Q 991 3463 1283 3523 
Q 1575 3584 1850 3584 
Q 2284 3584 2592 3456 
Q 2900 3328 3091 3072 
Q 3209 2916 3259 2686 
Q 3309 2456 3309 1997 
z
" transform="scale(0.015625)"/>
       <path id="DejaVuSansMono-6e" d="M 3284 2169 
L 3284 0 
L 2706 0 
L 2706 2169 
Q 2706 2641 2540 2862 
Q 2375 3084 2022 3084 
Q 1619 3084 1401 2798 
Q 1184 2513 1184 1978 
L 1184 0 
L 609 0 
L 609 3500 
L 1184 3500 
L 1184 2975 
Q 1338 3275 1600 3429 
Q 1863 3584 2222 3584 
Q 2756 3584 3020 3232 
Q 3284 2881 3284 2169 
z
" transform="scale(0.015625)"/>
       <path id="DejaVuSansMono-65" d="M 3475 1894 
L 3475 1613 
L 984 1613 
L 984 1594 
Q 984 1022 1282 709 
Q 1581 397 2125 397 
Q 2400 397 2700 484 
Q 3000 572 3341 750 
L 3341 178 
Q 3013 44 2708 -23 
Q 2403 -91 2119 -91 
Q 1303 -91 843 398 
Q 384 888 384 1747 
Q 384 2584 834 3084 
Q 1284 3584 2034 3584 
Q 2703 3584 3089 3131 
Q 3475 2678 3475 1894 
z
M 2900 2063 
Q 2888 2569 2661 2833 
Q 2434 3097 2009 3097 
Q 1594 3097 1325 2822 
Q 1056 2547 1006 2059 
L 2900 2063 
z
" transform="scale(0.015625)"/>
       <path id="DejaVuSansMono-74" d="M 1919 4494 
L 1919 3500 
L 3225 3500 
L 3225 3053 
L 1919 3053 
L 1919 1153 
Q 1919 766 2066 612 
Q 2213 459 2578 459 
L 3225 459 
L 3225 0 
L 2522 0 
Q 1875 0 1609 259 
Q 1344 519 1344 1153 
L 1344 3053 
L 409 3053 
L 409 3500 
L 1344 3500 
L 1344 4494 
L 1919 4494 
z
" transform="scale(0.015625)"/>
       <path id="DejaVuSansMono-20" transform="scale(0.015625)"/>
       <path id="DejaVuSansMono-52" d="M 2375 2203 
Q 2619 2141 2791 1967 
Q 2963 1794 3219 1275 
L 3853 0 
L 3175 0 
L 2619 1178 
Q 2378 1681 2186 1826 
Q 1994 1972 1684 1972 
L 1081 1972 
L 1081 0 
L 447 0 
L 447 4666 
L 1747 4666 
Q 2516 4666 2925 4319 
Q 3334 3972 3334 3316 
Q 3334 2853 3082 2561 
Q 2831 2269 2375 2203 
z
M 1081 4147 
L 1081 2491 
L 1772 2491 
Q 2225 2491 2447 2694 
Q 2669 2897 2669 3316 
Q 2669 3719 2433 3933 
Q 2197 4147 1747 4147 
L 1081 4147 
z
" transform="scale(0.015625)"/>
       <path id="DejaVuSansMono-64" d="M 2681 3053 
L 2681 4863 
L 3256 4863 
L 3256 0 
L 2681 0 
L 2681 441 
Q 2538 181 2298 45 
Q 2059 -91 1747 -91 
Q 1113 -91 748 401 
Q 384 894 384 1759 
Q 384 2613 750 3098 
Q 1116 3584 1747 3584 
Q 2063 3584 2303 3448 
Q 2544 3313 2681 3053 
z
M 991 1747 
Q 991 1078 1203 737 
Q 1416 397 1831 397 
Q 2247 397 2464 740 
Q 2681 1084 2681 1747 
Q 2681 2413 2464 2755 
Q 2247 3097 1831 3097 
Q 1416 3097 1203 2756 
Q 991 2416 991 1747 
z
" transform="scale(0.015625)"/>
       <path id="DejaVuSansMono-69" d="M 800 3500 
L 2272 3500 
L 2272 447 
L 3413 447 
L 3413 0 
L 556 0 
L 556 447 
L 1697 447 
L 1697 3053 
L 800 3053 
L 800 3500 
z
M 1697 4863 
L 2272 4863 
L 2272 4134 
L 1697 4134 
L 1697 4863 
z
" transform="scale(0.015625)"/>
       <path id="DejaVuSansMono-75" d="M 609 1325 
L 609 3494 
L 1184 3494 
L 1184 1325 
Q 1184 853 1351 631 
Q 1519 409 1869 409 
Q 2275 409 2490 695 
Q 2706 981 2706 1516 
L 2706 3494 
L 3284 3494 
L 3284 0 
L 2706 0 
L 2706 525 
Q 2553 222 2289 65 
Q 2025 -91 1672 -91 
Q 1134 -91 871 261 
Q 609 613 609 1325 
z
" transform="scale(0.015625)"/>
       <path id="DejaVuSansMono-73" d="M 3041 3378 
L 3041 2816 
Q 2794 2959 2544 3031 
Q 2294 3103 2034 3103 
Q 1644 3103 1451 2976 
Q 1259 2850 1259 2591 
Q 1259 2356 1403 2240 
Q 1547 2125 2119 2016 
L 2350 1972 
Q 2778 1891 2998 1647 
Q 3219 1403 3219 1013 
Q 3219 494 2850 201 
Q 2481 -91 1825 -91 
Q 1566 -91 1281 -36 
Q 997 19 666 128 
L 666 722 
Q 988 556 1281 473 
Q 1575 391 1838 391 
Q 2219 391 2428 545 
Q 2638 700 2638 978 
Q 2638 1378 1872 1531 
L 1847 1538 
L 1631 1581 
Q 1134 1678 906 1908 
Q 678 2138 678 2534 
Q 678 3038 1018 3311 
Q 1359 3584 1991 3584 
Q 2272 3584 2531 3532 
Q 2791 3481 3041 3378 
z
" transform="scale(0.015625)"/>
      </defs>
      <use xlink:href="#DejaVuSansMono-50"/>
      <use xlink:href="#DejaVuSansMono-6c" x="60.205078"/>
      <use xlink:href="#DejaVuSansMono-61" x="120.410156"/>
      <use xlink:href="#DejaVuSansMono-6e" x="180.615234"/>
      <use xlink:href="#DejaVuSansMono-65" x="240.820312"/>
      <use xlink:href="#DejaVuSansMono-74" x="301.025391"/>
      <use xlink:href="#DejaVuSansMono-20" x="361.230469"/>
      <use xlink:href="#DejaVuSansMono-52" x="421.435547"/>
      <use xlink:href="#DejaVuSansMono-61" x="481.640625"/>
      <use xlink:href="#DejaVuSansMono-64" x="541.845703"/>
      <use xlink:href="#DejaVuSansMono-69" x="602.050781"/>
      <use xlink:href="#DejaVuSansMono-75" x="662.255859"/>
      <use xlink:href="#DejaVuSansMono-73" x="722.460938"/>
     </g>
    </g>
   </g>
   <g id="matplotlib.axis_2">
    <g id="ytick_1">
     <g id="line2d_10">
      <defs>
       <path id="m43ce1ecdb8" d="M 0 0 
L -3.5 0 
" style="stroke: #ffffff; stroke-width: 1.5"/>
      </defs>
      <g>
       <use xlink:href="#m43ce1ecdb8" x="66.86" y="389.642567" style="fill: #ffffff; stroke: #ffffff; stroke-width: 1.5"/>
      </g>
     </g>
     <g id="text_11">
      <!-- $\mathdefault{10^{-1}}$ -->
      <g style="fill: #ffffff" transform="translate(38.96 393.468348) scale(0.1 -0.1)">
       <defs>
        <path id="DejaVuSansMono-2212" d="M 275 2272 
L 3578 2272 
L 3578 1741 
L 275 1741 
L 275 2272 
z
" transform="scale(0.015625)"/>
       </defs>
       <use xlink:href="#DejaVuSansMono-31" transform="translate(0 0.684375)"/>
       <use xlink:href="#DejaVuSansMono-30" transform="translate(60.205078 0.684375)"/>
       <use xlink:href="#DejaVuSansMono-2212" transform="translate(121.367188 38.965625) scale(0.7)"/>
       <use xlink:href="#DejaVuSansMono-31" transform="translate(163.510742 38.965625) scale(0.7)"/>
      </g>
     </g>
    </g>
    <g id="ytick_2">
     <g id="line2d_11">
      <g>
       <use xlink:href="#m43ce1ecdb8" x="66.86" y="322.789863" style="fill: #ffffff; stroke: #ffffff; stroke-width: 1.5"/>
      </g>
     </g>
     <g id="text_12">
      <!-- $\mathdefault{10^{0}}$ -->
      <g style="fill: #ffffff" transform="translate(43.16 326.615644) scale(0.1 -0.1)">
       <use xlink:href="#DejaVuSansMono-31" transform="translate(0 0.765625)"/>
       <use xlink:href="#DejaVuSansMono-30" transform="translate(60.205078 0.765625)"/>
       <use xlink:href="#DejaVuSansMono-30" transform="translate(121.367188 39.046875) scale(0.7)"/>
      </g>
     </g>
    </g>
    <g id="ytick_3">
     <g id="line2d_12">
      <g>
       <use xlink:href="#m43ce1ecdb8" x="66.86" y="255.937159" style="fill: #ffffff; stroke: #ffffff; stroke-width: 1.5"/>
      </g>
     </g>
     <g id="text_13">
      <!-- $\mathdefault{10^{1}}$ -->
      <g style="fill: #ffffff" transform="translate(43.16 259.76294) scale(0.1 -0.1)">
       <use xlink:href="#DejaVuSansMono-31" transform="translate(0 0.684375)"/>
       <use xlink:href="#DejaVuSansMono-30" transform="translate(60.205078 0.684375)"/>
       <use xlink:href="#DejaVuSansMono-31" transform="translate(121.367188 38.965625) scale(0.7)"/>
      </g>
     </g>
    </g>
    <g id="ytick_4">
     <g id="line2d_13">
      <g>
       <use xlink:href="#m43ce1ecdb8" x="66.86" y="189.084455" style="fill: #ffffff; stroke: #ffffff; stroke-width: 1.5"/>
      </g>
     </g>
     <g id="text_14">
      <!-- $\mathdefault{10^{2}}$ -->
      <g style="fill: #ffffff" transform="translate(43.16 192.910236) scale(0.1 -0.1)">
       <use xlink:href="#DejaVuSansMono-31" transform="translate(0 0.765625)"/>
       <use xlink:href="#DejaVuSansMono-30" transform="translate(60.205078 0.765625)"/>
       <use xlink:href="#DejaVuSansMono-32" transform="translate(121.367188 39.046875) scale(0.7)"/>
      </g>
     </g>
    </g>
    <g id="ytick_5">
     <g id="line2d_14">
      <g>
       <use xlink:href="#m43ce1ecdb8" x="66.86" y="122.23175" style="fill: #ffffff; stroke: #ffffff; stroke-width: 1.5"/>
      </g>
     </g>
     <g id="text_15">
      <!-- $\mathdefault{10^{3}}$ -->
      <g style="fill: #ffffff" transform="translate(43.16 126.057532) scale(0.1 -0.1)">
       <use xlink:href="#DejaVuSansMono-31" transform="translate(0 0.765625)"/>
       <use xlink:href="#DejaVuSansMono-30" transform="translate(60.205078 0.765625)"/>
       <use xlink:href="#DejaVuSansMono-33" transform="translate(121.367188 39.046875) scale(0.7)"/>
      </g>
     </g>
    </g>
    <g id="ytick_6">
     <g id="line2d_15">
      <g>
       <use xlink:href="#m43ce1ecdb8" x="66.86" y="55.379046" style="fill: #ffffff; stroke: #ffffff; stroke-width: 1.5"/>
      </g>
     </g>
     <g id="text_16">
      <!-- $\mathdefault{10^{4}}$ -->
      <g style="fill: #ffffff" transform="translate(43.16 59.204828) scale(0.1 -0.1)">
       <use xlink:href="#DejaVuSansMono-31" transform="translate(0 0.684375)"/>
       <use xlink:href="#DejaVuSansMono-30" transform="translate(60.205078 0.684375)"/>
       <use xlink:href="#DejaVuSansMono-34" transform="translate(121.367188 38.965625) scale(0.7)"/>
      </g>
     </g>
    </g>
    <g id="ytick_7">
     <g id="line2d_16">
      <defs>
       <path id="mcd6b99c563" d="M 0 0 
L -2 0 
" style="stroke: #ffffff; stroke-width: 1.5"/>
      </defs>
      <g>
       <use xlink:href="#mcd6b99c563" x="66.86" y="416.245933" style="fill: #ffffff; stroke: #ffffff; stroke-width: 1.5"/>
      </g>
     </g>
    </g>
    <g id="ytick_8">
     <g id="line2d_17">
      <g>
       <use xlink:href="#mcd6b99c563" x="66.86" y="409.767236" style="fill: #ffffff; stroke: #ffffff; stroke-width: 1.5"/>
      </g>
     </g>
    </g>
    <g id="ytick_9">
     <g id="line2d_18">
      <g>
       <use xlink:href="#mcd6b99c563" x="66.86" y="404.473756" style="fill: #ffffff; stroke: #ffffff; stroke-width: 1.5"/>
      </g>
     </g>
    </g>
    <g id="ytick_10">
     <g id="line2d_19">
      <g>
       <use xlink:href="#mcd6b99c563" x="66.86" y="399.998182" style="fill: #ffffff; stroke: #ffffff; stroke-width: 1.5"/>
      </g>
     </g>
    </g>
    <g id="ytick_11">
     <g id="line2d_20">
      <g>
       <use xlink:href="#mcd6b99c563" x="66.86" y="396.121263" style="fill: #ffffff; stroke: #ffffff; stroke-width: 1.5"/>
      </g>
     </g>
    </g>
    <g id="ytick_12">
     <g id="line2d_21">
      <g>
       <use xlink:href="#mcd6b99c563" x="66.86" y="392.701579" style="fill: #ffffff; stroke: #ffffff; stroke-width: 1.5"/>
      </g>
     </g>
    </g>
    <g id="ytick_13">
     <g id="line2d_22">
      <g>
       <use xlink:href="#mcd6b99c563" x="66.86" y="369.517898" style="fill: #ffffff; stroke: #ffffff; stroke-width: 1.5"/>
      </g>
     </g>
    </g>
    <g id="ytick_14">
     <g id="line2d_23">
      <g>
       <use xlink:href="#mcd6b99c563" x="66.86" y="357.745721" style="fill: #ffffff; stroke: #ffffff; stroke-width: 1.5"/>
      </g>
     </g>
    </g>
    <g id="ytick_15">
     <g id="line2d_24">
      <g>
       <use xlink:href="#mcd6b99c563" x="66.86" y="349.393228" style="fill: #ffffff; stroke: #ffffff; stroke-width: 1.5"/>
      </g>
     </g>
    </g>
    <g id="ytick_16">
     <g id="line2d_25">
      <g>
       <use xlink:href="#mcd6b99c563" x="66.86" y="342.914532" style="fill: #ffffff; stroke: #ffffff; stroke-width: 1.5"/>
      </g>
     </g>
    </g>
    <g id="ytick_17">
     <g id="line2d_26">
      <g>
       <use xlink:href="#mcd6b99c563" x="66.86" y="337.621052" style="fill: #ffffff; stroke: #ffffff; stroke-width: 1.5"/>
      </g>
     </g>
    </g>
    <g id="ytick_18">
     <g id="line2d_27">
      <g>
       <use xlink:href="#mcd6b99c563" x="66.86" y="333.145478" style="fill: #ffffff; stroke: #ffffff; stroke-width: 1.5"/>
      </g>
     </g>
    </g>
    <g id="ytick_19">
     <g id="line2d_28">
      <g>
       <use xlink:href="#mcd6b99c563" x="66.86" y="329.268559" style="fill: #ffffff; stroke: #ffffff; stroke-width: 1.5"/>
      </g>
     </g>
    </g>
    <g id="ytick_20">
     <g id="line2d_29">
      <g>
       <use xlink:href="#mcd6b99c563" x="66.86" y="325.848875" style="fill: #ffffff; stroke: #ffffff; stroke-width: 1.5"/>
      </g>
     </g>
    </g>
    <g id="ytick_21">
     <g id="line2d_30">
      <g>
       <use xlink:href="#mcd6b99c563" x="66.86" y="302.665194" style="fill: #ffffff; stroke: #ffffff; stroke-width: 1.5"/>
      </g>
     </g>
    </g>
    <g id="ytick_22">
     <g id="line2d_31">
      <g>
       <use xlink:href="#mcd6b99c563" x="66.86" y="290.893017" style="fill: #ffffff; stroke: #ffffff; stroke-width: 1.5"/>
      </g>
     </g>
    </g>
    <g id="ytick_23">
     <g id="line2d_32">
      <g>
       <use xlink:href="#mcd6b99c563" x="66.86" y="282.540524" style="fill: #ffffff; stroke: #ffffff; stroke-width: 1.5"/>
      </g>
     </g>
    </g>
    <g id="ytick_24">
     <g id="line2d_33">
      <g>
       <use xlink:href="#mcd6b99c563" x="66.86" y="276.061828" style="fill: #ffffff; stroke: #ffffff; stroke-width: 1.5"/>
      </g>
     </g>
    </g>
    <g id="ytick_25">
     <g id="line2d_34">
      <g>
       <use xlink:href="#mcd6b99c563" x="66.86" y="270.768348" style="fill: #ffffff; stroke: #ffffff; stroke-width: 1.5"/>
      </g>
     </g>
    </g>
    <g id="ytick_26">
     <g id="line2d_35">
      <g>
       <use xlink:href="#mcd6b99c563" x="66.86" y="266.292774" style="fill: #ffffff; stroke: #ffffff; stroke-width: 1.5"/>
      </g>
     </g>
    </g>
    <g id="ytick_27">
     <g id="line2d_36">
      <g>
       <use xlink:href="#mcd6b99c563" x="66.86" y="262.415855" style="fill: #ffffff; stroke: #ffffff; stroke-width: 1.5"/>
      </g>
     </g>
    </g>
    <g id="ytick_28">
     <g id="line2d_37">
      <g>
       <use xlink:href="#mcd6b99c563" x="66.86" y="258.996171" style="fill: #ffffff; stroke: #ffffff; stroke-width: 1.5"/>
      </g>
     </g>
    </g>
    <g id="ytick_29">
     <g id="line2d_38">
      <g>
       <use xlink:href="#mcd6b99c563" x="66.86" y="235.812489" style="fill: #ffffff; stroke: #ffffff; stroke-width: 1.5"/>
      </g>
     </g>
    </g>
    <g id="ytick_30">
     <g id="line2d_39">
      <g>
       <use xlink:href="#mcd6b99c563" x="66.86" y="224.040313" style="fill: #ffffff; stroke: #ffffff; stroke-width: 1.5"/>
      </g>
     </g>
    </g>
    <g id="ytick_31">
     <g id="line2d_40">
      <g>
       <use xlink:href="#mcd6b99c563" x="66.86" y="215.68782" style="fill: #ffffff; stroke: #ffffff; stroke-width: 1.5"/>
      </g>
     </g>
    </g>
    <g id="ytick_32">
     <g id="line2d_41">
      <g>
       <use xlink:href="#mcd6b99c563" x="66.86" y="209.209124" style="fill: #ffffff; stroke: #ffffff; stroke-width: 1.5"/>
      </g>
     </g>
    </g>
    <g id="ytick_33">
     <g id="line2d_42">
      <g>
       <use xlink:href="#mcd6b99c563" x="66.86" y="203.915643" style="fill: #ffffff; stroke: #ffffff; stroke-width: 1.5"/>
      </g>
     </g>
    </g>
    <g id="ytick_34">
     <g id="line2d_43">
      <g>
       <use xlink:href="#mcd6b99c563" x="66.86" y="199.440069" style="fill: #ffffff; stroke: #ffffff; stroke-width: 1.5"/>
      </g>
     </g>
    </g>
    <g id="ytick_35">
     <g id="line2d_44">
      <g>
       <use xlink:href="#mcd6b99c563" x="66.86" y="195.563151" style="fill: #ffffff; stroke: #ffffff; stroke-width: 1.5"/>
      </g>
     </g>
    </g>
    <g id="ytick_36">
     <g id="line2d_45">
      <g>
       <use xlink:href="#mcd6b99c563" x="66.86" y="192.143467" style="fill: #ffffff; stroke: #ffffff; stroke-width: 1.5"/>
      </g>
     </g>
    </g>
    <g id="ytick_37">
     <g id="line2d_46">
      <g>
       <use xlink:href="#mcd6b99c563" x="66.86" y="168.959785" style="fill: #ffffff; stroke: #ffffff; stroke-width: 1.5"/>
      </g>
     </g>
    </g>
    <g id="ytick_38">
     <g id="line2d_47">
      <g>
       <use xlink:href="#mcd6b99c563" x="66.86" y="157.187609" style="fill: #ffffff; stroke: #ffffff; stroke-width: 1.5"/>
      </g>
     </g>
    </g>
    <g id="ytick_39">
     <g id="line2d_48">
      <g>
       <use xlink:href="#mcd6b99c563" x="66.86" y="148.835116" style="fill: #ffffff; stroke: #ffffff; stroke-width: 1.5"/>
      </g>
     </g>
    </g>
    <g id="ytick_40">
     <g id="line2d_49">
      <g>
       <use xlink:href="#mcd6b99c563" x="66.86" y="142.35642" style="fill: #ffffff; stroke: #ffffff; stroke-width: 1.5"/>
      </g>
     </g>
    </g>
    <g id="ytick_41">
     <g id="line2d_50">
      <g>
       <use xlink:href="#mcd6b99c563" x="66.86" y="137.062939" style="fill: #ffffff; stroke: #ffffff; stroke-width: 1.5"/>
      </g>
     </g>
    </g>
    <g id="ytick_42">
     <g id="line2d_51">
      <g>
       <use xlink:href="#mcd6b99c563" x="66.86" y="132.587365" style="fill: #ffffff; stroke: #ffffff; stroke-width: 1.5"/>
      </g>
     </g>
    </g>
    <g id="ytick_43">
     <g id="line2d_52">
      <g>
       <use xlink:href="#mcd6b99c563" x="66.86" y="128.710447" style="fill: #ffffff; stroke: #ffffff; stroke-width: 1.5"/>
      </g>
     </g>
    </g>
    <g id="ytick_44">
     <g id="line2d_53">
      <g>
       <use xlink:href="#mcd6b99c563" x="66.86" y="125.290762" style="fill: #ffffff; stroke: #ffffff; stroke-width: 1.5"/>
      </g>
     </g>
    </g>
    <g id="ytick_45">
     <g id="line2d_54">
      <g>
       <use xlink:href="#mcd6b99c563" x="66.86" y="102.107081" style="fill: #ffffff; stroke: #ffffff; stroke-width: 1.5"/>
      </g>
     </g>
    </g>
    <g id="ytick_46">
     <g id="line2d_55">
      <g>
       <use xlink:href="#mcd6b99c563" x="66.86" y="90.334904" style="fill: #ffffff; stroke: #ffffff; stroke-width: 1.5"/>
      </g>
     </g>
    </g>
    <g id="ytick_47">
     <g id="line2d_56">
      <g>
       <use xlink:href="#mcd6b99c563" x="66.86" y="81.982412" style="fill: #ffffff; stroke: #ffffff; stroke-width: 1.5"/>
      </g>
     </g>
    </g>
    <g id="ytick_48">
     <g id="line2d_57">
      <g>
       <use xlink:href="#mcd6b99c563" x="66.86" y="75.503716" style="fill: #ffffff; stroke: #ffffff; stroke-width: 1.5"/>
      </g>
     </g>
    </g>
    <g id="ytick_49">
     <g id="line2d_58">
      <g>
       <use xlink:href="#mcd6b99c563" x="66.86" y="70.210235" style="fill: #ffffff; stroke: #ffffff; stroke-width: 1.5"/>
      </g>
     </g>
    </g>
    <g id="ytick_50">
     <g id="line2d_59">
      <g>
       <use xlink:href="#mcd6b99c563" x="66.86" y="65.734661" style="fill: #ffffff; stroke: #ffffff; stroke-width: 1.5"/>
      </g>
     </g>
    </g>
    <g id="ytick_51">
     <g id="line2d_60">
      <g>
       <use xlink:href="#mcd6b99c563" x="66.86" y="61.857743" style="fill: #ffffff; stroke: #ffffff; stroke-width: 1.5"/>
      </g>
     </g>
    </g>
    <g id="ytick_52">
     <g id="line2d_61">
      <g>
       <use xlink:href="#mcd6b99c563" x="66.86" y="58.438058" style="fill: #ffffff; stroke: #ffffff; stroke-width: 1.5"/>
      </g>
     </g>
    </g>
    <g id="text_17">
     <!-- Planet Mass [log] -->
     <g style="fill: #ffffff" transform="translate(16.381875 289.787187) rotate(-90) scale(0.12 -0.12)">
      <defs>
       <path id="DejaVuSansMono-4d" d="M 269 4666 
L 1113 4666 
L 1919 2291 
L 2731 4666 
L 3578 4666 
L 3578 0 
L 2994 0 
L 2994 4122 
L 2163 1663 
L 1684 1663 
L 850 4122 
L 850 0 
L 269 0 
L 269 4666 
z
" transform="scale(0.015625)"/>
       <path id="DejaVuSansMono-5b" d="M 1447 4863 
L 2772 4863 
L 2772 4416 
L 2022 4416 
L 2022 -397 
L 2772 -397 
L 2772 -844 
L 1447 -844 
L 1447 4863 
z
" transform="scale(0.015625)"/>
       <path id="DejaVuSansMono-6f" d="M 1925 3097 
Q 1488 3097 1263 2756 
Q 1038 2416 1038 1747 
Q 1038 1081 1263 739 
Q 1488 397 1925 397 
Q 2366 397 2591 739 
Q 2816 1081 2816 1747 
Q 2816 2416 2591 2756 
Q 2366 3097 1925 3097 
z
M 1925 3584 
Q 2653 3584 3039 3112 
Q 3425 2641 3425 1747 
Q 3425 850 3040 379 
Q 2656 -91 1925 -91 
Q 1197 -91 812 379 
Q 428 850 428 1747 
Q 428 2641 812 3112 
Q 1197 3584 1925 3584 
z
" transform="scale(0.015625)"/>
       <path id="DejaVuSansMono-67" d="M 2681 1778 
Q 2681 2425 2470 2761 
Q 2259 3097 1856 3097 
Q 1434 3097 1212 2761 
Q 991 2425 991 1778 
Q 991 1131 1214 792 
Q 1438 453 1863 453 
Q 2259 453 2470 793 
Q 2681 1134 2681 1778 
z
M 3256 225 
Q 3256 -563 2884 -969 
Q 2513 -1375 1791 -1375 
Q 1553 -1375 1293 -1331 
Q 1034 -1288 775 -1203 
L 775 -634 
Q 1081 -778 1331 -847 
Q 1581 -916 1791 -916 
Q 2256 -916 2468 -662 
Q 2681 -409 2681 141 
L 2681 166 
L 2681 556 
Q 2544 263 2306 119 
Q 2069 -25 1728 -25 
Q 1116 -25 750 465 
Q 384 956 384 1778 
Q 384 2603 750 3093 
Q 1116 3584 1728 3584 
Q 2066 3584 2300 3450 
Q 2534 3316 2681 3034 
L 2681 3488 
L 3256 3488 
L 3256 225 
z
" transform="scale(0.015625)"/>
       <path id="DejaVuSansMono-5d" d="M 2406 4863 
L 2406 -844 
L 1081 -844 
L 1081 -397 
L 1831 -397 
L 1831 4416 
L 1081 4416 
L 1081 4863 
L 2406 4863 
z
" transform="scale(0.015625)"/>
      </defs>
      <use xlink:href="#DejaVuSansMono-50"/>
      <use xlink:href="#DejaVuSansMono-6c" x="60.205078"/>
      <use xlink:href="#DejaVuSansMono-61" x="120.410156"/>
      <use xlink:href="#DejaVuSansMono-6e" x="180.615234"/>
      <use xlink:href="#DejaVuSansMono-65" x="240.820312"/>
      <use xlink:href="#DejaVuSansMono-74" x="301.025391"/>
      <use xlink:href="#DejaVuSansMono-20" x="361.230469"/>
      <use xlink:href="#DejaVuSansMono-4d" x="421.435547"/>
      <use xlink:href="#DejaVuSansMono-61" x="481.640625"/>
      <use xlink:href="#DejaVuSansMono-73" x="541.845703"/>
      <use xlink:href="#DejaVuSansMono-73" x="602.050781"/>
      <use xlink:href="#DejaVuSansMono-20" x="662.255859"/>
      <use xlink:href="#DejaVuSansMono-5b" x="722.460938"/>
      <use xlink:href="#DejaVuSansMono-6c" x="782.666016"/>
      <use xlink:href="#DejaVuSansMono-6f" x="842.871094"/>
      <use xlink:href="#DejaVuSansMono-67" x="903.076172"/>
      <use xlink:href="#DejaVuSansMono-5d" x="963.28125"/>
     </g>
    </g>
   </g>
   <g id="patch_3">
    <path d="M 66.86 417.16 
L 66.86 39.6 
" style="fill: none; stroke: #ffffff; stroke-width: 2; stroke-linejoin: miter; stroke-linecap: square"/>
   </g>
   <g id="patch_4">
    <path d="M 66.86 417.16 
L 558.756 417.16 
" style="fill: none; stroke: #ffffff; stroke-width: 2; stroke-linejoin: miter; stroke-linecap: square"/>
   </g>
   <g id="text_18">
    <!-- ratio to Earth -->
    <g style="fill: #ffffff" transform="translate(279.09425 460.5794) scale(0.08 -0.08)">
     <defs>
      <path id="DejaVuSansMono-72" d="M 3609 2778 
Q 3425 2922 3234 2987 
Q 3044 3053 2816 3053 
Q 2278 3053 1993 2715 
Q 1709 2378 1709 1741 
L 1709 0 
L 1131 0 
L 1131 3500 
L 1709 3500 
L 1709 2816 
Q 1853 3188 2151 3386 
Q 2450 3584 2859 3584 
Q 3072 3584 3256 3531 
Q 3441 3478 3609 3366 
L 3609 2778 
z
" transform="scale(0.015625)"/>
      <path id="DejaVuSansMono-45" d="M 616 4666 
L 3384 4666 
L 3384 4134 
L 1247 4134 
L 1247 2753 
L 3291 2753 
L 3291 2222 
L 1247 2222 
L 1247 531 
L 3444 531 
L 3444 0 
L 616 0 
L 616 4666 
z
" transform="scale(0.015625)"/>
      <path id="DejaVuSansMono-68" d="M 3284 2169 
L 3284 0 
L 2706 0 
L 2706 2169 
Q 2706 2641 2540 2862 
Q 2375 3084 2022 3084 
Q 1619 3084 1401 2798 
Q 1184 2513 1184 1978 
L 1184 0 
L 609 0 
L 609 4863 
L 1184 4863 
L 1184 2975 
Q 1338 3275 1600 3429 
Q 1863 3584 2222 3584 
Q 2756 3584 3020 3232 
Q 3284 2881 3284 2169 
z
" transform="scale(0.015625)"/>
     </defs>
     <use xlink:href="#DejaVuSansMono-72"/>
     <use xlink:href="#DejaVuSansMono-61" x="60.205078"/>
     <use xlink:href="#DejaVuSansMono-74" x="120.410156"/>
     <use xlink:href="#DejaVuSansMono-69" x="180.615234"/>
     <use xlink:href="#DejaVuSansMono-6f" x="240.820312"/>
     <use xlink:href="#DejaVuSansMono-20" x="301.025391"/>
     <use xlink:href="#DejaVuSansMono-74" x="361.230469"/>
     <use xlink:href="#DejaVuSansMono-6f" x="421.435547"/>
     <use xlink:href="#DejaVuSansMono-20" x="481.640625"/>
     <use xlink:href="#DejaVuSansMono-45" x="541.845703"/>
     <use xlink:href="#DejaVuSansMono-61" x="602.050781"/>
     <use xlink:href="#DejaVuSansMono-72" x="662.255859"/>
     <use xlink:href="#DejaVuSansMono-74" x="722.460938"/>
     <use xlink:href="#DejaVuSansMono-68" x="782.666016"/>
    </g>
   </g>
   <g id="text_19">
    <!-- ratio to Earth -->
    <g style="fill: #ffffff" transform="translate(28.261382 260.24855) rotate(-90) scale(0.08 -0.08)">
     <use xlink:href="#DejaVuSansMono-72"/>
     <use xlink:href="#DejaVuSansMono-61" x="60.205078"/>
     <use xlink:href="#DejaVuSansMono-74" x="120.410156"/>
     <use xlink:href="#DejaVuSansMono-69" x="180.615234"/>
     <use xlink:href="#DejaVuSansMono-6f" x="240.820312"/>
     <use xlink:href="#DejaVuSansMono-20" x="301.025391"/>
     <use xlink:href="#DejaVuSansMono-74" x="361.230469"/>
     <use xlink:href="#DejaVuSansMono-6f" x="421.435547"/>
     <use xlink:href="#DejaVuSansMono-20" x="481.640625"/>
     <use xlink:href="#DejaVuSansMono-45" x="541.845703"/>
     <use xlink:href="#DejaVuSansMono-61" x="602.050781"/>
     <use xlink:href="#DejaVuSansMono-72" x="662.255859"/>
     <use xlink:href="#DejaVuSansMono-74" x="722.460938"/>
     <use xlink:href="#DejaVuSansMono-68" x="782.666016"/>
    </g>
   </g>
   <g id="text_20">
    <!-- Earth -->
    <g style="fill: #ffffff" transform="translate(102.051579 327.496382) scale(0.07 -0.07)">
     <use xlink:href="#DejaVuSansMono-45"/>
     <use xlink:href="#DejaVuSansMono-61" x="60.205078"/>
     <use xlink:href="#DejaVuSansMono-72" x="120.410156"/>
     <use xlink:href="#DejaVuSansMono-74" x="180.615234"/>
     <use xlink:href="#DejaVuSansMono-68" x="240.820312"/>
    </g>
   </g>
  </g>
  <g id="text_21">
   <!-- Cluster 1 -->
   <g style="fill: #ffffff" transform="translate(244.077188 22.503125) scale(0.2 -0.2)">
    <defs>
     <path id="DejaVuSansMono-43" d="M 3353 166 
Q 3113 38 2859 -26 
Q 2606 -91 2322 -91 
Q 1425 -91 929 543 
Q 434 1178 434 2328 
Q 434 3472 932 4111 
Q 1431 4750 2322 4750 
Q 2606 4750 2859 4686 
Q 3113 4622 3353 4494 
L 3353 3847 
Q 3122 4038 2856 4138 
Q 2591 4238 2322 4238 
Q 1706 4238 1400 3763 
Q 1094 3288 1094 2328 
Q 1094 1372 1400 897 
Q 1706 422 2322 422 
Q 2597 422 2861 522 
Q 3125 622 3353 813 
L 3353 166 
z
" transform="scale(0.015625)"/>
    </defs>
    <use xlink:href="#DejaVuSansMono-43"/>
    <use xlink:href="#DejaVuSansMono-6c" x="60.205078"/>
    <use xlink:href="#DejaVuSansMono-75" x="120.410156"/>
    <use xlink:href="#DejaVuSansMono-73" x="180.615234"/>
    <use xlink:href="#DejaVuSansMono-74" x="240.820312"/>
    <use xlink:href="#DejaVuSansMono-65" x="301.025391"/>
    <use xlink:href="#DejaVuSansMono-72" x="361.230469"/>
    <use xlink:href="#DejaVuSansMono-20" x="421.435547"/>
    <use xlink:href="#DejaVuSansMono-31" x="481.640625"/>
   </g>
  </g>
  <g id="text_22">
   <!-- NASA Exoplanet Archive | Planetary Systems -->
   <g style="fill: #ffffff" transform="translate(363.790875 467.082187) scale(0.1 -0.1)">
    <defs>
     <path id="DejaVuSansMono-4e" d="M 434 4666 
L 1234 4666 
L 2809 825 
L 2809 4666 
L 3419 4666 
L 3419 0 
L 2619 0 
L 1044 3841 
L 1044 0 
L 434 0 
L 434 4666 
z
" transform="scale(0.015625)"/>
     <path id="DejaVuSansMono-41" d="M 1925 4109 
L 1259 1722 
L 2591 1722 
L 1925 4109 
z
M 1544 4666 
L 2309 4666 
L 3738 0 
L 3084 0 
L 2741 1216 
L 1106 1216 
L 769 0 
L 116 0 
L 1544 4666 
z
" transform="scale(0.015625)"/>
     <path id="DejaVuSansMono-53" d="M 3163 4506 
L 3163 3866 
Q 2875 4050 2586 4144 
Q 2297 4238 2003 4238 
Q 1556 4238 1297 4030 
Q 1038 3822 1038 3469 
Q 1038 3159 1208 2996 
Q 1378 2834 1844 2725 
L 2175 2650 
Q 2831 2497 3131 2169 
Q 3431 1841 3431 1275 
Q 3431 609 3018 259 
Q 2606 -91 1819 -91 
Q 1491 -91 1159 -20 
Q 828 50 494 191 
L 494 863 
Q 853 634 1173 528 
Q 1494 422 1819 422 
Q 2297 422 2562 636 
Q 2828 850 2828 1234 
Q 2828 1584 2645 1768 
Q 2463 1953 2009 2053 
L 1672 2131 
Q 1022 2278 728 2575 
Q 434 2872 434 3372 
Q 434 3997 854 4373 
Q 1275 4750 1972 4750 
Q 2241 4750 2537 4689 
Q 2834 4628 3163 4506 
z
" transform="scale(0.015625)"/>
     <path id="DejaVuSansMono-78" d="M 3494 3500 
L 2241 1825 
L 3616 0 
L 2950 0 
L 1925 1403 
L 903 0 
L 238 0 
L 1613 1825 
L 359 3500 
L 997 3500 
L 1925 2234 
L 2847 3500 
L 3494 3500 
z
" transform="scale(0.015625)"/>
     <path id="DejaVuSansMono-70" d="M 1172 441 
L 1172 -1331 
L 594 -1331 
L 594 3500 
L 1172 3500 
L 1172 3053 
Q 1316 3313 1555 3448 
Q 1794 3584 2106 3584 
Q 2741 3584 3102 3093 
Q 3463 2603 3463 1734 
Q 3463 881 3100 395 
Q 2738 -91 2106 -91 
Q 1788 -91 1548 45 
Q 1309 181 1172 441 
z
M 2859 1747 
Q 2859 2416 2648 2756 
Q 2438 3097 2022 3097 
Q 1603 3097 1387 2755 
Q 1172 2413 1172 1747 
Q 1172 1084 1387 740 
Q 1603 397 2022 397 
Q 2438 397 2648 737 
Q 2859 1078 2859 1747 
z
" transform="scale(0.015625)"/>
     <path id="DejaVuSansMono-63" d="M 3316 178 
Q 3084 44 2839 -23 
Q 2594 -91 2338 -91 
Q 1525 -91 1067 396 
Q 609 884 609 1747 
Q 609 2609 1067 3096 
Q 1525 3584 2338 3584 
Q 2591 3584 2831 3518 
Q 3072 3453 3316 3316 
L 3316 2713 
Q 3088 2916 2858 3006 
Q 2628 3097 2338 3097 
Q 1797 3097 1506 2747 
Q 1216 2397 1216 1747 
Q 1216 1100 1508 748 
Q 1800 397 2338 397 
Q 2638 397 2875 489 
Q 3113 581 3316 775 
L 3316 178 
z
" transform="scale(0.015625)"/>
     <path id="DejaVuSansMono-76" d="M 313 3500 
L 909 3500 
L 1925 563 
L 2944 3500 
L 3541 3500 
L 2297 0 
L 1556 0 
L 313 3500 
z
" transform="scale(0.015625)"/>
     <path id="DejaVuSansMono-7c" d="M 2194 4891 
L 2194 -1509 
L 1656 -1509 
L 1656 4891 
L 2194 4891 
z
" transform="scale(0.015625)"/>
     <path id="DejaVuSansMono-79" d="M 2681 1125 
Q 2538 759 2316 163 
Q 2006 -663 1900 -844 
Q 1756 -1088 1540 -1209 
Q 1325 -1331 1038 -1331 
L 575 -1331 
L 575 -850 
L 916 -850 
Q 1169 -850 1312 -703 
Q 1456 -556 1678 56 
L 325 3500 
L 934 3500 
L 1972 763 
L 2994 3500 
L 3603 3500 
L 2681 1125 
z
" transform="scale(0.015625)"/>
     <path id="DejaVuSansMono-6d" d="M 2113 3144 
Q 2219 3369 2383 3476 
Q 2547 3584 2778 3584 
Q 3200 3584 3373 3257 
Q 3547 2931 3547 2028 
L 3547 0 
L 3022 0 
L 3022 2003 
Q 3022 2744 2939 2923 
Q 2856 3103 2638 3103 
Q 2388 3103 2295 2911 
Q 2203 2719 2203 2003 
L 2203 0 
L 1678 0 
L 1678 2003 
Q 1678 2753 1589 2928 
Q 1500 3103 1269 3103 
Q 1041 3103 952 2911 
Q 863 2719 863 2003 
L 863 0 
L 341 0 
L 341 3500 
L 863 3500 
L 863 3200 
Q 966 3388 1120 3486 
Q 1275 3584 1472 3584 
Q 1709 3584 1867 3475 
Q 2025 3366 2113 3144 
z
" transform="scale(0.015625)"/>
    </defs>
    <use xlink:href="#DejaVuSansMono-4e"/>
    <use xlink:href="#DejaVuSansMono-41" x="60.205078"/>
    <use xlink:href="#DejaVuSansMono-53" x="120.410156"/>
    <use xlink:href="#DejaVuSansMono-41" x="180.615234"/>
    <use xlink:href="#DejaVuSansMono-20" x="240.820312"/>
    <use xlink:href="#DejaVuSansMono-45" x="301.025391"/>
    <use xlink:href="#DejaVuSansMono-78" x="361.230469"/>
    <use xlink:href="#DejaVuSansMono-6f" x="421.435547"/>
    <use xlink:href="#DejaVuSansMono-70" x="481.640625"/>
    <use xlink:href="#DejaVuSansMono-6c" x="541.845703"/>
    <use xlink:href="#DejaVuSansMono-61" x="602.050781"/>
    <use xlink:href="#DejaVuSansMono-6e" x="662.255859"/>
    <use xlink:href="#DejaVuSansMono-65" x="722.460938"/>
    <use xlink:href="#DejaVuSansMono-74" x="782.666016"/>
    <use xlink:href="#DejaVuSansMono-20" x="842.871094"/>
    <use xlink:href="#DejaVuSansMono-41" x="903.076172"/>
    <use xlink:href="#DejaVuSansMono-72" x="963.28125"/>
    <use xlink:href="#DejaVuSansMono-63" x="1023.486328"/>
    <use xlink:href="#DejaVuSansMono-68" x="1083.691406"/>
    <use xlink:href="#DejaVuSansMono-69" x="1143.896484"/>
    <use xlink:href="#DejaVuSansMono-76" x="1204.101562"/>
    <use xlink:href="#DejaVuSansMono-65" x="1264.306641"/>
    <use xlink:href="#DejaVuSansMono-20" x="1324.511719"/>
    <use xlink:href="#DejaVuSansMono-7c" x="1384.716797"/>
    <use xlink:href="#DejaVuSansMono-20" x="1444.921875"/>
    <use xlink:href="#DejaVuSansMono-50" x="1505.126953"/>
    <use xlink:href="#DejaVuSansMono-6c" x="1565.332031"/>
    <use xlink:href="#DejaVuSansMono-61" x="1625.537109"/>
    <use xlink:href="#DejaVuSansMono-6e" x="1685.742188"/>
    <use xlink:href="#DejaVuSansMono-65" x="1745.947266"/>
    <use xlink:href="#DejaVuSansMono-74" x="1806.152344"/>
    <use xlink:href="#DejaVuSansMono-61" x="1866.357422"/>
    <use xlink:href="#DejaVuSansMono-72" x="1926.5625"/>
    <use xlink:href="#DejaVuSansMono-79" x="1986.767578"/>
    <use xlink:href="#DejaVuSansMono-20" x="2046.972656"/>
    <use xlink:href="#DejaVuSansMono-53" x="2107.177734"/>
    <use xlink:href="#DejaVuSansMono-79" x="2167.382812"/>
    <use xlink:href="#DejaVuSansMono-73" x="2227.587891"/>
    <use xlink:href="#DejaVuSansMono-74" x="2287.792969"/>
    <use xlink:href="#DejaVuSansMono-65" x="2347.998047"/>
    <use xlink:href="#DejaVuSansMono-6d" x="2408.203125"/>
    <use xlink:href="#DejaVuSansMono-73" x="2468.408203"/>
   </g>
  </g>
 </g>
 <defs>
  <clipPath id="pde29da8c05">
   <rect x="66.86" y="39.6" width="491.896" height="377.56"/>
  </clipPath>
 </defs>
</svg>
