<?xml version="1.0" encoding="utf-8" standalone="no"?>
<!DOCTYPE svg PUBLIC "-//W3C//DTD SVG 1.1//EN"
  "http://www.w3.org/Graphics/SVG/1.1/DTD/svg11.dtd">
<svg xmlns:xlink="http://www.w3.org/1999/xlink" width="736.75875pt" height="568.878594pt" viewBox="0 0 736.75875 568.878594" xmlns="http://www.w3.org/2000/svg" version="1.1">
 <metadata>
  <rdf:RDF xmlns:dc="http://purl.org/dc/elements/1.1/" xmlns:cc="http://creativecommons.org/ns#" xmlns:rdf="http://www.w3.org/1999/02/22-rdf-syntax-ns#">
   <cc:Work>
    <dc:type rdf:resource="http://purl.org/dc/dcmitype/StillImage"/>
    <dc:date>2024-06-09T23:48:32.344716</dc:date>
    <dc:format>image/svg+xml</dc:format>
    <dc:creator>
     <cc:Agent>
      <dc:title>Matplotlib v3.7.1, https://matplotlib.org/</dc:title>
     </cc:Agent>
    </dc:creator>
   </cc:Work>
  </rdf:RDF>
 </metadata>
 <defs>
  <style type="text/css">*{stroke-linejoin: round; stroke-linecap: butt}</style>
 </defs>
 <g id="figure_1">
  <g id="patch_1">
   <path d="M 0 568.878594 
L 736.75875 568.878594 
L 736.75875 0 
L 0 0 
z
" style="fill: #1a1a1a"/>
  </g>
  <g id="axes_1">
   <g id="patch_2">
    <path d="M 59.95875 498.318594 
L 729.55875 498.318594 
L 729.55875 54.798594 
L 59.95875 54.798594 
z
" style="fill: #1a1a1a"/>
   </g>
   <g id="patch_3">
    <path d="M 701.575466 498.318594 
L 717.565914 498.318594 
L 717.565914 482.060914 
L 701.575466 482.060914 
z
" clip-path="url(#p83b724d6c0)" style="fill: #311e3e; stroke: #ffffff; stroke-linejoin: miter"/>
   </g>
   <g id="patch_4">
    <path d="M 681.587407 498.318594 
L 697.577854 498.318594 
L 697.577854 482.510435 
L 681.587407 482.510435 
z
" clip-path="url(#p83b724d6c0)" style="fill: #311e3e; stroke: #ffffff; stroke-linejoin: miter"/>
   </g>
   <g id="patch_5">
    <path d="M 661.599347 498.318594 
L 677.589795 498.318594 
L 677.589795 484.75804 
L 661.599347 484.75804 
z
" clip-path="url(#p83b724d6c0)" style="fill: #311e3e; stroke: #ffffff; stroke-linejoin: miter"/>
   </g>
   <g id="patch_6">
    <path d="M 641.611287 498.318594 
L 657.601735 498.318594 
L 657.601735 488.57897 
L 641.611287 488.57897 
z
" clip-path="url(#p83b724d6c0)" style="fill: #311e3e; stroke: #ffffff; stroke-linejoin: miter"/>
   </g>
   <g id="patch_7">
    <path d="M 621.623228 498.318594 
L 637.613675 498.318594 
L 637.613675 490.152294 
L 621.623228 490.152294 
z
" clip-path="url(#p83b724d6c0)" style="fill: #311e3e; stroke: #ffffff; stroke-linejoin: miter"/>
   </g>
   <g id="patch_8">
    <path d="M 601.635168 498.318594 
L 617.625616 498.318594 
L 617.625616 491.650697 
L 601.635168 491.650697 
z
" clip-path="url(#p83b724d6c0)" style="fill: #311e3e; stroke: #ffffff; stroke-linejoin: miter"/>
   </g>
   <g id="patch_9">
    <path d="M 581.647108 498.318594 
L 597.637556 498.318594 
L 597.637556 492.69958 
L 581.647108 492.69958 
z
" clip-path="url(#p83b724d6c0)" style="fill: #311e3e; stroke: #ffffff; stroke-linejoin: miter"/>
   </g>
   <g id="patch_10">
    <path d="M 561.659049 498.318594 
L 577.649496 498.318594 
L 577.649496 494.272904 
L 561.659049 494.272904 
z
" clip-path="url(#p83b724d6c0)" style="fill: #311e3e; stroke: #ffffff; stroke-linejoin: miter"/>
   </g>
   <g id="patch_11">
    <path d="M 541.670989 498.318594 
L 557.661437 498.318594 
L 557.661437 494.947185 
L 541.670989 494.947185 
z
" clip-path="url(#p83b724d6c0)" style="fill: #311e3e; stroke: #ffffff; stroke-linejoin: miter"/>
   </g>
   <g id="patch_12">
    <path d="M 521.682929 498.318594 
L 537.673377 498.318594 
L 537.673377 495.696387 
L 521.682929 495.696387 
z
" clip-path="url(#p83b724d6c0)" style="fill: #311e3e; stroke: #ffffff; stroke-linejoin: miter"/>
   </g>
   <g id="patch_13">
    <path d="M 501.694869 498.318594 
L 517.685317 498.318594 
L 517.685317 495.996068 
L 501.694869 495.996068 
z
" clip-path="url(#p83b724d6c0)" style="fill: #311e3e; stroke: #ffffff; stroke-linejoin: miter"/>
   </g>
   <g id="patch_14">
    <path d="M 481.70681 498.318594 
L 497.697257 498.318594 
L 497.697257 496.445589 
L 481.70681 496.445589 
z
" clip-path="url(#p83b724d6c0)" style="fill: #311e3e; stroke: #ffffff; stroke-linejoin: miter"/>
   </g>
   <g id="patch_15">
    <path d="M 461.71875 498.318594 
L 477.709198 498.318594 
L 477.709198 496.82019 
L 461.71875 496.82019 
z
" clip-path="url(#p83b724d6c0)" style="fill: #311e3e; stroke: #ffffff; stroke-linejoin: miter"/>
   </g>
   <g id="patch_16">
    <path d="M 441.73069 498.318594 
L 457.721138 498.318594 
L 457.721138 497.344631 
L 441.73069 497.344631 
z
" clip-path="url(#p83b724d6c0)" style="fill: #311e3e; stroke: #ffffff; stroke-linejoin: miter"/>
   </g>
   <g id="patch_17">
    <path d="M 421.742631 498.318594 
L 437.733078 498.318594 
L 437.733078 497.419552 
L 421.742631 497.419552 
z
" clip-path="url(#p83b724d6c0)" style="fill: #311e3e; stroke: #ffffff; stroke-linejoin: miter"/>
   </g>
   <g id="patch_18">
    <path d="M 401.754571 498.318594 
L 417.745019 498.318594 
L 417.745019 497.569392 
L 401.754571 497.569392 
z
" clip-path="url(#p83b724d6c0)" style="fill: #311e3e; stroke: #ffffff; stroke-linejoin: miter"/>
   </g>
   <g id="patch_19">
    <path d="M 381.766511 498.318594 
L 397.756959 498.318594 
L 397.756959 497.719232 
L 381.766511 497.719232 
z
" clip-path="url(#p83b724d6c0)" style="fill: #311e3e; stroke: #ffffff; stroke-linejoin: miter"/>
   </g>
   <g id="patch_20">
    <path d="M 361.778451 498.318594 
L 377.768899 498.318594 
L 377.768899 498.018913 
L 361.778451 498.018913 
z
" clip-path="url(#p83b724d6c0)" style="fill: #311e3e; stroke: #ffffff; stroke-linejoin: miter"/>
   </g>
   <g id="patch_21">
    <path d="M 341.790392 498.318594 
L 357.78084 498.318594 
L 357.78084 498.018913 
L 341.790392 498.018913 
z
" clip-path="url(#p83b724d6c0)" style="fill: #311e3e; stroke: #ffffff; stroke-linejoin: miter"/>
   </g>
   <g id="patch_22">
    <path d="M 321.802332 498.318594 
L 337.79278 498.318594 
L 337.79278 498.093833 
L 321.802332 498.093833 
z
" clip-path="url(#p83b724d6c0)" style="fill: #311e3e; stroke: #ffffff; stroke-linejoin: miter"/>
   </g>
   <g id="patch_23">
    <path d="M 301.814272 498.318594 
L 317.80472 498.318594 
L 317.80472 498.243674 
L 301.814272 498.243674 
z
" clip-path="url(#p83b724d6c0)" style="fill: #311e3e; stroke: #ffffff; stroke-linejoin: miter"/>
   </g>
   <g id="patch_24">
    <path d="M 281.826213 498.318594 
L 297.81666 498.318594 
L 297.81666 498.318594 
L 281.826213 498.318594 
z
" clip-path="url(#p83b724d6c0)" style="fill: #311e3e; stroke: #ffffff; stroke-linejoin: miter"/>
   </g>
   <g id="patch_25">
    <path d="M 261.838153 498.318594 
L 277.828601 498.318594 
L 277.828601 498.318594 
L 261.838153 498.318594 
z
" clip-path="url(#p83b724d6c0)" style="fill: #311e3e; stroke: #ffffff; stroke-linejoin: miter"/>
   </g>
   <g id="patch_26">
    <path d="M 241.850093 498.318594 
L 257.840541 498.318594 
L 257.840541 498.318594 
L 241.850093 498.318594 
z
" clip-path="url(#p83b724d6c0)" style="fill: #311e3e; stroke: #ffffff; stroke-linejoin: miter"/>
   </g>
   <g id="patch_27">
    <path d="M 221.862034 498.318594 
L 237.852481 498.318594 
L 237.852481 498.318594 
L 221.862034 498.318594 
z
" clip-path="url(#p83b724d6c0)" style="fill: #311e3e; stroke: #ffffff; stroke-linejoin: miter"/>
   </g>
   <g id="patch_28">
    <path d="M 201.873974 498.318594 
L 217.864422 498.318594 
L 217.864422 498.318594 
L 201.873974 498.318594 
z
" clip-path="url(#p83b724d6c0)" style="fill: #311e3e; stroke: #ffffff; stroke-linejoin: miter"/>
   </g>
   <g id="patch_29">
    <path d="M 181.885914 498.318594 
L 197.876362 498.318594 
L 197.876362 498.318594 
L 181.885914 498.318594 
z
" clip-path="url(#p83b724d6c0)" style="fill: #311e3e; stroke: #ffffff; stroke-linejoin: miter"/>
   </g>
   <g id="patch_30">
    <path d="M 161.897854 498.318594 
L 177.888302 498.318594 
L 177.888302 498.318594 
L 161.897854 498.318594 
z
" clip-path="url(#p83b724d6c0)" style="fill: #311e3e; stroke: #ffffff; stroke-linejoin: miter"/>
   </g>
   <g id="patch_31">
    <path d="M 141.909795 498.318594 
L 157.900243 498.318594 
L 157.900243 498.318594 
L 141.909795 498.318594 
z
" clip-path="url(#p83b724d6c0)" style="fill: #311e3e; stroke: #ffffff; stroke-linejoin: miter"/>
   </g>
   <g id="patch_32">
    <path d="M 121.921735 498.318594 
L 137.912183 498.318594 
L 137.912183 498.318594 
L 121.921735 498.318594 
z
" clip-path="url(#p83b724d6c0)" style="fill: #311e3e; stroke: #ffffff; stroke-linejoin: miter"/>
   </g>
   <g id="patch_33">
    <path d="M 101.933675 498.318594 
L 117.924123 498.318594 
L 117.924123 498.318594 
L 101.933675 498.318594 
z
" clip-path="url(#p83b724d6c0)" style="fill: #311e3e; stroke: #ffffff; stroke-linejoin: miter"/>
   </g>
   <g id="patch_34">
    <path d="M 81.945616 498.318594 
L 97.936063 498.318594 
L 97.936063 498.318594 
L 81.945616 498.318594 
z
" clip-path="url(#p83b724d6c0)" style="fill: #311e3e; stroke: #ffffff; stroke-linejoin: miter"/>
   </g>
   <g id="patch_35">
    <path d="M 61.957556 498.318594 
L 77.948004 498.318594 
L 77.948004 498.318594 
L 61.957556 498.318594 
z
" clip-path="url(#p83b724d6c0)" style="fill: #311e3e; stroke: #ffffff; stroke-linejoin: miter"/>
   </g>
   <g id="patch_36">
    <path d="M 701.575466 482.060914 
L 717.565914 482.060914 
L 717.565914 470.822886 
L 701.575466 470.822886 
z
" clip-path="url(#p83b724d6c0)" style="fill: #573259; stroke: #ffffff; stroke-linejoin: miter"/>
   </g>
   <g id="patch_37">
    <path d="M 681.587407 482.510435 
L 697.577854 482.510435 
L 697.577854 472.171449 
L 681.587407 472.171449 
z
" clip-path="url(#p83b724d6c0)" style="fill: #573259; stroke: #ffffff; stroke-linejoin: miter"/>
   </g>
   <g id="patch_38">
    <path d="M 661.599347 484.75804 
L 677.589795 484.75804 
L 677.589795 475.393017 
L 661.599347 475.393017 
z
" clip-path="url(#p83b724d6c0)" style="fill: #573259; stroke: #ffffff; stroke-linejoin: miter"/>
   </g>
   <g id="patch_39">
    <path d="M 641.611287 488.57897 
L 657.601735 488.57897 
L 657.601735 479.888228 
L 641.611287 479.888228 
z
" clip-path="url(#p83b724d6c0)" style="fill: #573259; stroke: #ffffff; stroke-linejoin: miter"/>
   </g>
   <g id="patch_40">
    <path d="M 621.623228 490.152294 
L 637.613675 490.152294 
L 637.613675 482.285674 
L 621.623228 482.285674 
z
" clip-path="url(#p83b724d6c0)" style="fill: #573259; stroke: #ffffff; stroke-linejoin: miter"/>
   </g>
   <g id="patch_41">
    <path d="M 601.635168 491.650697 
L 617.625616 491.650697 
L 617.625616 484.008839 
L 601.635168 484.008839 
z
" clip-path="url(#p83b724d6c0)" style="fill: #573259; stroke: #ffffff; stroke-linejoin: miter"/>
   </g>
   <g id="patch_42">
    <path d="M 581.647108 492.69958 
L 597.637556 492.69958 
L 597.637556 485.806923 
L 581.647108 485.806923 
z
" clip-path="url(#p83b724d6c0)" style="fill: #573259; stroke: #ffffff; stroke-linejoin: miter"/>
   </g>
   <g id="patch_43">
    <path d="M 561.659049 494.272904 
L 577.649496 494.272904 
L 577.649496 487.679928 
L 561.659049 487.679928 
z
" clip-path="url(#p83b724d6c0)" style="fill: #573259; stroke: #ffffff; stroke-linejoin: miter"/>
   </g>
   <g id="patch_44">
    <path d="M 541.670989 494.947185 
L 557.661437 494.947185 
L 557.661437 488.80373 
L 541.670989 488.80373 
z
" clip-path="url(#p83b724d6c0)" style="fill: #573259; stroke: #ffffff; stroke-linejoin: miter"/>
   </g>
   <g id="patch_45">
    <path d="M 521.682929 495.696387 
L 537.673377 495.696387 
L 537.673377 489.852613 
L 521.682929 489.852613 
z
" clip-path="url(#p83b724d6c0)" style="fill: #573259; stroke: #ffffff; stroke-linejoin: miter"/>
   </g>
   <g id="patch_46">
    <path d="M 501.694869 495.996068 
L 517.685317 495.996068 
L 517.685317 490.601815 
L 501.694869 490.601815 
z
" clip-path="url(#p83b724d6c0)" style="fill: #573259; stroke: #ffffff; stroke-linejoin: miter"/>
   </g>
   <g id="patch_47">
    <path d="M 481.70681 496.445589 
L 497.697257 496.445589 
L 497.697257 492.324979 
L 481.70681 492.324979 
z
" clip-path="url(#p83b724d6c0)" style="fill: #573259; stroke: #ffffff; stroke-linejoin: miter"/>
   </g>
   <g id="patch_48">
    <path d="M 461.71875 496.82019 
L 477.709198 496.82019 
L 477.709198 493.448782 
L 461.71875 493.448782 
z
" clip-path="url(#p83b724d6c0)" style="fill: #573259; stroke: #ffffff; stroke-linejoin: miter"/>
   </g>
   <g id="patch_49">
    <path d="M 441.73069 497.344631 
L 457.721138 497.344631 
L 457.721138 494.272904 
L 441.73069 494.272904 
z
" clip-path="url(#p83b724d6c0)" style="fill: #573259; stroke: #ffffff; stroke-linejoin: miter"/>
   </g>
   <g id="patch_50">
    <path d="M 421.742631 497.419552 
L 437.733078 497.419552 
L 437.733078 495.171946 
L 421.742631 495.171946 
z
" clip-path="url(#p83b724d6c0)" style="fill: #573259; stroke: #ffffff; stroke-linejoin: miter"/>
   </g>
   <g id="patch_51">
    <path d="M 401.754571 497.569392 
L 417.745019 497.569392 
L 417.745019 495.921148 
L 401.754571 495.921148 
z
" clip-path="url(#p83b724d6c0)" style="fill: #573259; stroke: #ffffff; stroke-linejoin: miter"/>
   </g>
   <g id="patch_52">
    <path d="M 381.766511 497.719232 
L 397.756959 497.719232 
L 397.756959 496.145908 
L 381.766511 496.145908 
z
" clip-path="url(#p83b724d6c0)" style="fill: #573259; stroke: #ffffff; stroke-linejoin: miter"/>
   </g>
   <g id="patch_53">
    <path d="M 361.778451 498.018913 
L 377.768899 498.018913 
L 377.768899 496.97003 
L 361.778451 496.97003 
z
" clip-path="url(#p83b724d6c0)" style="fill: #573259; stroke: #ffffff; stroke-linejoin: miter"/>
   </g>
   <g id="patch_54">
    <path d="M 341.790392 498.018913 
L 357.78084 498.018913 
L 357.78084 497.119871 
L 341.790392 497.119871 
z
" clip-path="url(#p83b724d6c0)" style="fill: #573259; stroke: #ffffff; stroke-linejoin: miter"/>
   </g>
   <g id="patch_55">
    <path d="M 321.802332 498.093833 
L 337.79278 498.093833 
L 337.79278 497.494472 
L 321.802332 497.494472 
z
" clip-path="url(#p83b724d6c0)" style="fill: #573259; stroke: #ffffff; stroke-linejoin: miter"/>
   </g>
   <g id="patch_56">
    <path d="M 301.814272 498.243674 
L 317.80472 498.243674 
L 317.80472 497.719232 
L 301.814272 497.719232 
z
" clip-path="url(#p83b724d6c0)" style="fill: #573259; stroke: #ffffff; stroke-linejoin: miter"/>
   </g>
   <g id="patch_57">
    <path d="M 281.826213 498.318594 
L 297.81666 498.318594 
L 297.81666 498.018913 
L 281.826213 498.018913 
z
" clip-path="url(#p83b724d6c0)" style="fill: #573259; stroke: #ffffff; stroke-linejoin: miter"/>
   </g>
   <g id="patch_58">
    <path d="M 261.838153 498.318594 
L 277.828601 498.318594 
L 277.828601 498.093833 
L 261.838153 498.093833 
z
" clip-path="url(#p83b724d6c0)" style="fill: #573259; stroke: #ffffff; stroke-linejoin: miter"/>
   </g>
   <g id="patch_59">
    <path d="M 241.850093 498.318594 
L 257.840541 498.318594 
L 257.840541 498.093833 
L 241.850093 498.093833 
z
" clip-path="url(#p83b724d6c0)" style="fill: #573259; stroke: #ffffff; stroke-linejoin: miter"/>
   </g>
   <g id="patch_60">
    <path d="M 221.862034 498.318594 
L 237.852481 498.318594 
L 237.852481 498.093833 
L 221.862034 498.093833 
z
" clip-path="url(#p83b724d6c0)" style="fill: #573259; stroke: #ffffff; stroke-linejoin: miter"/>
   </g>
   <g id="patch_61">
    <path d="M 201.873974 498.318594 
L 217.864422 498.318594 
L 217.864422 498.093833 
L 201.873974 498.093833 
z
" clip-path="url(#p83b724d6c0)" style="fill: #573259; stroke: #ffffff; stroke-linejoin: miter"/>
   </g>
   <g id="patch_62">
    <path d="M 181.885914 498.318594 
L 197.876362 498.318594 
L 197.876362 498.093833 
L 181.885914 498.093833 
z
" clip-path="url(#p83b724d6c0)" style="fill: #573259; stroke: #ffffff; stroke-linejoin: miter"/>
   </g>
   <g id="patch_63">
    <path d="M 161.897854 498.318594 
L 177.888302 498.318594 
L 177.888302 498.093833 
L 161.897854 498.093833 
z
" clip-path="url(#p83b724d6c0)" style="fill: #573259; stroke: #ffffff; stroke-linejoin: miter"/>
   </g>
   <g id="patch_64">
    <path d="M 141.909795 498.318594 
L 157.900243 498.318594 
L 157.900243 498.093833 
L 141.909795 498.093833 
z
" clip-path="url(#p83b724d6c0)" style="fill: #573259; stroke: #ffffff; stroke-linejoin: miter"/>
   </g>
   <g id="patch_65">
    <path d="M 121.921735 498.318594 
L 137.912183 498.318594 
L 137.912183 498.093833 
L 121.921735 498.093833 
z
" clip-path="url(#p83b724d6c0)" style="fill: #573259; stroke: #ffffff; stroke-linejoin: miter"/>
   </g>
   <g id="patch_66">
    <path d="M 101.933675 498.318594 
L 117.924123 498.318594 
L 117.924123 498.093833 
L 101.933675 498.093833 
z
" clip-path="url(#p83b724d6c0)" style="fill: #573259; stroke: #ffffff; stroke-linejoin: miter"/>
   </g>
   <g id="patch_67">
    <path d="M 81.945616 498.318594 
L 97.936063 498.318594 
L 97.936063 498.168753 
L 81.945616 498.168753 
z
" clip-path="url(#p83b724d6c0)" style="fill: #573259; stroke: #ffffff; stroke-linejoin: miter"/>
   </g>
   <g id="patch_68">
    <path d="M 61.957556 498.318594 
L 77.948004 498.318594 
L 77.948004 498.168753 
L 61.957556 498.168753 
z
" clip-path="url(#p83b724d6c0)" style="fill: #573259; stroke: #ffffff; stroke-linejoin: miter"/>
   </g>
   <g id="patch_69">
    <path d="M 701.575466 470.822886 
L 717.565914 470.822886 
L 717.565914 389.234805 
L 701.575466 389.234805 
z
" clip-path="url(#p83b724d6c0)" style="fill: #4a538a; stroke: #ffffff; stroke-linejoin: miter"/>
   </g>
   <g id="patch_70">
    <path d="M 681.587407 472.171449 
L 697.577854 472.171449 
L 697.577854 391.557331 
L 681.587407 391.557331 
z
" clip-path="url(#p83b724d6c0)" style="fill: #4a538a; stroke: #ffffff; stroke-linejoin: miter"/>
   </g>
   <g id="patch_71">
    <path d="M 661.599347 475.393017 
L 677.589795 475.393017 
L 677.589795 398.899509 
L 661.599347 398.899509 
z
" clip-path="url(#p83b724d6c0)" style="fill: #4a538a; stroke: #ffffff; stroke-linejoin: miter"/>
   </g>
   <g id="patch_72">
    <path d="M 641.611287 479.888228 
L 657.601735 479.888228 
L 657.601735 412.235302 
L 641.611287 412.235302 
z
" clip-path="url(#p83b724d6c0)" style="fill: #4a538a; stroke: #ffffff; stroke-linejoin: miter"/>
   </g>
   <g id="patch_73">
    <path d="M 621.623228 482.285674 
L 637.613675 482.285674 
L 637.613675 420.476522 
L 621.623228 420.476522 
z
" clip-path="url(#p83b724d6c0)" style="fill: #4a538a; stroke: #ffffff; stroke-linejoin: miter"/>
   </g>
   <g id="patch_74">
    <path d="M 601.635168 484.008839 
L 617.625616 484.008839 
L 617.625616 425.571095 
L 601.635168 425.571095 
z
" clip-path="url(#p83b724d6c0)" style="fill: #4a538a; stroke: #ffffff; stroke-linejoin: miter"/>
   </g>
   <g id="patch_75">
    <path d="M 581.647108 485.806923 
L 597.637556 485.806923 
L 597.637556 432.238991 
L 581.647108 432.238991 
z
" clip-path="url(#p83b724d6c0)" style="fill: #4a538a; stroke: #ffffff; stroke-linejoin: miter"/>
   </g>
   <g id="patch_76">
    <path d="M 561.659049 487.679928 
L 577.649496 487.679928 
L 577.649496 437.558324 
L 561.659049 437.558324 
z
" clip-path="url(#p83b724d6c0)" style="fill: #4a538a; stroke: #ffffff; stroke-linejoin: miter"/>
   </g>
   <g id="patch_77">
    <path d="M 541.670989 488.80373 
L 557.661437 488.80373 
L 557.661437 442.353216 
L 541.670989 442.353216 
z
" clip-path="url(#p83b724d6c0)" style="fill: #4a538a; stroke: #ffffff; stroke-linejoin: miter"/>
   </g>
   <g id="patch_78">
    <path d="M 521.682929 489.852613 
L 537.673377 489.852613 
L 537.673377 447.148108 
L 521.682929 447.148108 
z
" clip-path="url(#p83b724d6c0)" style="fill: #4a538a; stroke: #ffffff; stroke-linejoin: miter"/>
   </g>
   <g id="patch_79">
    <path d="M 501.694869 490.601815 
L 517.685317 490.601815 
L 517.685317 451.343638 
L 501.694869 451.343638 
z
" clip-path="url(#p83b724d6c0)" style="fill: #4a538a; stroke: #ffffff; stroke-linejoin: miter"/>
   </g>
   <g id="patch_80">
    <path d="M 481.70681 492.324979 
L 497.697257 492.324979 
L 497.697257 456.812812 
L 481.70681 456.812812 
z
" clip-path="url(#p83b724d6c0)" style="fill: #4a538a; stroke: #ffffff; stroke-linejoin: miter"/>
   </g>
   <g id="patch_81">
    <path d="M 461.71875 493.448782 
L 477.709198 493.448782 
L 477.709198 460.40898 
L 461.71875 460.40898 
z
" clip-path="url(#p83b724d6c0)" style="fill: #4a538a; stroke: #ffffff; stroke-linejoin: miter"/>
   </g>
   <g id="patch_82">
    <path d="M 441.73069 494.272904 
L 457.721138 494.272904 
L 457.721138 463.855309 
L 441.73069 463.855309 
z
" clip-path="url(#p83b724d6c0)" style="fill: #4a538a; stroke: #ffffff; stroke-linejoin: miter"/>
   </g>
   <g id="patch_83">
    <path d="M 421.742631 495.171946 
L 437.733078 495.171946 
L 437.733078 468.125759 
L 421.742631 468.125759 
z
" clip-path="url(#p83b724d6c0)" style="fill: #4a538a; stroke: #ffffff; stroke-linejoin: miter"/>
   </g>
   <g id="patch_84">
    <path d="M 401.754571 495.921148 
L 417.745019 495.921148 
L 417.745019 471.946689 
L 401.754571 471.946689 
z
" clip-path="url(#p83b724d6c0)" style="fill: #4a538a; stroke: #ffffff; stroke-linejoin: miter"/>
   </g>
   <g id="patch_85">
    <path d="M 381.766511 496.145908 
L 397.756959 496.145908 
L 397.756959 477.640623 
L 381.766511 477.640623 
z
" clip-path="url(#p83b724d6c0)" style="fill: #4a538a; stroke: #ffffff; stroke-linejoin: miter"/>
   </g>
   <g id="patch_86">
    <path d="M 361.778451 496.97003 
L 377.768899 496.97003 
L 377.768899 481.236792 
L 361.778451 481.236792 
z
" clip-path="url(#p83b724d6c0)" style="fill: #4a538a; stroke: #ffffff; stroke-linejoin: miter"/>
   </g>
   <g id="patch_87">
    <path d="M 341.790392 497.119871 
L 357.78084 497.119871 
L 357.78084 483.933918 
L 341.790392 483.933918 
z
" clip-path="url(#p83b724d6c0)" style="fill: #4a538a; stroke: #ffffff; stroke-linejoin: miter"/>
   </g>
   <g id="patch_88">
    <path d="M 321.802332 497.494472 
L 337.79278 497.494472 
L 337.79278 485.881843 
L 321.802332 485.881843 
z
" clip-path="url(#p83b724d6c0)" style="fill: #4a538a; stroke: #ffffff; stroke-linejoin: miter"/>
   </g>
   <g id="patch_89">
    <path d="M 301.814272 497.719232 
L 317.80472 497.719232 
L 317.80472 488.57897 
L 301.814272 488.57897 
z
" clip-path="url(#p83b724d6c0)" style="fill: #4a538a; stroke: #ffffff; stroke-linejoin: miter"/>
   </g>
   <g id="patch_90">
    <path d="M 281.826213 498.018913 
L 297.81666 498.018913 
L 297.81666 490.227214 
L 281.826213 490.227214 
z
" clip-path="url(#p83b724d6c0)" style="fill: #4a538a; stroke: #ffffff; stroke-linejoin: miter"/>
   </g>
   <g id="patch_91">
    <path d="M 261.838153 498.093833 
L 277.828601 498.093833 
L 277.828601 491.875458 
L 261.838153 491.875458 
z
" clip-path="url(#p83b724d6c0)" style="fill: #4a538a; stroke: #ffffff; stroke-linejoin: miter"/>
   </g>
   <g id="patch_92">
    <path d="M 241.850093 498.093833 
L 257.840541 498.093833 
L 257.840541 493.973223 
L 241.850093 493.973223 
z
" clip-path="url(#p83b724d6c0)" style="fill: #4a538a; stroke: #ffffff; stroke-linejoin: miter"/>
   </g>
   <g id="patch_93">
    <path d="M 221.862034 498.093833 
L 237.852481 498.093833 
L 237.852481 494.872265 
L 221.862034 494.872265 
z
" clip-path="url(#p83b724d6c0)" style="fill: #4a538a; stroke: #ffffff; stroke-linejoin: miter"/>
   </g>
   <g id="patch_94">
    <path d="M 201.873974 498.093833 
L 217.864422 498.093833 
L 217.864422 496.070988 
L 201.873974 496.070988 
z
" clip-path="url(#p83b724d6c0)" style="fill: #4a538a; stroke: #ffffff; stroke-linejoin: miter"/>
   </g>
   <g id="patch_95">
    <path d="M 181.885914 498.093833 
L 197.876362 498.093833 
L 197.876362 497.044951 
L 181.885914 497.044951 
z
" clip-path="url(#p83b724d6c0)" style="fill: #4a538a; stroke: #ffffff; stroke-linejoin: miter"/>
   </g>
   <g id="patch_96">
    <path d="M 161.897854 498.093833 
L 177.888302 498.093833 
L 177.888302 497.494472 
L 161.897854 497.494472 
z
" clip-path="url(#p83b724d6c0)" style="fill: #4a538a; stroke: #ffffff; stroke-linejoin: miter"/>
   </g>
   <g id="patch_97">
    <path d="M 141.909795 498.093833 
L 157.900243 498.093833 
L 157.900243 497.569392 
L 141.909795 497.569392 
z
" clip-path="url(#p83b724d6c0)" style="fill: #4a538a; stroke: #ffffff; stroke-linejoin: miter"/>
   </g>
   <g id="patch_98">
    <path d="M 121.921735 498.093833 
L 137.912183 498.093833 
L 137.912183 498.018913 
L 121.921735 498.018913 
z
" clip-path="url(#p83b724d6c0)" style="fill: #4a538a; stroke: #ffffff; stroke-linejoin: miter"/>
   </g>
   <g id="patch_99">
    <path d="M 101.933675 498.093833 
L 117.924123 498.093833 
L 117.924123 498.093833 
L 101.933675 498.093833 
z
" clip-path="url(#p83b724d6c0)" style="fill: #4a538a; stroke: #ffffff; stroke-linejoin: miter"/>
   </g>
   <g id="patch_100">
    <path d="M 81.945616 498.168753 
L 97.936063 498.168753 
L 97.936063 498.168753 
L 81.945616 498.168753 
z
" clip-path="url(#p83b724d6c0)" style="fill: #4a538a; stroke: #ffffff; stroke-linejoin: miter"/>
   </g>
   <g id="patch_101">
    <path d="M 61.957556 498.168753 
L 77.948004 498.168753 
L 77.948004 498.168753 
L 61.957556 498.168753 
z
" clip-path="url(#p83b724d6c0)" style="fill: #4a538a; stroke: #ffffff; stroke-linejoin: miter"/>
   </g>
   <g id="patch_102">
    <path d="M 701.575466 389.234805 
L 717.565914 389.234805 
L 717.565914 75.918594 
L 701.575466 75.918594 
z
" clip-path="url(#p83b724d6c0)" style="fill: #8c6382; stroke: #ffffff; stroke-linejoin: miter"/>
   </g>
   <g id="patch_103">
    <path d="M 681.587407 391.557331 
L 697.577854 391.557331 
L 697.577854 80.713486 
L 681.587407 80.713486 
z
" clip-path="url(#p83b724d6c0)" style="fill: #8c6382; stroke: #ffffff; stroke-linejoin: miter"/>
   </g>
   <g id="patch_104">
    <path d="M 661.599347 398.899509 
L 677.589795 398.899509 
L 677.589795 104.463184 
L 661.599347 104.463184 
z
" clip-path="url(#p83b724d6c0)" style="fill: #8c6382; stroke: #ffffff; stroke-linejoin: miter"/>
   </g>
   <g id="patch_105">
    <path d="M 641.611287 412.235302 
L 657.601735 412.235302 
L 657.601735 131.809051 
L 641.611287 131.809051 
z
" clip-path="url(#p83b724d6c0)" style="fill: #8c6382; stroke: #ffffff; stroke-linejoin: miter"/>
   </g>
   <g id="patch_106">
    <path d="M 621.623228 420.476522 
L 637.613675 420.476522 
L 637.613675 171.142148 
L 621.623228 171.142148 
z
" clip-path="url(#p83b724d6c0)" style="fill: #8c6382; stroke: #ffffff; stroke-linejoin: miter"/>
   </g>
   <g id="patch_107">
    <path d="M 601.635168 425.571095 
L 617.625616 425.571095 
L 617.625616 188.598551 
L 601.635168 188.598551 
z
" clip-path="url(#p83b724d6c0)" style="fill: #8c6382; stroke: #ffffff; stroke-linejoin: miter"/>
   </g>
   <g id="patch_108">
    <path d="M 581.647108 432.238991 
L 597.637556 432.238991 
L 597.637556 203.732428 
L 581.647108 203.732428 
z
" clip-path="url(#p83b724d6c0)" style="fill: #8c6382; stroke: #ffffff; stroke-linejoin: miter"/>
   </g>
   <g id="patch_109">
    <path d="M 561.659049 437.558324 
L 577.649496 437.558324 
L 577.649496 228.006568 
L 561.659049 228.006568 
z
" clip-path="url(#p83b724d6c0)" style="fill: #8c6382; stroke: #ffffff; stroke-linejoin: miter"/>
   </g>
   <g id="patch_110">
    <path d="M 541.670989 442.353216 
L 557.661437 442.353216 
L 557.661437 239.469356 
L 541.670989 239.469356 
z
" clip-path="url(#p83b724d6c0)" style="fill: #8c6382; stroke: #ffffff; stroke-linejoin: miter"/>
   </g>
   <g id="patch_111">
    <path d="M 521.682929 447.148108 
L 537.673377 447.148108 
L 537.673377 352.748675 
L 521.682929 352.748675 
z
" clip-path="url(#p83b724d6c0)" style="fill: #8c6382; stroke: #ffffff; stroke-linejoin: miter"/>
   </g>
   <g id="patch_112">
    <path d="M 501.694869 451.343638 
L 517.685317 451.343638 
L 517.685317 364.361304 
L 501.694869 364.361304 
z
" clip-path="url(#p83b724d6c0)" style="fill: #8c6382; stroke: #ffffff; stroke-linejoin: miter"/>
   </g>
   <g id="patch_113">
    <path d="M 481.70681 456.812812 
L 497.697257 456.812812 
L 497.697257 429.916465 
L 481.70681 429.916465 
z
" clip-path="url(#p83b724d6c0)" style="fill: #8c6382; stroke: #ffffff; stroke-linejoin: miter"/>
   </g>
   <g id="patch_114">
    <path d="M 461.71875 460.40898 
L 477.709198 460.40898 
L 477.709198 439.431329 
L 461.71875 439.431329 
z
" clip-path="url(#p83b724d6c0)" style="fill: #8c6382; stroke: #ffffff; stroke-linejoin: miter"/>
   </g>
   <g id="patch_115">
    <path d="M 441.73069 463.855309 
L 457.721138 463.855309 
L 457.721138 449.845234 
L 441.73069 449.845234 
z
" clip-path="url(#p83b724d6c0)" style="fill: #8c6382; stroke: #ffffff; stroke-linejoin: miter"/>
   </g>
   <g id="patch_116">
    <path d="M 421.742631 468.125759 
L 437.733078 468.125759 
L 437.733078 460.034379 
L 421.742631 460.034379 
z
" clip-path="url(#p83b724d6c0)" style="fill: #8c6382; stroke: #ffffff; stroke-linejoin: miter"/>
   </g>
   <g id="patch_117">
    <path d="M 401.754571 471.946689 
L 417.745019 471.946689 
L 417.745019 467.376558 
L 401.754571 467.376558 
z
" clip-path="url(#p83b724d6c0)" style="fill: #8c6382; stroke: #ffffff; stroke-linejoin: miter"/>
   </g>
   <g id="patch_118">
    <path d="M 381.766511 477.640623 
L 397.756959 477.640623 
L 397.756959 474.419055 
L 381.766511 474.419055 
z
" clip-path="url(#p83b724d6c0)" style="fill: #8c6382; stroke: #ffffff; stroke-linejoin: miter"/>
   </g>
   <g id="patch_119">
    <path d="M 361.778451 481.236792 
L 377.768899 481.236792 
L 377.768899 479.213947 
L 361.778451 479.213947 
z
" clip-path="url(#p83b724d6c0)" style="fill: #8c6382; stroke: #ffffff; stroke-linejoin: miter"/>
   </g>
   <g id="patch_120">
    <path d="M 341.790392 483.933918 
L 357.78084 483.933918 
L 357.78084 483.109796 
L 341.790392 483.109796 
z
" clip-path="url(#p83b724d6c0)" style="fill: #8c6382; stroke: #ffffff; stroke-linejoin: miter"/>
   </g>
   <g id="patch_121">
    <path d="M 321.802332 485.881843 
L 337.79278 485.881843 
L 337.79278 485.432322 
L 321.802332 485.432322 
z
" clip-path="url(#p83b724d6c0)" style="fill: #8c6382; stroke: #ffffff; stroke-linejoin: miter"/>
   </g>
   <g id="patch_122">
    <path d="M 301.814272 488.57897 
L 317.80472 488.57897 
L 317.80472 488.129449 
L 301.814272 488.129449 
z
" clip-path="url(#p83b724d6c0)" style="fill: #8c6382; stroke: #ffffff; stroke-linejoin: miter"/>
   </g>
   <g id="patch_123">
    <path d="M 281.826213 490.227214 
L 297.81666 490.227214 
L 297.81666 490.152294 
L 281.826213 490.152294 
z
" clip-path="url(#p83b724d6c0)" style="fill: #8c6382; stroke: #ffffff; stroke-linejoin: miter"/>
   </g>
   <g id="patch_124">
    <path d="M 261.838153 491.875458 
L 277.828601 491.875458 
L 277.828601 491.800538 
L 261.838153 491.800538 
z
" clip-path="url(#p83b724d6c0)" style="fill: #8c6382; stroke: #ffffff; stroke-linejoin: miter"/>
   </g>
   <g id="patch_125">
    <path d="M 241.850093 493.973223 
L 257.840541 493.973223 
L 257.840541 493.973223 
L 241.850093 493.973223 
z
" clip-path="url(#p83b724d6c0)" style="fill: #8c6382; stroke: #ffffff; stroke-linejoin: miter"/>
   </g>
   <g id="patch_126">
    <path d="M 221.862034 494.872265 
L 237.852481 494.872265 
L 237.852481 494.872265 
L 221.862034 494.872265 
z
" clip-path="url(#p83b724d6c0)" style="fill: #8c6382; stroke: #ffffff; stroke-linejoin: miter"/>
   </g>
   <g id="patch_127">
    <path d="M 201.873974 496.070988 
L 217.864422 496.070988 
L 217.864422 496.070988 
L 201.873974 496.070988 
z
" clip-path="url(#p83b724d6c0)" style="fill: #8c6382; stroke: #ffffff; stroke-linejoin: miter"/>
   </g>
   <g id="patch_128">
    <path d="M 181.885914 497.044951 
L 197.876362 497.044951 
L 197.876362 497.044951 
L 181.885914 497.044951 
z
" clip-path="url(#p83b724d6c0)" style="fill: #8c6382; stroke: #ffffff; stroke-linejoin: miter"/>
   </g>
   <g id="patch_129">
    <path d="M 161.897854 497.494472 
L 177.888302 497.494472 
L 177.888302 497.494472 
L 161.897854 497.494472 
z
" clip-path="url(#p83b724d6c0)" style="fill: #8c6382; stroke: #ffffff; stroke-linejoin: miter"/>
   </g>
   <g id="patch_130">
    <path d="M 141.909795 497.569392 
L 157.900243 497.569392 
L 157.900243 497.569392 
L 141.909795 497.569392 
z
" clip-path="url(#p83b724d6c0)" style="fill: #8c6382; stroke: #ffffff; stroke-linejoin: miter"/>
   </g>
   <g id="patch_131">
    <path d="M 121.921735 498.018913 
L 137.912183 498.018913 
L 137.912183 498.018913 
L 121.921735 498.018913 
z
" clip-path="url(#p83b724d6c0)" style="fill: #8c6382; stroke: #ffffff; stroke-linejoin: miter"/>
   </g>
   <g id="patch_132">
    <path d="M 101.933675 498.093833 
L 117.924123 498.093833 
L 117.924123 498.093833 
L 101.933675 498.093833 
z
" clip-path="url(#p83b724d6c0)" style="fill: #8c6382; stroke: #ffffff; stroke-linejoin: miter"/>
   </g>
   <g id="patch_133">
    <path d="M 81.945616 498.168753 
L 97.936063 498.168753 
L 97.936063 498.168753 
L 81.945616 498.168753 
z
" clip-path="url(#p83b724d6c0)" style="fill: #8c6382; stroke: #ffffff; stroke-linejoin: miter"/>
   </g>
   <g id="patch_134">
    <path d="M 61.957556 498.168753 
L 77.948004 498.168753 
L 77.948004 498.168753 
L 61.957556 498.168753 
z
" clip-path="url(#p83b724d6c0)" style="fill: #8c6382; stroke: #ffffff; stroke-linejoin: miter"/>
   </g>
   <g id="matplotlib.axis_1">
    <g id="xtick_1">
     <g id="line2d_1">
      <defs>
       <path id="m2434ed6909" d="M 0 0 
L 0 3.5 
" style="stroke: #ffffff; stroke-width: 1.5"/>
      </defs>
      <g>
       <use xlink:href="#m2434ed6909" x="709.57069" y="498.318594" style="fill: #ffffff; stroke: #ffffff; stroke-width: 1.5"/>
      </g>
     </g>
     <g id="text_1">
      <!-- 2024 -->
      <g style="fill: #ffffff" transform="translate(703.026638 527.757081) rotate(-45) scale(0.1 -0.1)">
       <defs>
        <path id="DejaVuSansMono-32" d="M 1166 531 
L 3309 531 
L 3309 0 
L 475 0 
L 475 531 
Q 1059 1147 1496 1619 
Q 1934 2091 2100 2284 
Q 2413 2666 2522 2902 
Q 2631 3138 2631 3384 
Q 2631 3775 2401 3997 
Q 2172 4219 1772 4219 
Q 1488 4219 1175 4116 
Q 863 4013 513 3803 
L 513 4441 
Q 834 4594 1145 4672 
Q 1456 4750 1759 4750 
Q 2444 4750 2861 4386 
Q 3278 4022 3278 3431 
Q 3278 3131 3139 2831 
Q 3000 2531 2688 2169 
Q 2513 1966 2180 1606 
Q 1847 1247 1166 531 
z
" transform="scale(0.015625)"/>
        <path id="DejaVuSansMono-30" d="M 1509 2344 
Q 1509 2516 1629 2641 
Q 1750 2766 1919 2766 
Q 2094 2766 2219 2641 
Q 2344 2516 2344 2344 
Q 2344 2169 2220 2047 
Q 2097 1925 1919 1925 
Q 1744 1925 1626 2044 
Q 1509 2163 1509 2344 
z
M 1925 4250 
Q 1484 4250 1267 3775 
Q 1050 3300 1050 2328 
Q 1050 1359 1267 884 
Q 1484 409 1925 409 
Q 2369 409 2586 884 
Q 2803 1359 2803 2328 
Q 2803 3300 2586 3775 
Q 2369 4250 1925 4250 
z
M 1925 4750 
Q 2672 4750 3055 4137 
Q 3438 3525 3438 2328 
Q 3438 1134 3055 521 
Q 2672 -91 1925 -91 
Q 1178 -91 797 521 
Q 416 1134 416 2328 
Q 416 3525 797 4137 
Q 1178 4750 1925 4750 
z
" transform="scale(0.015625)"/>
        <path id="DejaVuSansMono-34" d="M 2297 4091 
L 825 1625 
L 2297 1625 
L 2297 4091 
z
M 2194 4666 
L 2925 4666 
L 2925 1625 
L 3547 1625 
L 3547 1113 
L 2925 1113 
L 2925 0 
L 2297 0 
L 2297 1113 
L 319 1113 
L 319 1709 
L 2194 4666 
z
" transform="scale(0.015625)"/>
       </defs>
       <use xlink:href="#DejaVuSansMono-32"/>
       <use xlink:href="#DejaVuSansMono-30" x="60.205078"/>
       <use xlink:href="#DejaVuSansMono-32" x="120.410156"/>
       <use xlink:href="#DejaVuSansMono-34" x="180.615234"/>
      </g>
     </g>
    </g>
    <g id="xtick_2">
     <g id="line2d_2">
      <g>
       <use xlink:href="#m2434ed6909" x="689.582631" y="498.318594" style="fill: #ffffff; stroke: #ffffff; stroke-width: 1.5"/>
      </g>
     </g>
     <g id="text_2">
      <!-- 2023 -->
      <g style="fill: #ffffff" transform="translate(683.038578 527.757081) rotate(-45) scale(0.1 -0.1)">
       <defs>
        <path id="DejaVuSansMono-33" d="M 2425 2497 
Q 2884 2375 3128 2064 
Q 3372 1753 3372 1288 
Q 3372 644 2939 276 
Q 2506 -91 1741 -91 
Q 1419 -91 1084 -31 
Q 750 28 428 141 
L 428 769 
Q 747 603 1056 522 
Q 1366 441 1672 441 
Q 2191 441 2469 675 
Q 2747 909 2747 1350 
Q 2747 1756 2469 1995 
Q 2191 2234 1716 2234 
L 1234 2234 
L 1234 2753 
L 1716 2753 
Q 2150 2753 2394 2943 
Q 2638 3134 2638 3475 
Q 2638 3834 2411 4026 
Q 2184 4219 1766 4219 
Q 1488 4219 1191 4156 
Q 894 4094 569 3969 
L 569 4550 
Q 947 4650 1242 4700 
Q 1538 4750 1766 4750 
Q 2447 4750 2855 4408 
Q 3263 4066 3263 3500 
Q 3263 3116 3048 2859 
Q 2834 2603 2425 2497 
z
" transform="scale(0.015625)"/>
       </defs>
       <use xlink:href="#DejaVuSansMono-32"/>
       <use xlink:href="#DejaVuSansMono-30" x="60.205078"/>
       <use xlink:href="#DejaVuSansMono-32" x="120.410156"/>
       <use xlink:href="#DejaVuSansMono-33" x="180.615234"/>
      </g>
     </g>
    </g>
    <g id="xtick_3">
     <g id="line2d_3">
      <g>
       <use xlink:href="#m2434ed6909" x="669.594571" y="498.318594" style="fill: #ffffff; stroke: #ffffff; stroke-width: 1.5"/>
      </g>
     </g>
     <g id="text_3">
      <!-- 2022 -->
      <g style="fill: #ffffff" transform="translate(663.050519 527.757081) rotate(-45) scale(0.1 -0.1)">
       <use xlink:href="#DejaVuSansMono-32"/>
       <use xlink:href="#DejaVuSansMono-30" x="60.205078"/>
       <use xlink:href="#DejaVuSansMono-32" x="120.410156"/>
       <use xlink:href="#DejaVuSansMono-32" x="180.615234"/>
      </g>
     </g>
    </g>
    <g id="xtick_4">
     <g id="line2d_4">
      <g>
       <use xlink:href="#m2434ed6909" x="649.606511" y="498.318594" style="fill: #ffffff; stroke: #ffffff; stroke-width: 1.5"/>
      </g>
     </g>
     <g id="text_4">
      <!-- 2021 -->
      <g style="fill: #ffffff" transform="translate(643.062459 527.757081) rotate(-45) scale(0.1 -0.1)">
       <defs>
        <path id="DejaVuSansMono-31" d="M 844 531 
L 1825 531 
L 1825 4097 
L 769 3859 
L 769 4434 
L 1819 4666 
L 2450 4666 
L 2450 531 
L 3419 531 
L 3419 0 
L 844 0 
L 844 531 
z
" transform="scale(0.015625)"/>
       </defs>
       <use xlink:href="#DejaVuSansMono-32"/>
       <use xlink:href="#DejaVuSansMono-30" x="60.205078"/>
       <use xlink:href="#DejaVuSansMono-32" x="120.410156"/>
       <use xlink:href="#DejaVuSansMono-31" x="180.615234"/>
      </g>
     </g>
    </g>
    <g id="xtick_5">
     <g id="line2d_5">
      <g>
       <use xlink:href="#m2434ed6909" x="629.618451" y="498.318594" style="fill: #ffffff; stroke: #ffffff; stroke-width: 1.5"/>
      </g>
     </g>
     <g id="text_5">
      <!-- 2020 -->
      <g style="fill: #ffffff" transform="translate(623.074399 527.757081) rotate(-45) scale(0.1 -0.1)">
       <use xlink:href="#DejaVuSansMono-32"/>
       <use xlink:href="#DejaVuSansMono-30" x="60.205078"/>
       <use xlink:href="#DejaVuSansMono-32" x="120.410156"/>
       <use xlink:href="#DejaVuSansMono-30" x="180.615234"/>
      </g>
     </g>
    </g>
    <g id="xtick_6">
     <g id="line2d_6">
      <g>
       <use xlink:href="#m2434ed6909" x="609.630392" y="498.318594" style="fill: #ffffff; stroke: #ffffff; stroke-width: 1.5"/>
      </g>
     </g>
     <g id="text_6">
      <!-- 2019 -->
      <g style="fill: #ffffff" transform="translate(603.08634 527.757081) rotate(-45) scale(0.1 -0.1)">
       <defs>
        <path id="DejaVuSansMono-39" d="M 1863 2069 
Q 2266 2069 2495 2359 
Q 2725 2650 2725 3163 
Q 2725 3675 2495 3965 
Q 2266 4256 1863 4256 
Q 1444 4256 1231 3979 
Q 1019 3703 1019 3163 
Q 1019 2619 1230 2344 
Q 1441 2069 1863 2069 
z
M 738 97 
L 738 678 
Q 934 563 1156 502 
Q 1378 441 1619 441 
Q 2219 441 2526 892 
Q 2834 1344 2834 2222 
Q 2688 1909 2422 1742 
Q 2156 1575 1813 1575 
Q 1138 1575 767 1990 
Q 397 2406 397 3169 
Q 397 3922 776 4336 
Q 1156 4750 1850 4750 
Q 2663 4750 3041 4165 
Q 3419 3581 3419 2328 
Q 3419 1150 2964 529 
Q 2509 -91 1644 -91 
Q 1416 -91 1184 -42 
Q 953 6 738 97 
z
" transform="scale(0.015625)"/>
       </defs>
       <use xlink:href="#DejaVuSansMono-32"/>
       <use xlink:href="#DejaVuSansMono-30" x="60.205078"/>
       <use xlink:href="#DejaVuSansMono-31" x="120.410156"/>
       <use xlink:href="#DejaVuSansMono-39" x="180.615234"/>
      </g>
     </g>
    </g>
    <g id="xtick_7">
     <g id="line2d_7">
      <g>
       <use xlink:href="#m2434ed6909" x="589.642332" y="498.318594" style="fill: #ffffff; stroke: #ffffff; stroke-width: 1.5"/>
      </g>
     </g>
     <g id="text_7">
      <!-- 2018 -->
      <g style="fill: #ffffff" transform="translate(583.09828 527.757081) rotate(-45) scale(0.1 -0.1)">
       <defs>
        <path id="DejaVuSansMono-38" d="M 1925 2216 
Q 1503 2216 1273 1980 
Q 1044 1744 1044 1313 
Q 1044 881 1276 642 
Q 1509 403 1925 403 
Q 2350 403 2579 639 
Q 2809 875 2809 1313 
Q 2809 1741 2576 1978 
Q 2344 2216 1925 2216 
z
M 1375 2478 
Q 972 2581 745 2862 
Q 519 3144 519 3541 
Q 519 4097 897 4423 
Q 1275 4750 1925 4750 
Q 2578 4750 2956 4423 
Q 3334 4097 3334 3541 
Q 3334 3144 3107 2862 
Q 2881 2581 2478 2478 
Q 2947 2375 3195 2062 
Q 3444 1750 3444 1253 
Q 3444 622 3041 265 
Q 2638 -91 1925 -91 
Q 1213 -91 811 264 
Q 409 619 409 1247 
Q 409 1747 657 2061 
Q 906 2375 1375 2478 
z
M 1147 3481 
Q 1147 3106 1347 2909 
Q 1547 2713 1925 2713 
Q 2306 2713 2506 2909 
Q 2706 3106 2706 3481 
Q 2706 3863 2507 4063 
Q 2309 4263 1925 4263 
Q 1547 4263 1347 4061 
Q 1147 3859 1147 3481 
z
" transform="scale(0.015625)"/>
       </defs>
       <use xlink:href="#DejaVuSansMono-32"/>
       <use xlink:href="#DejaVuSansMono-30" x="60.205078"/>
       <use xlink:href="#DejaVuSansMono-31" x="120.410156"/>
       <use xlink:href="#DejaVuSansMono-38" x="180.615234"/>
      </g>
     </g>
    </g>
    <g id="xtick_8">
     <g id="line2d_8">
      <g>
       <use xlink:href="#m2434ed6909" x="569.654272" y="498.318594" style="fill: #ffffff; stroke: #ffffff; stroke-width: 1.5"/>
      </g>
     </g>
     <g id="text_8">
      <!-- 2017 -->
      <g style="fill: #ffffff" transform="translate(563.11022 527.757081) rotate(-45) scale(0.1 -0.1)">
       <defs>
        <path id="DejaVuSansMono-37" d="M 434 4666 
L 3372 4666 
L 3372 4397 
L 1703 0 
L 1044 0 
L 2669 4134 
L 434 4134 
L 434 4666 
z
" transform="scale(0.015625)"/>
       </defs>
       <use xlink:href="#DejaVuSansMono-32"/>
       <use xlink:href="#DejaVuSansMono-30" x="60.205078"/>
       <use xlink:href="#DejaVuSansMono-31" x="120.410156"/>
       <use xlink:href="#DejaVuSansMono-37" x="180.615234"/>
      </g>
     </g>
    </g>
    <g id="xtick_9">
     <g id="line2d_9">
      <g>
       <use xlink:href="#m2434ed6909" x="549.666213" y="498.318594" style="fill: #ffffff; stroke: #ffffff; stroke-width: 1.5"/>
      </g>
     </g>
     <g id="text_9">
      <!-- 2016 -->
      <g style="fill: #ffffff" transform="translate(543.12216 527.757081) rotate(-45) scale(0.1 -0.1)">
       <defs>
        <path id="DejaVuSansMono-36" d="M 3097 4563 
L 3097 3981 
Q 2900 4097 2678 4158 
Q 2456 4219 2216 4219 
Q 1616 4219 1306 3767 
Q 997 3316 997 2438 
Q 1147 2750 1412 2917 
Q 1678 3084 2022 3084 
Q 2697 3084 3067 2670 
Q 3438 2256 3438 1497 
Q 3438 741 3056 325 
Q 2675 -91 1984 -91 
Q 1172 -91 794 492 
Q 416 1075 416 2328 
Q 416 3509 870 4129 
Q 1325 4750 2188 4750 
Q 2419 4750 2650 4701 
Q 2881 4653 3097 4563 
z
M 1972 2591 
Q 1569 2591 1337 2300 
Q 1106 2009 1106 1497 
Q 1106 984 1337 693 
Q 1569 403 1972 403 
Q 2391 403 2603 679 
Q 2816 956 2816 1497 
Q 2816 2041 2603 2316 
Q 2391 2591 1972 2591 
z
" transform="scale(0.015625)"/>
       </defs>
       <use xlink:href="#DejaVuSansMono-32"/>
       <use xlink:href="#DejaVuSansMono-30" x="60.205078"/>
       <use xlink:href="#DejaVuSansMono-31" x="120.410156"/>
       <use xlink:href="#DejaVuSansMono-36" x="180.615234"/>
      </g>
     </g>
    </g>
    <g id="xtick_10">
     <g id="line2d_10">
      <g>
       <use xlink:href="#m2434ed6909" x="529.678153" y="498.318594" style="fill: #ffffff; stroke: #ffffff; stroke-width: 1.5"/>
      </g>
     </g>
     <g id="text_10">
      <!-- 2015 -->
      <g style="fill: #ffffff" transform="translate(523.134101 527.757081) rotate(-45) scale(0.1 -0.1)">
       <defs>
        <path id="DejaVuSansMono-35" d="M 647 4666 
L 3009 4666 
L 3009 4134 
L 1222 4134 
L 1222 2988 
Q 1356 3038 1492 3061 
Q 1628 3084 1766 3084 
Q 2491 3084 2916 2656 
Q 3341 2228 3341 1497 
Q 3341 759 2895 334 
Q 2450 -91 1678 -91 
Q 1306 -91 998 -41 
Q 691 9 447 109 
L 447 750 
Q 734 594 1025 517 
Q 1316 441 1619 441 
Q 2141 441 2423 716 
Q 2706 991 2706 1497 
Q 2706 1997 2414 2275 
Q 2122 2553 1600 2553 
Q 1347 2553 1106 2495 
Q 866 2438 647 2322 
L 647 4666 
z
" transform="scale(0.015625)"/>
       </defs>
       <use xlink:href="#DejaVuSansMono-32"/>
       <use xlink:href="#DejaVuSansMono-30" x="60.205078"/>
       <use xlink:href="#DejaVuSansMono-31" x="120.410156"/>
       <use xlink:href="#DejaVuSansMono-35" x="180.615234"/>
      </g>
     </g>
    </g>
    <g id="xtick_11">
     <g id="line2d_11">
      <g>
       <use xlink:href="#m2434ed6909" x="509.690093" y="498.318594" style="fill: #ffffff; stroke: #ffffff; stroke-width: 1.5"/>
      </g>
     </g>
     <g id="text_11">
      <!-- 2014 -->
      <g style="fill: #ffffff" transform="translate(503.146041 527.757081) rotate(-45) scale(0.1 -0.1)">
       <use xlink:href="#DejaVuSansMono-32"/>
       <use xlink:href="#DejaVuSansMono-30" x="60.205078"/>
       <use xlink:href="#DejaVuSansMono-31" x="120.410156"/>
       <use xlink:href="#DejaVuSansMono-34" x="180.615234"/>
      </g>
     </g>
    </g>
    <g id="xtick_12">
     <g id="line2d_12">
      <g>
       <use xlink:href="#m2434ed6909" x="489.702034" y="498.318594" style="fill: #ffffff; stroke: #ffffff; stroke-width: 1.5"/>
      </g>
     </g>
     <g id="text_12">
      <!-- 2013 -->
      <g style="fill: #ffffff" transform="translate(483.157981 527.757081) rotate(-45) scale(0.1 -0.1)">
       <use xlink:href="#DejaVuSansMono-32"/>
       <use xlink:href="#DejaVuSansMono-30" x="60.205078"/>
       <use xlink:href="#DejaVuSansMono-31" x="120.410156"/>
       <use xlink:href="#DejaVuSansMono-33" x="180.615234"/>
      </g>
     </g>
    </g>
    <g id="xtick_13">
     <g id="line2d_13">
      <g>
       <use xlink:href="#m2434ed6909" x="469.713974" y="498.318594" style="fill: #ffffff; stroke: #ffffff; stroke-width: 1.5"/>
      </g>
     </g>
     <g id="text_13">
      <!-- 2012 -->
      <g style="fill: #ffffff" transform="translate(463.169922 527.757081) rotate(-45) scale(0.1 -0.1)">
       <use xlink:href="#DejaVuSansMono-32"/>
       <use xlink:href="#DejaVuSansMono-30" x="60.205078"/>
       <use xlink:href="#DejaVuSansMono-31" x="120.410156"/>
       <use xlink:href="#DejaVuSansMono-32" x="180.615234"/>
      </g>
     </g>
    </g>
    <g id="xtick_14">
     <g id="line2d_14">
      <g>
       <use xlink:href="#m2434ed6909" x="449.725914" y="498.318594" style="fill: #ffffff; stroke: #ffffff; stroke-width: 1.5"/>
      </g>
     </g>
     <g id="text_14">
      <!-- 2011 -->
      <g style="fill: #ffffff" transform="translate(443.181862 527.757081) rotate(-45) scale(0.1 -0.1)">
       <use xlink:href="#DejaVuSansMono-32"/>
       <use xlink:href="#DejaVuSansMono-30" x="60.205078"/>
       <use xlink:href="#DejaVuSansMono-31" x="120.410156"/>
       <use xlink:href="#DejaVuSansMono-31" x="180.615234"/>
      </g>
     </g>
    </g>
    <g id="xtick_15">
     <g id="line2d_15">
      <g>
       <use xlink:href="#m2434ed6909" x="429.737854" y="498.318594" style="fill: #ffffff; stroke: #ffffff; stroke-width: 1.5"/>
      </g>
     </g>
     <g id="text_15">
      <!-- 2010 -->
      <g style="fill: #ffffff" transform="translate(423.193802 527.757081) rotate(-45) scale(0.1 -0.1)">
       <use xlink:href="#DejaVuSansMono-32"/>
       <use xlink:href="#DejaVuSansMono-30" x="60.205078"/>
       <use xlink:href="#DejaVuSansMono-31" x="120.410156"/>
       <use xlink:href="#DejaVuSansMono-30" x="180.615234"/>
      </g>
     </g>
    </g>
    <g id="xtick_16">
     <g id="line2d_16">
      <g>
       <use xlink:href="#m2434ed6909" x="409.749795" y="498.318594" style="fill: #ffffff; stroke: #ffffff; stroke-width: 1.5"/>
      </g>
     </g>
     <g id="text_16">
      <!-- 2009 -->
      <g style="fill: #ffffff" transform="translate(403.205742 527.757081) rotate(-45) scale(0.1 -0.1)">
       <use xlink:href="#DejaVuSansMono-32"/>
       <use xlink:href="#DejaVuSansMono-30" x="60.205078"/>
       <use xlink:href="#DejaVuSansMono-30" x="120.410156"/>
       <use xlink:href="#DejaVuSansMono-39" x="180.615234"/>
      </g>
     </g>
    </g>
    <g id="xtick_17">
     <g id="line2d_17">
      <g>
       <use xlink:href="#m2434ed6909" x="389.761735" y="498.318594" style="fill: #ffffff; stroke: #ffffff; stroke-width: 1.5"/>
      </g>
     </g>
     <g id="text_17">
      <!-- 2008 -->
      <g style="fill: #ffffff" transform="translate(383.217683 527.757081) rotate(-45) scale(0.1 -0.1)">
       <use xlink:href="#DejaVuSansMono-32"/>
       <use xlink:href="#DejaVuSansMono-30" x="60.205078"/>
       <use xlink:href="#DejaVuSansMono-30" x="120.410156"/>
       <use xlink:href="#DejaVuSansMono-38" x="180.615234"/>
      </g>
     </g>
    </g>
    <g id="xtick_18">
     <g id="line2d_18">
      <g>
       <use xlink:href="#m2434ed6909" x="369.773675" y="498.318594" style="fill: #ffffff; stroke: #ffffff; stroke-width: 1.5"/>
      </g>
     </g>
     <g id="text_18">
      <!-- 2007 -->
      <g style="fill: #ffffff" transform="translate(363.229623 527.757081) rotate(-45) scale(0.1 -0.1)">
       <use xlink:href="#DejaVuSansMono-32"/>
       <use xlink:href="#DejaVuSansMono-30" x="60.205078"/>
       <use xlink:href="#DejaVuSansMono-30" x="120.410156"/>
       <use xlink:href="#DejaVuSansMono-37" x="180.615234"/>
      </g>
     </g>
    </g>
    <g id="xtick_19">
     <g id="line2d_19">
      <g>
       <use xlink:href="#m2434ed6909" x="349.785616" y="498.318594" style="fill: #ffffff; stroke: #ffffff; stroke-width: 1.5"/>
      </g>
     </g>
     <g id="text_19">
      <!-- 2006 -->
      <g style="fill: #ffffff" transform="translate(343.241563 527.757081) rotate(-45) scale(0.1 -0.1)">
       <use xlink:href="#DejaVuSansMono-32"/>
       <use xlink:href="#DejaVuSansMono-30" x="60.205078"/>
       <use xlink:href="#DejaVuSansMono-30" x="120.410156"/>
       <use xlink:href="#DejaVuSansMono-36" x="180.615234"/>
      </g>
     </g>
    </g>
    <g id="xtick_20">
     <g id="line2d_20">
      <g>
       <use xlink:href="#m2434ed6909" x="329.797556" y="498.318594" style="fill: #ffffff; stroke: #ffffff; stroke-width: 1.5"/>
      </g>
     </g>
     <g id="text_20">
      <!-- 2005 -->
      <g style="fill: #ffffff" transform="translate(323.253504 527.757081) rotate(-45) scale(0.1 -0.1)">
       <use xlink:href="#DejaVuSansMono-32"/>
       <use xlink:href="#DejaVuSansMono-30" x="60.205078"/>
       <use xlink:href="#DejaVuSansMono-30" x="120.410156"/>
       <use xlink:href="#DejaVuSansMono-35" x="180.615234"/>
      </g>
     </g>
    </g>
    <g id="xtick_21">
     <g id="line2d_21">
      <g>
       <use xlink:href="#m2434ed6909" x="309.809496" y="498.318594" style="fill: #ffffff; stroke: #ffffff; stroke-width: 1.5"/>
      </g>
     </g>
     <g id="text_21">
      <!-- 2004 -->
      <g style="fill: #ffffff" transform="translate(303.265444 527.757081) rotate(-45) scale(0.1 -0.1)">
       <use xlink:href="#DejaVuSansMono-32"/>
       <use xlink:href="#DejaVuSansMono-30" x="60.205078"/>
       <use xlink:href="#DejaVuSansMono-30" x="120.410156"/>
       <use xlink:href="#DejaVuSansMono-34" x="180.615234"/>
      </g>
     </g>
    </g>
    <g id="xtick_22">
     <g id="line2d_22">
      <g>
       <use xlink:href="#m2434ed6909" x="289.821437" y="498.318594" style="fill: #ffffff; stroke: #ffffff; stroke-width: 1.5"/>
      </g>
     </g>
     <g id="text_22">
      <!-- 2003 -->
      <g style="fill: #ffffff" transform="translate(283.277384 527.757081) rotate(-45) scale(0.1 -0.1)">
       <use xlink:href="#DejaVuSansMono-32"/>
       <use xlink:href="#DejaVuSansMono-30" x="60.205078"/>
       <use xlink:href="#DejaVuSansMono-30" x="120.410156"/>
       <use xlink:href="#DejaVuSansMono-33" x="180.615234"/>
      </g>
     </g>
    </g>
    <g id="xtick_23">
     <g id="line2d_23">
      <g>
       <use xlink:href="#m2434ed6909" x="269.833377" y="498.318594" style="fill: #ffffff; stroke: #ffffff; stroke-width: 1.5"/>
      </g>
     </g>
     <g id="text_23">
      <!-- 2002 -->
      <g style="fill: #ffffff" transform="translate(263.289325 527.757081) rotate(-45) scale(0.1 -0.1)">
       <use xlink:href="#DejaVuSansMono-32"/>
       <use xlink:href="#DejaVuSansMono-30" x="60.205078"/>
       <use xlink:href="#DejaVuSansMono-30" x="120.410156"/>
       <use xlink:href="#DejaVuSansMono-32" x="180.615234"/>
      </g>
     </g>
    </g>
    <g id="xtick_24">
     <g id="line2d_24">
      <g>
       <use xlink:href="#m2434ed6909" x="249.845317" y="498.318594" style="fill: #ffffff; stroke: #ffffff; stroke-width: 1.5"/>
      </g>
     </g>
     <g id="text_24">
      <!-- 2001 -->
      <g style="fill: #ffffff" transform="translate(243.301265 527.757081) rotate(-45) scale(0.1 -0.1)">
       <use xlink:href="#DejaVuSansMono-32"/>
       <use xlink:href="#DejaVuSansMono-30" x="60.205078"/>
       <use xlink:href="#DejaVuSansMono-30" x="120.410156"/>
       <use xlink:href="#DejaVuSansMono-31" x="180.615234"/>
      </g>
     </g>
    </g>
    <g id="xtick_25">
     <g id="line2d_25">
      <g>
       <use xlink:href="#m2434ed6909" x="229.857257" y="498.318594" style="fill: #ffffff; stroke: #ffffff; stroke-width: 1.5"/>
      </g>
     </g>
     <g id="text_25">
      <!-- 2000 -->
      <g style="fill: #ffffff" transform="translate(223.313205 527.757081) rotate(-45) scale(0.1 -0.1)">
       <use xlink:href="#DejaVuSansMono-32"/>
       <use xlink:href="#DejaVuSansMono-30" x="60.205078"/>
       <use xlink:href="#DejaVuSansMono-30" x="120.410156"/>
       <use xlink:href="#DejaVuSansMono-30" x="180.615234"/>
      </g>
     </g>
    </g>
    <g id="xtick_26">
     <g id="line2d_26">
      <g>
       <use xlink:href="#m2434ed6909" x="209.869198" y="498.318594" style="fill: #ffffff; stroke: #ffffff; stroke-width: 1.5"/>
      </g>
     </g>
     <g id="text_26">
      <!-- 1999 -->
      <g style="fill: #ffffff" transform="translate(203.325145 527.757081) rotate(-45) scale(0.1 -0.1)">
       <use xlink:href="#DejaVuSansMono-31"/>
       <use xlink:href="#DejaVuSansMono-39" x="60.205078"/>
       <use xlink:href="#DejaVuSansMono-39" x="120.410156"/>
       <use xlink:href="#DejaVuSansMono-39" x="180.615234"/>
      </g>
     </g>
    </g>
    <g id="xtick_27">
     <g id="line2d_27">
      <g>
       <use xlink:href="#m2434ed6909" x="189.881138" y="498.318594" style="fill: #ffffff; stroke: #ffffff; stroke-width: 1.5"/>
      </g>
     </g>
     <g id="text_27">
      <!-- 1998 -->
      <g style="fill: #ffffff" transform="translate(183.337086 527.757081) rotate(-45) scale(0.1 -0.1)">
       <use xlink:href="#DejaVuSansMono-31"/>
       <use xlink:href="#DejaVuSansMono-39" x="60.205078"/>
       <use xlink:href="#DejaVuSansMono-39" x="120.410156"/>
       <use xlink:href="#DejaVuSansMono-38" x="180.615234"/>
      </g>
     </g>
    </g>
    <g id="xtick_28">
     <g id="line2d_28">
      <g>
       <use xlink:href="#m2434ed6909" x="169.893078" y="498.318594" style="fill: #ffffff; stroke: #ffffff; stroke-width: 1.5"/>
      </g>
     </g>
     <g id="text_28">
      <!-- 1997 -->
      <g style="fill: #ffffff" transform="translate(163.349026 527.757081) rotate(-45) scale(0.1 -0.1)">
       <use xlink:href="#DejaVuSansMono-31"/>
       <use xlink:href="#DejaVuSansMono-39" x="60.205078"/>
       <use xlink:href="#DejaVuSansMono-39" x="120.410156"/>
       <use xlink:href="#DejaVuSansMono-37" x="180.615234"/>
      </g>
     </g>
    </g>
    <g id="xtick_29">
     <g id="line2d_29">
      <g>
       <use xlink:href="#m2434ed6909" x="149.905019" y="498.318594" style="fill: #ffffff; stroke: #ffffff; stroke-width: 1.5"/>
      </g>
     </g>
     <g id="text_29">
      <!-- 1996 -->
      <g style="fill: #ffffff" transform="translate(143.360966 527.757081) rotate(-45) scale(0.1 -0.1)">
       <use xlink:href="#DejaVuSansMono-31"/>
       <use xlink:href="#DejaVuSansMono-39" x="60.205078"/>
       <use xlink:href="#DejaVuSansMono-39" x="120.410156"/>
       <use xlink:href="#DejaVuSansMono-36" x="180.615234"/>
      </g>
     </g>
    </g>
    <g id="xtick_30">
     <g id="line2d_30">
      <g>
       <use xlink:href="#m2434ed6909" x="129.916959" y="498.318594" style="fill: #ffffff; stroke: #ffffff; stroke-width: 1.5"/>
      </g>
     </g>
     <g id="text_30">
      <!-- 1995 -->
      <g style="fill: #ffffff" transform="translate(123.372907 527.757081) rotate(-45) scale(0.1 -0.1)">
       <use xlink:href="#DejaVuSansMono-31"/>
       <use xlink:href="#DejaVuSansMono-39" x="60.205078"/>
       <use xlink:href="#DejaVuSansMono-39" x="120.410156"/>
       <use xlink:href="#DejaVuSansMono-35" x="180.615234"/>
      </g>
     </g>
    </g>
    <g id="xtick_31">
     <g id="line2d_31">
      <g>
       <use xlink:href="#m2434ed6909" x="109.928899" y="498.318594" style="fill: #ffffff; stroke: #ffffff; stroke-width: 1.5"/>
      </g>
     </g>
     <g id="text_31">
      <!-- 1994 -->
      <g style="fill: #ffffff" transform="translate(103.384847 527.757081) rotate(-45) scale(0.1 -0.1)">
       <use xlink:href="#DejaVuSansMono-31"/>
       <use xlink:href="#DejaVuSansMono-39" x="60.205078"/>
       <use xlink:href="#DejaVuSansMono-39" x="120.410156"/>
       <use xlink:href="#DejaVuSansMono-34" x="180.615234"/>
      </g>
     </g>
    </g>
    <g id="xtick_32">
     <g id="line2d_32">
      <g>
       <use xlink:href="#m2434ed6909" x="89.94084" y="498.318594" style="fill: #ffffff; stroke: #ffffff; stroke-width: 1.5"/>
      </g>
     </g>
     <g id="text_32">
      <!-- 1993 -->
      <g style="fill: #ffffff" transform="translate(83.396787 527.757081) rotate(-45) scale(0.1 -0.1)">
       <use xlink:href="#DejaVuSansMono-31"/>
       <use xlink:href="#DejaVuSansMono-39" x="60.205078"/>
       <use xlink:href="#DejaVuSansMono-39" x="120.410156"/>
       <use xlink:href="#DejaVuSansMono-33" x="180.615234"/>
      </g>
     </g>
    </g>
    <g id="xtick_33">
     <g id="line2d_33">
      <g>
       <use xlink:href="#m2434ed6909" x="69.95278" y="498.318594" style="fill: #ffffff; stroke: #ffffff; stroke-width: 1.5"/>
      </g>
     </g>
     <g id="text_33">
      <!-- 1992 -->
      <g style="fill: #ffffff" transform="translate(63.408728 527.757081) rotate(-45) scale(0.1 -0.1)">
       <use xlink:href="#DejaVuSansMono-31"/>
       <use xlink:href="#DejaVuSansMono-39" x="60.205078"/>
       <use xlink:href="#DejaVuSansMono-39" x="120.410156"/>
       <use xlink:href="#DejaVuSansMono-32" x="180.615234"/>
      </g>
     </g>
    </g>
    <g id="text_34">
     <!-- Discovery Year -->
     <g style="fill: #ffffff" transform="translate(344.188125 548.409517) scale(0.12 -0.12)">
      <defs>
       <path id="DejaVuSansMono-44" d="M 1363 519 
Q 2159 519 2475 911 
Q 2791 1303 2791 2328 
Q 2791 3363 2477 3755 
Q 2163 4147 1363 4147 
L 1063 4147 
L 1063 519 
L 1363 519 
z
M 1375 4666 
Q 2444 4666 2950 4097 
Q 3456 3528 3456 2328 
Q 3456 1134 2950 567 
Q 2444 0 1375 0 
L 428 0 
L 428 4666 
L 1375 4666 
z
" transform="scale(0.015625)"/>
       <path id="DejaVuSansMono-69" d="M 800 3500 
L 2272 3500 
L 2272 447 
L 3413 447 
L 3413 0 
L 556 0 
L 556 447 
L 1697 447 
L 1697 3053 
L 800 3053 
L 800 3500 
z
M 1697 4863 
L 2272 4863 
L 2272 4134 
L 1697 4134 
L 1697 4863 
z
" transform="scale(0.015625)"/>
       <path id="DejaVuSansMono-73" d="M 3041 3378 
L 3041 2816 
Q 2794 2959 2544 3031 
Q 2294 3103 2034 3103 
Q 1644 3103 1451 2976 
Q 1259 2850 1259 2591 
Q 1259 2356 1403 2240 
Q 1547 2125 2119 2016 
L 2350 1972 
Q 2778 1891 2998 1647 
Q 3219 1403 3219 1013 
Q 3219 494 2850 201 
Q 2481 -91 1825 -91 
Q 1566 -91 1281 -36 
Q 997 19 666 128 
L 666 722 
Q 988 556 1281 473 
Q 1575 391 1838 391 
Q 2219 391 2428 545 
Q 2638 700 2638 978 
Q 2638 1378 1872 1531 
L 1847 1538 
L 1631 1581 
Q 1134 1678 906 1908 
Q 678 2138 678 2534 
Q 678 3038 1018 3311 
Q 1359 3584 1991 3584 
Q 2272 3584 2531 3532 
Q 2791 3481 3041 3378 
z
" transform="scale(0.015625)"/>
       <path id="DejaVuSansMono-63" d="M 3316 178 
Q 3084 44 2839 -23 
Q 2594 -91 2338 -91 
Q 1525 -91 1067 396 
Q 609 884 609 1747 
Q 609 2609 1067 3096 
Q 1525 3584 2338 3584 
Q 2591 3584 2831 3518 
Q 3072 3453 3316 3316 
L 3316 2713 
Q 3088 2916 2858 3006 
Q 2628 3097 2338 3097 
Q 1797 3097 1506 2747 
Q 1216 2397 1216 1747 
Q 1216 1100 1508 748 
Q 1800 397 2338 397 
Q 2638 397 2875 489 
Q 3113 581 3316 775 
L 3316 178 
z
" transform="scale(0.015625)"/>
       <path id="DejaVuSansMono-6f" d="M 1925 3097 
Q 1488 3097 1263 2756 
Q 1038 2416 1038 1747 
Q 1038 1081 1263 739 
Q 1488 397 1925 397 
Q 2366 397 2591 739 
Q 2816 1081 2816 1747 
Q 2816 2416 2591 2756 
Q 2366 3097 1925 3097 
z
M 1925 3584 
Q 2653 3584 3039 3112 
Q 3425 2641 3425 1747 
Q 3425 850 3040 379 
Q 2656 -91 1925 -91 
Q 1197 -91 812 379 
Q 428 850 428 1747 
Q 428 2641 812 3112 
Q 1197 3584 1925 3584 
z
" transform="scale(0.015625)"/>
       <path id="DejaVuSansMono-76" d="M 313 3500 
L 909 3500 
L 1925 563 
L 2944 3500 
L 3541 3500 
L 2297 0 
L 1556 0 
L 313 3500 
z
" transform="scale(0.015625)"/>
       <path id="DejaVuSansMono-65" d="M 3475 1894 
L 3475 1613 
L 984 1613 
L 984 1594 
Q 984 1022 1282 709 
Q 1581 397 2125 397 
Q 2400 397 2700 484 
Q 3000 572 3341 750 
L 3341 178 
Q 3013 44 2708 -23 
Q 2403 -91 2119 -91 
Q 1303 -91 843 398 
Q 384 888 384 1747 
Q 384 2584 834 3084 
Q 1284 3584 2034 3584 
Q 2703 3584 3089 3131 
Q 3475 2678 3475 1894 
z
M 2900 2063 
Q 2888 2569 2661 2833 
Q 2434 3097 2009 3097 
Q 1594 3097 1325 2822 
Q 1056 2547 1006 2059 
L 2900 2063 
z
" transform="scale(0.015625)"/>
       <path id="DejaVuSansMono-72" d="M 3609 2778 
Q 3425 2922 3234 2987 
Q 3044 3053 2816 3053 
Q 2278 3053 1993 2715 
Q 1709 2378 1709 1741 
L 1709 0 
L 1131 0 
L 1131 3500 
L 1709 3500 
L 1709 2816 
Q 1853 3188 2151 3386 
Q 2450 3584 2859 3584 
Q 3072 3584 3256 3531 
Q 3441 3478 3609 3366 
L 3609 2778 
z
" transform="scale(0.015625)"/>
       <path id="DejaVuSansMono-79" d="M 2681 1125 
Q 2538 759 2316 163 
Q 2006 -663 1900 -844 
Q 1756 -1088 1540 -1209 
Q 1325 -1331 1038 -1331 
L 575 -1331 
L 575 -850 
L 916 -850 
Q 1169 -850 1312 -703 
Q 1456 -556 1678 56 
L 325 3500 
L 934 3500 
L 1972 763 
L 2994 3500 
L 3603 3500 
L 2681 1125 
z
" transform="scale(0.015625)"/>
       <path id="DejaVuSansMono-20" transform="scale(0.015625)"/>
       <path id="DejaVuSansMono-59" d="M 116 4666 
L 788 4666 
L 1925 2606 
L 3059 4666 
L 3738 4666 
L 2241 2094 
L 2241 0 
L 1606 0 
L 1606 2094 
L 116 4666 
z
" transform="scale(0.015625)"/>
       <path id="DejaVuSansMono-61" d="M 2194 1759 
L 2003 1759 
Q 1500 1759 1245 1582 
Q 991 1406 991 1056 
Q 991 741 1181 566 
Q 1372 391 1709 391 
Q 2184 391 2456 720 
Q 2728 1050 2731 1631 
L 2731 1759 
L 2194 1759 
z
M 3309 1997 
L 3309 0 
L 2731 0 
L 2731 519 
Q 2547 206 2267 57 
Q 1988 -91 1588 -91 
Q 1053 -91 734 211 
Q 416 513 416 1019 
Q 416 1603 808 1906 
Q 1200 2209 1959 2209 
L 2731 2209 
L 2731 2300 
Q 2728 2719 2518 2908 
Q 2309 3097 1850 3097 
Q 1556 3097 1256 3012 
Q 956 2928 672 2766 
L 672 3341 
Q 991 3463 1283 3523 
Q 1575 3584 1850 3584 
Q 2284 3584 2592 3456 
Q 2900 3328 3091 3072 
Q 3209 2916 3259 2686 
Q 3309 2456 3309 1997 
z
" transform="scale(0.015625)"/>
      </defs>
      <use xlink:href="#DejaVuSansMono-44"/>
      <use xlink:href="#DejaVuSansMono-69" x="60.205078"/>
      <use xlink:href="#DejaVuSansMono-73" x="120.410156"/>
      <use xlink:href="#DejaVuSansMono-63" x="180.615234"/>
      <use xlink:href="#DejaVuSansMono-6f" x="240.820312"/>
      <use xlink:href="#DejaVuSansMono-76" x="301.025391"/>
      <use xlink:href="#DejaVuSansMono-65" x="361.230469"/>
      <use xlink:href="#DejaVuSansMono-72" x="421.435547"/>
      <use xlink:href="#DejaVuSansMono-79" x="481.640625"/>
      <use xlink:href="#DejaVuSansMono-20" x="541.845703"/>
      <use xlink:href="#DejaVuSansMono-59" x="602.050781"/>
      <use xlink:href="#DejaVuSansMono-65" x="662.255859"/>
      <use xlink:href="#DejaVuSansMono-61" x="722.460938"/>
      <use xlink:href="#DejaVuSansMono-72" x="782.666016"/>
     </g>
    </g>
   </g>
   <g id="matplotlib.axis_2">
    <g id="ytick_1">
     <g id="line2d_34">
      <defs>
       <path id="mac6283299f" d="M 0 0 
L -3.5 0 
" style="stroke: #ffffff; stroke-width: 1.5"/>
      </defs>
      <g>
       <use xlink:href="#mac6283299f" x="59.95875" y="498.318594" style="fill: #ffffff; stroke: #ffffff; stroke-width: 1.5"/>
      </g>
     </g>
     <g id="text_35">
      <!-- 0 -->
      <g style="fill: #ffffff" transform="translate(46.938438 502.144375) scale(0.1 -0.1)">
       <use xlink:href="#DejaVuSansMono-30"/>
      </g>
     </g>
    </g>
    <g id="ytick_2">
     <g id="line2d_35">
      <g>
       <use xlink:href="#mac6283299f" x="59.95875" y="423.398409" style="fill: #ffffff; stroke: #ffffff; stroke-width: 1.5"/>
      </g>
     </g>
     <g id="text_36">
      <!-- 1000 -->
      <g style="fill: #ffffff" transform="translate(28.8775 427.224191) scale(0.1 -0.1)">
       <use xlink:href="#DejaVuSansMono-31"/>
       <use xlink:href="#DejaVuSansMono-30" x="60.205078"/>
       <use xlink:href="#DejaVuSansMono-30" x="120.410156"/>
       <use xlink:href="#DejaVuSansMono-30" x="180.615234"/>
      </g>
     </g>
    </g>
    <g id="ytick_3">
     <g id="line2d_36">
      <g>
       <use xlink:href="#mac6283299f" x="59.95875" y="348.478225" style="fill: #ffffff; stroke: #ffffff; stroke-width: 1.5"/>
      </g>
     </g>
     <g id="text_37">
      <!-- 2000 -->
      <g style="fill: #ffffff" transform="translate(28.8775 352.304006) scale(0.1 -0.1)">
       <use xlink:href="#DejaVuSansMono-32"/>
       <use xlink:href="#DejaVuSansMono-30" x="60.205078"/>
       <use xlink:href="#DejaVuSansMono-30" x="120.410156"/>
       <use xlink:href="#DejaVuSansMono-30" x="180.615234"/>
      </g>
     </g>
    </g>
    <g id="ytick_4">
     <g id="line2d_37">
      <g>
       <use xlink:href="#mac6283299f" x="59.95875" y="273.55804" style="fill: #ffffff; stroke: #ffffff; stroke-width: 1.5"/>
      </g>
     </g>
     <g id="text_38">
      <!-- 3000 -->
      <g style="fill: #ffffff" transform="translate(28.8775 277.383822) scale(0.1 -0.1)">
       <use xlink:href="#DejaVuSansMono-33"/>
       <use xlink:href="#DejaVuSansMono-30" x="60.205078"/>
       <use xlink:href="#DejaVuSansMono-30" x="120.410156"/>
       <use xlink:href="#DejaVuSansMono-30" x="180.615234"/>
      </g>
     </g>
    </g>
    <g id="ytick_5">
     <g id="line2d_38">
      <g>
       <use xlink:href="#mac6283299f" x="59.95875" y="198.637856" style="fill: #ffffff; stroke: #ffffff; stroke-width: 1.5"/>
      </g>
     </g>
     <g id="text_39">
      <!-- 4000 -->
      <g style="fill: #ffffff" transform="translate(28.8775 202.463637) scale(0.1 -0.1)">
       <use xlink:href="#DejaVuSansMono-34"/>
       <use xlink:href="#DejaVuSansMono-30" x="60.205078"/>
       <use xlink:href="#DejaVuSansMono-30" x="120.410156"/>
       <use xlink:href="#DejaVuSansMono-30" x="180.615234"/>
      </g>
     </g>
    </g>
    <g id="ytick_6">
     <g id="line2d_39">
      <g>
       <use xlink:href="#mac6283299f" x="59.95875" y="123.717671" style="fill: #ffffff; stroke: #ffffff; stroke-width: 1.5"/>
      </g>
     </g>
     <g id="text_40">
      <!-- 5000 -->
      <g style="fill: #ffffff" transform="translate(28.8775 127.543453) scale(0.1 -0.1)">
       <use xlink:href="#DejaVuSansMono-35"/>
       <use xlink:href="#DejaVuSansMono-30" x="60.205078"/>
       <use xlink:href="#DejaVuSansMono-30" x="120.410156"/>
       <use xlink:href="#DejaVuSansMono-30" x="180.615234"/>
      </g>
     </g>
    </g>
    <g id="text_41">
     <!-- Cumulative Discoveries -->
     <g style="fill: #ffffff" transform="translate(16.381875 356.026719) rotate(-90) scale(0.12 -0.12)">
      <defs>
       <path id="DejaVuSansMono-43" d="M 3353 166 
Q 3113 38 2859 -26 
Q 2606 -91 2322 -91 
Q 1425 -91 929 543 
Q 434 1178 434 2328 
Q 434 3472 932 4111 
Q 1431 4750 2322 4750 
Q 2606 4750 2859 4686 
Q 3113 4622 3353 4494 
L 3353 3847 
Q 3122 4038 2856 4138 
Q 2591 4238 2322 4238 
Q 1706 4238 1400 3763 
Q 1094 3288 1094 2328 
Q 1094 1372 1400 897 
Q 1706 422 2322 422 
Q 2597 422 2861 522 
Q 3125 622 3353 813 
L 3353 166 
z
" transform="scale(0.015625)"/>
       <path id="DejaVuSansMono-75" d="M 609 1325 
L 609 3494 
L 1184 3494 
L 1184 1325 
Q 1184 853 1351 631 
Q 1519 409 1869 409 
Q 2275 409 2490 695 
Q 2706 981 2706 1516 
L 2706 3494 
L 3284 3494 
L 3284 0 
L 2706 0 
L 2706 525 
Q 2553 222 2289 65 
Q 2025 -91 1672 -91 
Q 1134 -91 871 261 
Q 609 613 609 1325 
z
" transform="scale(0.015625)"/>
       <path id="DejaVuSansMono-6d" d="M 2113 3144 
Q 2219 3369 2383 3476 
Q 2547 3584 2778 3584 
Q 3200 3584 3373 3257 
Q 3547 2931 3547 2028 
L 3547 0 
L 3022 0 
L 3022 2003 
Q 3022 2744 2939 2923 
Q 2856 3103 2638 3103 
Q 2388 3103 2295 2911 
Q 2203 2719 2203 2003 
L 2203 0 
L 1678 0 
L 1678 2003 
Q 1678 2753 1589 2928 
Q 1500 3103 1269 3103 
Q 1041 3103 952 2911 
Q 863 2719 863 2003 
L 863 0 
L 341 0 
L 341 3500 
L 863 3500 
L 863 3200 
Q 966 3388 1120 3486 
Q 1275 3584 1472 3584 
Q 1709 3584 1867 3475 
Q 2025 3366 2113 3144 
z
" transform="scale(0.015625)"/>
       <path id="DejaVuSansMono-6c" d="M 1997 1269 
Q 1997 881 2139 684 
Q 2281 488 2559 488 
L 3231 488 
L 3231 0 
L 2503 0 
Q 1988 0 1705 331 
Q 1422 663 1422 1269 
L 1422 4447 
L 500 4447 
L 500 4897 
L 1997 4897 
L 1997 1269 
z
" transform="scale(0.015625)"/>
       <path id="DejaVuSansMono-74" d="M 1919 4494 
L 1919 3500 
L 3225 3500 
L 3225 3053 
L 1919 3053 
L 1919 1153 
Q 1919 766 2066 612 
Q 2213 459 2578 459 
L 3225 459 
L 3225 0 
L 2522 0 
Q 1875 0 1609 259 
Q 1344 519 1344 1153 
L 1344 3053 
L 409 3053 
L 409 3500 
L 1344 3500 
L 1344 4494 
L 1919 4494 
z
" transform="scale(0.015625)"/>
      </defs>
      <use xlink:href="#DejaVuSansMono-43"/>
      <use xlink:href="#DejaVuSansMono-75" x="60.205078"/>
      <use xlink:href="#DejaVuSansMono-6d" x="120.410156"/>
      <use xlink:href="#DejaVuSansMono-75" x="180.615234"/>
      <use xlink:href="#DejaVuSansMono-6c" x="240.820312"/>
      <use xlink:href="#DejaVuSansMono-61" x="301.025391"/>
      <use xlink:href="#DejaVuSansMono-74" x="361.230469"/>
      <use xlink:href="#DejaVuSansMono-69" x="421.435547"/>
      <use xlink:href="#DejaVuSansMono-76" x="481.640625"/>
      <use xlink:href="#DejaVuSansMono-65" x="541.845703"/>
      <use xlink:href="#DejaVuSansMono-20" x="602.050781"/>
      <use xlink:href="#DejaVuSansMono-44" x="662.255859"/>
      <use xlink:href="#DejaVuSansMono-69" x="722.460938"/>
      <use xlink:href="#DejaVuSansMono-73" x="782.666016"/>
      <use xlink:href="#DejaVuSansMono-63" x="842.871094"/>
      <use xlink:href="#DejaVuSansMono-6f" x="903.076172"/>
      <use xlink:href="#DejaVuSansMono-76" x="963.28125"/>
      <use xlink:href="#DejaVuSansMono-65" x="1023.486328"/>
      <use xlink:href="#DejaVuSansMono-72" x="1083.691406"/>
      <use xlink:href="#DejaVuSansMono-69" x="1143.896484"/>
      <use xlink:href="#DejaVuSansMono-65" x="1204.101562"/>
      <use xlink:href="#DejaVuSansMono-73" x="1264.306641"/>
     </g>
    </g>
   </g>
   <g id="patch_135">
    <path d="M 59.95875 498.318594 
L 59.95875 54.798594 
" style="fill: none; stroke: #ffffff; stroke-width: 2; stroke-linejoin: miter; stroke-linecap: square"/>
   </g>
   <g id="patch_136">
    <path d="M 59.95875 498.318594 
L 729.55875 498.318594 
" style="fill: none; stroke: #ffffff; stroke-width: 2; stroke-linejoin: miter; stroke-linecap: square"/>
   </g>
   <g id="text_42">
    <!-- Exoplanet Discovery -->
    <g style="fill: #ffffff" transform="translate(263.214922 24.798594) scale(0.23 -0.23)">
     <defs>
      <path id="DejaVuSansMono-45" d="M 616 4666 
L 3384 4666 
L 3384 4134 
L 1247 4134 
L 1247 2753 
L 3291 2753 
L 3291 2222 
L 1247 2222 
L 1247 531 
L 3444 531 
L 3444 0 
L 616 0 
L 616 4666 
z
" transform="scale(0.015625)"/>
      <path id="DejaVuSansMono-78" d="M 3494 3500 
L 2241 1825 
L 3616 0 
L 2950 0 
L 1925 1403 
L 903 0 
L 238 0 
L 1613 1825 
L 359 3500 
L 997 3500 
L 1925 2234 
L 2847 3500 
L 3494 3500 
z
" transform="scale(0.015625)"/>
      <path id="DejaVuSansMono-70" d="M 1172 441 
L 1172 -1331 
L 594 -1331 
L 594 3500 
L 1172 3500 
L 1172 3053 
Q 1316 3313 1555 3448 
Q 1794 3584 2106 3584 
Q 2741 3584 3102 3093 
Q 3463 2603 3463 1734 
Q 3463 881 3100 395 
Q 2738 -91 2106 -91 
Q 1788 -91 1548 45 
Q 1309 181 1172 441 
z
M 2859 1747 
Q 2859 2416 2648 2756 
Q 2438 3097 2022 3097 
Q 1603 3097 1387 2755 
Q 1172 2413 1172 1747 
Q 1172 1084 1387 740 
Q 1603 397 2022 397 
Q 2438 397 2648 737 
Q 2859 1078 2859 1747 
z
" transform="scale(0.015625)"/>
      <path id="DejaVuSansMono-6e" d="M 3284 2169 
L 3284 0 
L 2706 0 
L 2706 2169 
Q 2706 2641 2540 2862 
Q 2375 3084 2022 3084 
Q 1619 3084 1401 2798 
Q 1184 2513 1184 1978 
L 1184 0 
L 609 0 
L 609 3500 
L 1184 3500 
L 1184 2975 
Q 1338 3275 1600 3429 
Q 1863 3584 2222 3584 
Q 2756 3584 3020 3232 
Q 3284 2881 3284 2169 
z
" transform="scale(0.015625)"/>
     </defs>
     <use xlink:href="#DejaVuSansMono-45"/>
     <use xlink:href="#DejaVuSansMono-78" x="60.205078"/>
     <use xlink:href="#DejaVuSansMono-6f" x="120.410156"/>
     <use xlink:href="#DejaVuSansMono-70" x="180.615234"/>
     <use xlink:href="#DejaVuSansMono-6c" x="240.820312"/>
     <use xlink:href="#DejaVuSansMono-61" x="301.025391"/>
     <use xlink:href="#DejaVuSansMono-6e" x="361.230469"/>
     <use xlink:href="#DejaVuSansMono-65" x="421.435547"/>
     <use xlink:href="#DejaVuSansMono-74" x="481.640625"/>
     <use xlink:href="#DejaVuSansMono-20" x="541.845703"/>
     <use xlink:href="#DejaVuSansMono-44" x="602.050781"/>
     <use xlink:href="#DejaVuSansMono-69" x="662.255859"/>
     <use xlink:href="#DejaVuSansMono-73" x="722.460938"/>
     <use xlink:href="#DejaVuSansMono-63" x="782.666016"/>
     <use xlink:href="#DejaVuSansMono-6f" x="842.871094"/>
     <use xlink:href="#DejaVuSansMono-76" x="903.076172"/>
     <use xlink:href="#DejaVuSansMono-65" x="963.28125"/>
     <use xlink:href="#DejaVuSansMono-72" x="1023.486328"/>
     <use xlink:href="#DejaVuSansMono-79" x="1083.691406"/>
    </g>
   </g>
   <g id="legend_1">
    <g id="patch_137">
     <path d="M 66.95875 136.523594 
L 189.263438 136.523594 
Q 191.263438 136.523594 191.263438 134.523594 
L 191.263438 61.798594 
Q 191.263438 59.798594 189.263438 59.798594 
L 66.95875 59.798594 
Q 64.95875 59.798594 64.95875 61.798594 
L 64.95875 134.523594 
Q 64.95875 136.523594 66.95875 136.523594 
z
" style="fill: #1a1a1a; opacity: 0.8; stroke: #cccccc; stroke-linejoin: miter"/>
    </g>
    <g id="text_43">
     <!-- Discovery Method -->
     <g style="fill: #ffffff" transform="translate(79.948594 71.450156) scale(0.1 -0.1)">
      <defs>
       <path id="DejaVuSansMono-4d" d="M 269 4666 
L 1113 4666 
L 1919 2291 
L 2731 4666 
L 3578 4666 
L 3578 0 
L 2994 0 
L 2994 4122 
L 2163 1663 
L 1684 1663 
L 850 4122 
L 850 0 
L 269 0 
L 269 4666 
z
" transform="scale(0.015625)"/>
       <path id="DejaVuSansMono-68" d="M 3284 2169 
L 3284 0 
L 2706 0 
L 2706 2169 
Q 2706 2641 2540 2862 
Q 2375 3084 2022 3084 
Q 1619 3084 1401 2798 
Q 1184 2513 1184 1978 
L 1184 0 
L 609 0 
L 609 4863 
L 1184 4863 
L 1184 2975 
Q 1338 3275 1600 3429 
Q 1863 3584 2222 3584 
Q 2756 3584 3020 3232 
Q 3284 2881 3284 2169 
z
" transform="scale(0.015625)"/>
       <path id="DejaVuSansMono-64" d="M 2681 3053 
L 2681 4863 
L 3256 4863 
L 3256 0 
L 2681 0 
L 2681 441 
Q 2538 181 2298 45 
Q 2059 -91 1747 -91 
Q 1113 -91 748 401 
Q 384 894 384 1759 
Q 384 2613 750 3098 
Q 1116 3584 1747 3584 
Q 2063 3584 2303 3448 
Q 2544 3313 2681 3053 
z
M 991 1747 
Q 991 1078 1203 737 
Q 1416 397 1831 397 
Q 2247 397 2464 740 
Q 2681 1084 2681 1747 
Q 2681 2413 2464 2755 
Q 2247 3097 1831 3097 
Q 1416 3097 1203 2756 
Q 991 2416 991 1747 
z
" transform="scale(0.015625)"/>
      </defs>
      <use xlink:href="#DejaVuSansMono-44"/>
      <use xlink:href="#DejaVuSansMono-69" x="60.205078"/>
      <use xlink:href="#DejaVuSansMono-73" x="120.410156"/>
      <use xlink:href="#DejaVuSansMono-63" x="180.615234"/>
      <use xlink:href="#DejaVuSansMono-6f" x="240.820312"/>
      <use xlink:href="#DejaVuSansMono-76" x="301.025391"/>
      <use xlink:href="#DejaVuSansMono-65" x="361.230469"/>
      <use xlink:href="#DejaVuSansMono-72" x="421.435547"/>
      <use xlink:href="#DejaVuSansMono-79" x="481.640625"/>
      <use xlink:href="#DejaVuSansMono-20" x="541.845703"/>
      <use xlink:href="#DejaVuSansMono-4d" x="602.050781"/>
      <use xlink:href="#DejaVuSansMono-65" x="662.255859"/>
      <use xlink:href="#DejaVuSansMono-74" x="722.460938"/>
      <use xlink:href="#DejaVuSansMono-68" x="782.666016"/>
      <use xlink:href="#DejaVuSansMono-6f" x="842.871094"/>
      <use xlink:href="#DejaVuSansMono-64" x="903.076172"/>
     </g>
    </g>
    <g id="patch_138">
     <path d="M 68.95875 86.181406 
L 88.95875 86.181406 
L 88.95875 79.181406 
L 68.95875 79.181406 
z
" style="fill: #8c6382; stroke: #ffffff; stroke-linejoin: miter"/>
    </g>
    <g id="text_44">
     <!-- Transit -->
     <g style="fill: #ffffff" transform="translate(96.95875 86.181406) scale(0.1 -0.1)">
      <defs>
       <path id="DejaVuSansMono-54" d="M 147 4666 
L 3706 4666 
L 3706 4134 
L 2247 4134 
L 2247 0 
L 1613 0 
L 1613 4134 
L 147 4134 
L 147 4666 
z
" transform="scale(0.015625)"/>
      </defs>
      <use xlink:href="#DejaVuSansMono-54"/>
      <use xlink:href="#DejaVuSansMono-72" x="60.205078"/>
      <use xlink:href="#DejaVuSansMono-61" x="120.410156"/>
      <use xlink:href="#DejaVuSansMono-6e" x="180.615234"/>
      <use xlink:href="#DejaVuSansMono-73" x="240.820312"/>
      <use xlink:href="#DejaVuSansMono-69" x="301.025391"/>
      <use xlink:href="#DejaVuSansMono-74" x="361.230469"/>
     </g>
    </g>
    <g id="patch_139">
     <path d="M 68.95875 100.912656 
L 88.95875 100.912656 
L 88.95875 93.912656 
L 68.95875 93.912656 
z
" style="fill: #4a538a; stroke: #ffffff; stroke-linejoin: miter"/>
    </g>
    <g id="text_45">
     <!-- Radial Velocity -->
     <g style="fill: #ffffff" transform="translate(96.95875 100.912656) scale(0.1 -0.1)">
      <defs>
       <path id="DejaVuSansMono-52" d="M 2375 2203 
Q 2619 2141 2791 1967 
Q 2963 1794 3219 1275 
L 3853 0 
L 3175 0 
L 2619 1178 
Q 2378 1681 2186 1826 
Q 1994 1972 1684 1972 
L 1081 1972 
L 1081 0 
L 447 0 
L 447 4666 
L 1747 4666 
Q 2516 4666 2925 4319 
Q 3334 3972 3334 3316 
Q 3334 2853 3082 2561 
Q 2831 2269 2375 2203 
z
M 1081 4147 
L 1081 2491 
L 1772 2491 
Q 2225 2491 2447 2694 
Q 2669 2897 2669 3316 
Q 2669 3719 2433 3933 
Q 2197 4147 1747 4147 
L 1081 4147 
z
" transform="scale(0.015625)"/>
       <path id="DejaVuSansMono-56" d="M 1925 531 
L 3022 4666 
L 3675 4666 
L 2309 0 
L 1544 0 
L 178 4666 
L 831 4666 
L 1925 531 
z
" transform="scale(0.015625)"/>
      </defs>
      <use xlink:href="#DejaVuSansMono-52"/>
      <use xlink:href="#DejaVuSansMono-61" x="60.205078"/>
      <use xlink:href="#DejaVuSansMono-64" x="120.410156"/>
      <use xlink:href="#DejaVuSansMono-69" x="180.615234"/>
      <use xlink:href="#DejaVuSansMono-61" x="240.820312"/>
      <use xlink:href="#DejaVuSansMono-6c" x="301.025391"/>
      <use xlink:href="#DejaVuSansMono-20" x="361.230469"/>
      <use xlink:href="#DejaVuSansMono-56" x="421.435547"/>
      <use xlink:href="#DejaVuSansMono-65" x="481.640625"/>
      <use xlink:href="#DejaVuSansMono-6c" x="541.845703"/>
      <use xlink:href="#DejaVuSansMono-6f" x="602.050781"/>
      <use xlink:href="#DejaVuSansMono-63" x="662.255859"/>
      <use xlink:href="#DejaVuSansMono-69" x="722.460938"/>
      <use xlink:href="#DejaVuSansMono-74" x="782.666016"/>
      <use xlink:href="#DejaVuSansMono-79" x="842.871094"/>
     </g>
    </g>
    <g id="patch_140">
     <path d="M 68.95875 115.643906 
L 88.95875 115.643906 
L 88.95875 108.643906 
L 68.95875 108.643906 
z
" style="fill: #311e3e; stroke: #ffffff; stroke-linejoin: miter"/>
    </g>
    <g id="text_46">
     <!-- Microlensing -->
     <g style="fill: #ffffff" transform="translate(96.95875 115.643906) scale(0.1 -0.1)">
      <defs>
       <path id="DejaVuSansMono-67" d="M 2681 1778 
Q 2681 2425 2470 2761 
Q 2259 3097 1856 3097 
Q 1434 3097 1212 2761 
Q 991 2425 991 1778 
Q 991 1131 1214 792 
Q 1438 453 1863 453 
Q 2259 453 2470 793 
Q 2681 1134 2681 1778 
z
M 3256 225 
Q 3256 -563 2884 -969 
Q 2513 -1375 1791 -1375 
Q 1553 -1375 1293 -1331 
Q 1034 -1288 775 -1203 
L 775 -634 
Q 1081 -778 1331 -847 
Q 1581 -916 1791 -916 
Q 2256 -916 2468 -662 
Q 2681 -409 2681 141 
L 2681 166 
L 2681 556 
Q 2544 263 2306 119 
Q 2069 -25 1728 -25 
Q 1116 -25 750 465 
Q 384 956 384 1778 
Q 384 2603 750 3093 
Q 1116 3584 1728 3584 
Q 2066 3584 2300 3450 
Q 2534 3316 2681 3034 
L 2681 3488 
L 3256 3488 
L 3256 225 
z
" transform="scale(0.015625)"/>
      </defs>
      <use xlink:href="#DejaVuSansMono-4d"/>
      <use xlink:href="#DejaVuSansMono-69" x="60.205078"/>
      <use xlink:href="#DejaVuSansMono-63" x="120.410156"/>
      <use xlink:href="#DejaVuSansMono-72" x="180.615234"/>
      <use xlink:href="#DejaVuSansMono-6f" x="240.820312"/>
      <use xlink:href="#DejaVuSansMono-6c" x="301.025391"/>
      <use xlink:href="#DejaVuSansMono-65" x="361.230469"/>
      <use xlink:href="#DejaVuSansMono-6e" x="421.435547"/>
      <use xlink:href="#DejaVuSansMono-73" x="481.640625"/>
      <use xlink:href="#DejaVuSansMono-69" x="541.845703"/>
      <use xlink:href="#DejaVuSansMono-6e" x="602.050781"/>
      <use xlink:href="#DejaVuSansMono-67" x="662.255859"/>
     </g>
    </g>
    <g id="patch_141">
     <path d="M 68.95875 130.443906 
L 88.95875 130.443906 
L 88.95875 123.443906 
L 68.95875 123.443906 
z
" style="fill: #573259; stroke: #ffffff; stroke-linejoin: miter"/>
    </g>
    <g id="text_47">
     <!-- Other -->
     <g style="fill: #ffffff" transform="translate(96.95875 130.443906) scale(0.1 -0.1)">
      <defs>
       <path id="DejaVuSansMono-4f" d="M 2828 2328 
Q 2828 3356 2617 3797 
Q 2406 4238 1925 4238 
Q 1447 4238 1236 3797 
Q 1025 3356 1025 2328 
Q 1025 1303 1236 862 
Q 1447 422 1925 422 
Q 2406 422 2617 861 
Q 2828 1300 2828 2328 
z
M 3488 2328 
Q 3488 1109 3102 509 
Q 2716 -91 1925 -91 
Q 1134 -91 750 506 
Q 366 1103 366 2328 
Q 366 3550 752 4150 
Q 1138 4750 1925 4750 
Q 2716 4750 3102 4150 
Q 3488 3550 3488 2328 
z
" transform="scale(0.015625)"/>
      </defs>
      <use xlink:href="#DejaVuSansMono-4f"/>
      <use xlink:href="#DejaVuSansMono-74" x="60.205078"/>
      <use xlink:href="#DejaVuSansMono-68" x="120.410156"/>
      <use xlink:href="#DejaVuSansMono-65" x="180.615234"/>
      <use xlink:href="#DejaVuSansMono-72" x="240.820312"/>
     </g>
    </g>
   </g>
  </g>
  <g id="text_48">
   <!-- cumulative stacked histogram -->
   <g style="fill: #ffffff" transform="translate(291.245938 43.278594) scale(0.11 -0.11)">
    <defs>
     <path id="DejaVuSansMono-6b" d="M 738 4863 
L 1331 4863 
L 1331 2047 
L 2841 3500 
L 3541 3500 
L 2163 2181 
L 3756 0 
L 3053 0 
L 1759 1806 
L 1331 1403 
L 1331 0 
L 738 0 
L 738 4863 
z
" transform="scale(0.015625)"/>
    </defs>
    <use xlink:href="#DejaVuSansMono-63"/>
    <use xlink:href="#DejaVuSansMono-75" x="60.205078"/>
    <use xlink:href="#DejaVuSansMono-6d" x="120.410156"/>
    <use xlink:href="#DejaVuSansMono-75" x="180.615234"/>
    <use xlink:href="#DejaVuSansMono-6c" x="240.820312"/>
    <use xlink:href="#DejaVuSansMono-61" x="301.025391"/>
    <use xlink:href="#DejaVuSansMono-74" x="361.230469"/>
    <use xlink:href="#DejaVuSansMono-69" x="421.435547"/>
    <use xlink:href="#DejaVuSansMono-76" x="481.640625"/>
    <use xlink:href="#DejaVuSansMono-65" x="541.845703"/>
    <use xlink:href="#DejaVuSansMono-20" x="602.050781"/>
    <use xlink:href="#DejaVuSansMono-73" x="662.255859"/>
    <use xlink:href="#DejaVuSansMono-74" x="722.460938"/>
    <use xlink:href="#DejaVuSansMono-61" x="782.666016"/>
    <use xlink:href="#DejaVuSansMono-63" x="842.871094"/>
    <use xlink:href="#DejaVuSansMono-6b" x="903.076172"/>
    <use xlink:href="#DejaVuSansMono-65" x="963.28125"/>
    <use xlink:href="#DejaVuSansMono-64" x="1023.486328"/>
    <use xlink:href="#DejaVuSansMono-20" x="1083.691406"/>
    <use xlink:href="#DejaVuSansMono-68" x="1143.896484"/>
    <use xlink:href="#DejaVuSansMono-69" x="1204.101562"/>
    <use xlink:href="#DejaVuSansMono-73" x="1264.306641"/>
    <use xlink:href="#DejaVuSansMono-74" x="1324.511719"/>
    <use xlink:href="#DejaVuSansMono-6f" x="1384.716797"/>
    <use xlink:href="#DejaVuSansMono-67" x="1444.921875"/>
    <use xlink:href="#DejaVuSansMono-72" x="1505.126953"/>
    <use xlink:href="#DejaVuSansMono-61" x="1565.332031"/>
    <use xlink:href="#DejaVuSansMono-6d" x="1625.537109"/>
   </g>
  </g>
  <g id="text_49">
   <!-- NASA Exoplanet Archive | Planetary Systems -->
   <g style="fill: #ffffff" transform="translate(470.35875 559.320781) scale(0.1 -0.1)">
    <defs>
     <path id="DejaVuSansMono-4e" d="M 434 4666 
L 1234 4666 
L 2809 825 
L 2809 4666 
L 3419 4666 
L 3419 0 
L 2619 0 
L 1044 3841 
L 1044 0 
L 434 0 
L 434 4666 
z
" transform="scale(0.015625)"/>
     <path id="DejaVuSansMono-41" d="M 1925 4109 
L 1259 1722 
L 2591 1722 
L 1925 4109 
z
M 1544 4666 
L 2309 4666 
L 3738 0 
L 3084 0 
L 2741 1216 
L 1106 1216 
L 769 0 
L 116 0 
L 1544 4666 
z
" transform="scale(0.015625)"/>
     <path id="DejaVuSansMono-53" d="M 3163 4506 
L 3163 3866 
Q 2875 4050 2586 4144 
Q 2297 4238 2003 4238 
Q 1556 4238 1297 4030 
Q 1038 3822 1038 3469 
Q 1038 3159 1208 2996 
Q 1378 2834 1844 2725 
L 2175 2650 
Q 2831 2497 3131 2169 
Q 3431 1841 3431 1275 
Q 3431 609 3018 259 
Q 2606 -91 1819 -91 
Q 1491 -91 1159 -20 
Q 828 50 494 191 
L 494 863 
Q 853 634 1173 528 
Q 1494 422 1819 422 
Q 2297 422 2562 636 
Q 2828 850 2828 1234 
Q 2828 1584 2645 1768 
Q 2463 1953 2009 2053 
L 1672 2131 
Q 1022 2278 728 2575 
Q 434 2872 434 3372 
Q 434 3997 854 4373 
Q 1275 4750 1972 4750 
Q 2241 4750 2537 4689 
Q 2834 4628 3163 4506 
z
" transform="scale(0.015625)"/>
     <path id="DejaVuSansMono-7c" d="M 2194 4891 
L 2194 -1509 
L 1656 -1509 
L 1656 4891 
L 2194 4891 
z
" transform="scale(0.015625)"/>
     <path id="DejaVuSansMono-50" d="M 1247 4147 
L 1247 2394 
L 1978 2394 
Q 2416 2394 2661 2625 
Q 2906 2856 2906 3272 
Q 2906 3688 2662 3917 
Q 2419 4147 1978 4147 
L 1247 4147 
z
M 616 4666 
L 1978 4666 
Q 2759 4666 3162 4311 
Q 3566 3956 3566 3272 
Q 3566 2581 3164 2228 
Q 2763 1875 1978 1875 
L 1247 1875 
L 1247 0 
L 616 0 
L 616 4666 
z
" transform="scale(0.015625)"/>
    </defs>
    <use xlink:href="#DejaVuSansMono-4e"/>
    <use xlink:href="#DejaVuSansMono-41" x="60.205078"/>
    <use xlink:href="#DejaVuSansMono-53" x="120.410156"/>
    <use xlink:href="#DejaVuSansMono-41" x="180.615234"/>
    <use xlink:href="#DejaVuSansMono-20" x="240.820312"/>
    <use xlink:href="#DejaVuSansMono-45" x="301.025391"/>
    <use xlink:href="#DejaVuSansMono-78" x="361.230469"/>
    <use xlink:href="#DejaVuSansMono-6f" x="421.435547"/>
    <use xlink:href="#DejaVuSansMono-70" x="481.640625"/>
    <use xlink:href="#DejaVuSansMono-6c" x="541.845703"/>
    <use xlink:href="#DejaVuSansMono-61" x="602.050781"/>
    <use xlink:href="#DejaVuSansMono-6e" x="662.255859"/>
    <use xlink:href="#DejaVuSansMono-65" x="722.460938"/>
    <use xlink:href="#DejaVuSansMono-74" x="782.666016"/>
    <use xlink:href="#DejaVuSansMono-20" x="842.871094"/>
    <use xlink:href="#DejaVuSansMono-41" x="903.076172"/>
    <use xlink:href="#DejaVuSansMono-72" x="963.28125"/>
    <use xlink:href="#DejaVuSansMono-63" x="1023.486328"/>
    <use xlink:href="#DejaVuSansMono-68" x="1083.691406"/>
    <use xlink:href="#DejaVuSansMono-69" x="1143.896484"/>
    <use xlink:href="#DejaVuSansMono-76" x="1204.101562"/>
    <use xlink:href="#DejaVuSansMono-65" x="1264.306641"/>
    <use xlink:href="#DejaVuSansMono-20" x="1324.511719"/>
    <use xlink:href="#DejaVuSansMono-7c" x="1384.716797"/>
    <use xlink:href="#DejaVuSansMono-20" x="1444.921875"/>
    <use xlink:href="#DejaVuSansMono-50" x="1505.126953"/>
    <use xlink:href="#DejaVuSansMono-6c" x="1565.332031"/>
    <use xlink:href="#DejaVuSansMono-61" x="1625.537109"/>
    <use xlink:href="#DejaVuSansMono-6e" x="1685.742188"/>
    <use xlink:href="#DejaVuSansMono-65" x="1745.947266"/>
    <use xlink:href="#DejaVuSansMono-74" x="1806.152344"/>
    <use xlink:href="#DejaVuSansMono-61" x="1866.357422"/>
    <use xlink:href="#DejaVuSansMono-72" x="1926.5625"/>
    <use xlink:href="#DejaVuSansMono-79" x="1986.767578"/>
    <use xlink:href="#DejaVuSansMono-20" x="2046.972656"/>
    <use xlink:href="#DejaVuSansMono-53" x="2107.177734"/>
    <use xlink:href="#DejaVuSansMono-79" x="2167.382812"/>
    <use xlink:href="#DejaVuSansMono-73" x="2227.587891"/>
    <use xlink:href="#DejaVuSansMono-74" x="2287.792969"/>
    <use xlink:href="#DejaVuSansMono-65" x="2347.998047"/>
    <use xlink:href="#DejaVuSansMono-6d" x="2408.203125"/>
    <use xlink:href="#DejaVuSansMono-73" x="2468.408203"/>
   </g>
  </g>
 </g>
 <defs>
  <clipPath id="p83b724d6c0">
   <rect x="59.95875" y="54.798594" width="669.6" height="443.52"/>
  </clipPath>
 </defs>
</svg>
